<mxfile host="app.diagrams.net" agent="Mozilla/5.0 (Macintosh; Intel Mac OS X 10_15_7) AppleWebKit/537.36 (KHTML, like Gecko) Chrome/134.0.0.0 Safari/537.36" version="26.1.1">
  <diagram name="Page-1" id="Z3INf6ev-yo-JsYEDbP-">
    <mxGraphModel dx="1226" dy="692" grid="0" gridSize="10" guides="1" tooltips="1" connect="1" arrows="1" fold="1" page="1" pageScale="1" pageWidth="850" pageHeight="1100" math="0" shadow="0">
      <root>
        <mxCell id="0" />
        <mxCell id="1" parent="0" />
        <mxCell id="EmysjJwm9qbrB_Ymdtlw-5" value="" style="edgeStyle=orthogonalEdgeStyle;rounded=0;orthogonalLoop=1;jettySize=auto;html=1;" edge="1" parent="1" source="EmysjJwm9qbrB_Ymdtlw-1" target="EmysjJwm9qbrB_Ymdtlw-4">
          <mxGeometry relative="1" as="geometry" />
        </mxCell>
        <mxCell id="EmysjJwm9qbrB_Ymdtlw-1" value="Customer clicks&amp;nbsp;&lt;div&gt;report link&lt;/div&gt;" style="rounded=0;whiteSpace=wrap;html=1;" vertex="1" parent="1">
          <mxGeometry x="220" y="180" width="100" height="60" as="geometry" />
        </mxCell>
        <mxCell id="EmysjJwm9qbrB_Ymdtlw-3" value="" style="edgeStyle=orthogonalEdgeStyle;rounded=0;orthogonalLoop=1;jettySize=auto;html=1;" edge="1" parent="1" source="EmysjJwm9qbrB_Ymdtlw-2" target="EmysjJwm9qbrB_Ymdtlw-1">
          <mxGeometry relative="1" as="geometry" />
        </mxCell>
        <mxCell id="EmysjJwm9qbrB_Ymdtlw-2" value="Customer accesses frontend application" style="rounded=0;whiteSpace=wrap;html=1;" vertex="1" parent="1">
          <mxGeometry x="60" y="180" width="120" height="60" as="geometry" />
        </mxCell>
        <mxCell id="EmysjJwm9qbrB_Ymdtlw-7" value="" style="edgeStyle=orthogonalEdgeStyle;rounded=0;orthogonalLoop=1;jettySize=auto;html=1;" edge="1" parent="1" source="EmysjJwm9qbrB_Ymdtlw-4" target="EmysjJwm9qbrB_Ymdtlw-6">
          <mxGeometry relative="1" as="geometry" />
        </mxCell>
        <mxCell id="EmysjJwm9qbrB_Ymdtlw-18" value="" style="edgeStyle=orthogonalEdgeStyle;rounded=0;orthogonalLoop=1;jettySize=auto;html=1;" edge="1" parent="1" source="EmysjJwm9qbrB_Ymdtlw-4" target="EmysjJwm9qbrB_Ymdtlw-17">
          <mxGeometry relative="1" as="geometry" />
        </mxCell>
        <mxCell id="EmysjJwm9qbrB_Ymdtlw-4" value="API call is made to get report" style="whiteSpace=wrap;html=1;rounded=0;align=center;" vertex="1" parent="1">
          <mxGeometry x="350" y="180" width="120" height="60" as="geometry" />
        </mxCell>
        <mxCell id="EmysjJwm9qbrB_Ymdtlw-9" value="" style="edgeStyle=orthogonalEdgeStyle;rounded=0;orthogonalLoop=1;jettySize=auto;html=1;" edge="1" parent="1" source="EmysjJwm9qbrB_Ymdtlw-6" target="EmysjJwm9qbrB_Ymdtlw-8">
          <mxGeometry relative="1" as="geometry" />
        </mxCell>
        <mxCell id="EmysjJwm9qbrB_Ymdtlw-6" value="Gathers Data" style="whiteSpace=wrap;html=1;rounded=0;" vertex="1" parent="1">
          <mxGeometry x="355" y="310" width="110" height="40" as="geometry" />
        </mxCell>
        <mxCell id="EmysjJwm9qbrB_Ymdtlw-11" value="" style="edgeStyle=orthogonalEdgeStyle;rounded=0;orthogonalLoop=1;jettySize=auto;html=1;" edge="1" parent="1" source="EmysjJwm9qbrB_Ymdtlw-8" target="EmysjJwm9qbrB_Ymdtlw-10">
          <mxGeometry relative="1" as="geometry" />
        </mxCell>
        <mxCell id="EmysjJwm9qbrB_Ymdtlw-8" value="Creates PDF" style="rounded=0;whiteSpace=wrap;html=1;" vertex="1" parent="1">
          <mxGeometry x="355" y="380" width="110" height="40" as="geometry" />
        </mxCell>
        <mxCell id="EmysjJwm9qbrB_Ymdtlw-13" value="" style="edgeStyle=orthogonalEdgeStyle;rounded=0;orthogonalLoop=1;jettySize=auto;html=1;" edge="1" parent="1" source="EmysjJwm9qbrB_Ymdtlw-10" target="EmysjJwm9qbrB_Ymdtlw-12">
          <mxGeometry relative="1" as="geometry" />
        </mxCell>
        <mxCell id="EmysjJwm9qbrB_Ymdtlw-10" value="Stores in&amp;nbsp;&lt;div&gt;Azure Blob Storage&lt;/div&gt;" style="whiteSpace=wrap;html=1;rounded=0;" vertex="1" parent="1">
          <mxGeometry x="355" y="450" width="110" height="50" as="geometry" />
        </mxCell>
        <mxCell id="EmysjJwm9qbrB_Ymdtlw-15" value="" style="edgeStyle=orthogonalEdgeStyle;rounded=0;orthogonalLoop=1;jettySize=auto;html=1;entryX=0.75;entryY=1;entryDx=0;entryDy=0;curved=1;exitX=1;exitY=0.5;exitDx=0;exitDy=0;" edge="1" parent="1" source="EmysjJwm9qbrB_Ymdtlw-12" target="EmysjJwm9qbrB_Ymdtlw-4">
          <mxGeometry relative="1" as="geometry">
            <Array as="points">
              <mxPoint x="540" y="570" />
              <mxPoint x="540" y="280" />
              <mxPoint x="440" y="280" />
            </Array>
          </mxGeometry>
        </mxCell>
        <mxCell id="EmysjJwm9qbrB_Ymdtlw-16" value="returns&lt;div&gt;link&lt;/div&gt;" style="edgeLabel;html=1;align=center;verticalAlign=middle;resizable=0;points=[];" vertex="1" connectable="0" parent="EmysjJwm9qbrB_Ymdtlw-15">
          <mxGeometry x="0.0194" y="-3" relative="1" as="geometry">
            <mxPoint as="offset" />
          </mxGeometry>
        </mxCell>
        <mxCell id="EmysjJwm9qbrB_Ymdtlw-12" value="Retrieves scure&amp;nbsp;&lt;div&gt;URL link&lt;/div&gt;" style="whiteSpace=wrap;html=1;rounded=0;" vertex="1" parent="1">
          <mxGeometry x="350" y="540" width="120" height="60" as="geometry" />
        </mxCell>
        <mxCell id="EmysjJwm9qbrB_Ymdtlw-20" value="" style="edgeStyle=orthogonalEdgeStyle;rounded=0;orthogonalLoop=1;jettySize=auto;html=1;" edge="1" parent="1" source="EmysjJwm9qbrB_Ymdtlw-17">
          <mxGeometry relative="1" as="geometry">
            <mxPoint x="670" y="210" as="targetPoint" />
          </mxGeometry>
        </mxCell>
        <mxCell id="EmysjJwm9qbrB_Ymdtlw-17" value="New tab is opened with secure link" style="whiteSpace=wrap;html=1;rounded=0;" vertex="1" parent="1">
          <mxGeometry x="510" y="180" width="120" height="60" as="geometry" />
        </mxCell>
        <mxCell id="EmysjJwm9qbrB_Ymdtlw-19" value="PDF is retrieved&amp;nbsp;&lt;div&gt;and shown&lt;/div&gt;" style="whiteSpace=wrap;html=1;rounded=0;" vertex="1" parent="1">
          <mxGeometry x="670" y="180" width="120" height="60" as="geometry" />
        </mxCell>
        <mxCell id="EmysjJwm9qbrB_Ymdtlw-22" value="" style="shape=image;verticalLabelPosition=bottom;labelBackgroundColor=default;verticalAlign=top;aspect=fixed;imageAspect=0;image=data:image/jpeg,/9j/4AAQSkZJRgABAQAAkACQAAD/4QCSRXhpZgAATU0AKgAAAAgABAEaAAUAAAABAAAAPgEbAAUAAAABAAAARgEoAAMAAAABAAIAAIdpAAQAAAABAAAATgAAAAAAAACQAAAAAQAAAJAAAAABAAOShgAHAAAAEgAAAHigAgAEAAAAAQAAAwCgAwAEAAAAAQAAAwYAAAAAQVNDSUkAAABTY3JlZW5zaG90/+0AOFBob3Rvc2hvcCAzLjAAOEJJTQQEAAAAAAAAOEJJTQQlAAAAAAAQ1B2M2Y8AsgTpgAmY7PhCfv/iD/BJQ0NfUFJPRklMRQABAQAAD+BhcHBsAhAAAG1udHJSR0IgWFlaIAfpAAMAEAAGAAMACGFjc3BBUFBMAAAAAEFQUEwAAAAAAAAAAAAAAAAAAAAAAAD21gABAAAAANMtYXBwbAAAAAAAAAAAAAAAAAAAAAAAAAAAAAAAAAAAAAAAAAAAAAAAAAAAAAAAAAAAAAAAEWRlc2MAAAFQAAAAYmRzY20AAAG0AAAEvGNwcnQAAAZwAAAAI3d0cHQAAAaUAAAAFHJYWVoAAAaoAAAAFGdYWVoAAAa8AAAAFGJYWVoAAAbQAAAAFHJUUkMAAAbkAAAIDGFhcmcAAA7wAAAAIHZjZ3QAAA8QAAAAMG5kaW4AAA9AAAAAPm1tb2QAAA+AAAAAKHZjZ3AAAA+oAAAAOGJUUkMAAAbkAAAIDGdUUkMAAAbkAAAIDGFhYmcAAA7wAAAAIGFhZ2cAAA7wAAAAIGRlc2MAAAAAAAAACERpc3BsYXkAAAAAAAAAAAAAAAAAAAAAAAAAAAAAAAAAAAAAAAAAAAAAAAAAAAAAAAAAAAAAAAAAAAAAAAAAAAAAAAAAAAAAAAAAAAAAAAAAAAAAAAAAAABtbHVjAAAAAAAAACcAAAAMaHJIUgAAABQAAAHka29LUgAAAAwAAAH4bmJOTwAAABIAAAIEaWQAAAAAABIAAAIWaHVIVQAAABQAAAIoY3NDWgAAABYAAAI8c2xTSQAAABQAAAJSZGFESwAAABwAAAJmbmxOTAAAABYAAAKCZmlGSQAAABAAAAKYaXRJVAAAABgAAAKoZXNFUwAAABYAAALAcm9STwAAABIAAALWZnJDQQAAABYAAALoYXIAAAAAABQAAAL+dWtVQQAAABwAAAMSaGVJTAAAABYAAAMuemhUVwAAAAoAAANEdmlWTgAAAA4AAANOc2tTSwAAABYAAANcemhDTgAAAAoAAANEcnVSVQAAACQAAANyZW5HQgAAABQAAAOWZnJGUgAAABYAAAOqbXMAAAAAABIAAAPAaGlJTgAAABIAAAPSdGhUSAAAAAwAAAPkY2FFUwAAABgAAAPwZW5BVQAAABQAAAOWZXNYTAAAABIAAALWZGVERQAAABAAAAQIZW5VUwAAABIAAAQYcHRCUgAAABgAAAQqcGxQTAAAABIAAARCZWxHUgAAACIAAARUc3ZTRQAAABAAAAR2dHJUUgAAABQAAASGcHRQVAAAABYAAASaamFKUAAAAAwAAASwAEwAQwBEACAAdQAgAGIAbwBqAGnO7LfsACAATABDAEQARgBhAHIAZwBlAC0ATABDAEQATABDAEQAIABXAGEAcgBuAGEAUwB6AO0AbgBlAHMAIABMAEMARABCAGEAcgBlAHYAbgD9ACAATABDAEQAQgBhAHIAdgBuAGkAIABMAEMARABMAEMARAAtAGYAYQByAHYAZQBzAGsA5gByAG0ASwBsAGUAdQByAGUAbgAtAEwAQwBEAFYA5AByAGkALQBMAEMARABMAEMARAAgAGEAIABjAG8AbABvAHIAaQBMAEMARAAgAGEAIABjAG8AbABvAHIATABDAEQAIABjAG8AbABvAHIAQQBDAEwAIABjAG8AdQBsAGUAdQByIA8ATABDAEQAIAZFBkQGSAZGBikEGgQ+BDsETAQ+BEAEPgQyBDgEOQAgAEwAQwBEIA8ATABDAEQAIAXmBdEF4gXVBeAF2V9pgnIATABDAEQATABDAEQAIABNAOAAdQBGAGEAcgBlAGIAbgD9ACAATABDAEQEJgQyBDUEQgQ9BD4EOQAgBBYEGgAtBDQEOARBBD8EOwQ1BDkAQwBvAGwAbwB1AHIAIABMAEMARABMAEMARAAgAGMAbwB1AGwAZQB1AHIAVwBhAHIAbgBhACAATABDAEQJMAkCCRcJQAkoACAATABDAEQATABDAEQAIA4qDjUATABDAEQAIABlAG4AIABjAG8AbABvAHIARgBhAHIAYgAtAEwAQwBEAEMAbwBsAG8AcgAgAEwAQwBEAEwAQwBEACAAQwBvAGwAbwByAGkAZABvAEsAbwBsAG8AcgAgAEwAQwBEA4gDswPHA8EDyQO8A7cAIAO/A7gDzAO9A7cAIABMAEMARABGAOQAcgBnAC0ATABDAEQAUgBlAG4AawBsAGkAIABMAEMARABMAEMARAAgAGEAIABjAG8AcgBlAHMwqzDpMPwATABDAER0ZXh0AAAAAENvcHlyaWdodCBBcHBsZSBJbmMuLCAyMDI1AABYWVogAAAAAAAA81EAAQAAAAEWzFhZWiAAAAAAAACD3wAAPb////+7WFlaIAAAAAAAAEq/AACxNwAACrlYWVogAAAAAAAAKDgAABELAADIuWN1cnYAAAAAAAAEAAAAAAUACgAPABQAGQAeACMAKAAtADIANgA7AEAARQBKAE8AVABZAF4AYwBoAG0AcgB3AHwAgQCGAIsAkACVAJoAnwCjAKgArQCyALcAvADBAMYAywDQANUA2wDgAOUA6wDwAPYA+wEBAQcBDQETARkBHwElASsBMgE4AT4BRQFMAVIBWQFgAWcBbgF1AXwBgwGLAZIBmgGhAakBsQG5AcEByQHRAdkB4QHpAfIB+gIDAgwCFAIdAiYCLwI4AkECSwJUAl0CZwJxAnoChAKOApgCogKsArYCwQLLAtUC4ALrAvUDAAMLAxYDIQMtAzgDQwNPA1oDZgNyA34DigOWA6IDrgO6A8cD0wPgA+wD+QQGBBMEIAQtBDsESARVBGMEcQR+BIwEmgSoBLYExATTBOEE8AT+BQ0FHAUrBToFSQVYBWcFdwWGBZYFpgW1BcUF1QXlBfYGBgYWBicGNwZIBlkGagZ7BowGnQavBsAG0QbjBvUHBwcZBysHPQdPB2EHdAeGB5kHrAe/B9IH5Qf4CAsIHwgyCEYIWghuCIIIlgiqCL4I0gjnCPsJEAklCToJTwlkCXkJjwmkCboJzwnlCfsKEQonCj0KVApqCoEKmAquCsUK3ArzCwsLIgs5C1ELaQuAC5gLsAvIC+EL+QwSDCoMQwxcDHUMjgynDMAM2QzzDQ0NJg1ADVoNdA2ODakNww3eDfgOEw4uDkkOZA5/DpsOtg7SDu4PCQ8lD0EPXg96D5YPsw/PD+wQCRAmEEMQYRB+EJsQuRDXEPURExExEU8RbRGMEaoRyRHoEgcSJhJFEmQShBKjEsMS4xMDEyMTQxNjE4MTpBPFE+UUBhQnFEkUahSLFK0UzhTwFRIVNBVWFXgVmxW9FeAWAxYmFkkWbBaPFrIW1hb6Fx0XQRdlF4kXrhfSF/cYGxhAGGUYihivGNUY+hkgGUUZaxmRGbcZ3RoEGioaURp3Gp4axRrsGxQbOxtjG4obshvaHAIcKhxSHHscoxzMHPUdHh1HHXAdmR3DHeweFh5AHmoelB6+HukfEx8+H2kflB+/H+ogFSBBIGwgmCDEIPAhHCFIIXUhoSHOIfsiJyJVIoIiryLdIwojOCNmI5QjwiPwJB8kTSR8JKsk2iUJJTglaCWXJccl9yYnJlcmhya3JugnGCdJJ3onqyfcKA0oPyhxKKIo1CkGKTgpaymdKdAqAio1KmgqmyrPKwIrNitpK50r0SwFLDksbiyiLNctDC1BLXYtqy3hLhYuTC6CLrcu7i8kL1ovkS/HL/4wNTBsMKQw2zESMUoxgjG6MfIyKjJjMpsy1DMNM0YzfzO4M/E0KzRlNJ402DUTNU01hzXCNf02NzZyNq426TckN2A3nDfXOBQ4UDiMOMg5BTlCOX85vDn5OjY6dDqyOu87LTtrO6o76DwnPGU8pDzjPSI9YT2hPeA+ID5gPqA+4D8hP2E/oj/iQCNAZECmQOdBKUFqQaxB7kIwQnJCtUL3QzpDfUPARANER0SKRM5FEkVVRZpF3kYiRmdGq0bwRzVHe0fASAVIS0iRSNdJHUljSalJ8Eo3Sn1KxEsMS1NLmkviTCpMcky6TQJNSk2TTdxOJU5uTrdPAE9JT5NP3VAnUHFQu1EGUVBRm1HmUjFSfFLHUxNTX1OqU/ZUQlSPVNtVKFV1VcJWD1ZcVqlW91dEV5JX4FgvWH1Yy1kaWWlZuFoHWlZaplr1W0VblVvlXDVchlzWXSddeF3JXhpebF69Xw9fYV+zYAVgV2CqYPxhT2GiYfViSWKcYvBjQ2OXY+tkQGSUZOllPWWSZedmPWaSZuhnPWeTZ+loP2iWaOxpQ2maafFqSGqfavdrT2una/9sV2yvbQhtYG25bhJua27Ebx5veG/RcCtwhnDgcTpxlXHwcktypnMBc11zuHQUdHB0zHUodYV14XY+dpt2+HdWd7N4EXhueMx5KnmJeed6RnqlewR7Y3vCfCF8gXzhfUF9oX4BfmJ+wn8jf4R/5YBHgKiBCoFrgc2CMIKSgvSDV4O6hB2EgITjhUeFq4YOhnKG14c7h5+IBIhpiM6JM4mZif6KZIrKizCLlov8jGOMyo0xjZiN/45mjs6PNo+ekAaQbpDWkT+RqJIRknqS45NNk7aUIJSKlPSVX5XJljSWn5cKl3WX4JhMmLiZJJmQmfyaaJrVm0Kbr5wcnImc951kndKeQJ6unx2fi5/6oGmg2KFHobaiJqKWowajdqPmpFakx6U4pammGqaLpv2nbqfgqFKoxKk3qamqHKqPqwKrdavprFys0K1ErbiuLa6hrxavi7AAsHWw6rFgsdayS7LCszizrrQltJy1E7WKtgG2ebbwt2i34LhZuNG5SrnCuju6tbsuu6e8IbybvRW9j74KvoS+/796v/XAcMDswWfB48JfwtvDWMPUxFHEzsVLxcjGRsbDx0HHv8g9yLzJOsm5yjjKt8s2y7bMNcy1zTXNtc42zrbPN8+40DnQutE80b7SP9LB00TTxtRJ1MvVTtXR1lXW2Ndc1+DYZNjo2WzZ8dp22vvbgNwF3IrdEN2W3hzeot8p36/gNuC94UThzOJT4tvjY+Pr5HPk/OWE5g3mlucf56noMui86Ubp0Opb6uXrcOv77IbtEe2c7ijutO9A78zwWPDl8XLx//KM8xnzp/Q09ML1UPXe9m32+/eK+Bn4qPk4+cf6V/rn+3f8B/yY/Sn9uv5L/tz/bf//cGFyYQAAAAAAAwAAAAJmZgAA8qcAAA1ZAAAT0AAAClt2Y2d0AAAAAAAAAAEAAQAAAAAAAAABAAAAAQAAAAAAAAABAAAAAQAAAAAAAAABAABuZGluAAAAAAAAADYAAK4UAABR7AAAQ9cAALCkAAAmZgAAD1wAAFANAABUOQACMzMAAjMzAAIzMwAAAAAAAAAAbW1vZAAAAAAAAAYQAACgUP1ibWIAAAAAAAAAAAAAAAAAAAAAAAAAAHZjZ3AAAAAAAAMAAAACZmYAAwAAAAJmZgADAAAAAmZmAAAAAjMzNAAAAAACMzM0AAAAAAIzMzQA/8AAEQgDBgMAAwEiAAIRAQMRAf/EAB8AAAEFAQEBAQEBAAAAAAAAAAABAgMEBQYHCAkKC//EALUQAAIBAwMCBAMFBQQEAAABfQECAwAEEQUSITFBBhNRYQcicRQygZGhCCNCscEVUtHwJDNicoIJChYXGBkaJSYnKCkqNDU2Nzg5OkNERUZHSElKU1RVVldYWVpjZGVmZ2hpanN0dXZ3eHl6g4SFhoeIiYqSk5SVlpeYmZqio6Slpqeoqaqys7S1tre4ubrCw8TFxsfIycrS09TV1tfY2drh4uPk5ebn6Onq8fLz9PX29/j5+v/EAB8BAAMBAQEBAQEBAQEAAAAAAAABAgMEBQYHCAkKC//EALURAAIBAgQEAwQHBQQEAAECdwABAgMRBAUhMQYSQVEHYXETIjKBCBRCkaGxwQkjM1LwFWJy0QoWJDThJfEXGBkaJicoKSo1Njc4OTpDREVGR0hJSlNUVVZXWFlaY2RlZmdoaWpzdHV2d3h5eoKDhIWGh4iJipKTlJWWl5iZmqKjpKWmp6ipqrKztLW2t7i5usLDxMXGx8jJytLT1NXW19jZ2uLj5OXm5+jp6vLz9PX29/j5+v/bAEMAAgICAgICAwICAwUDAwMFBgUFBQUGCAYGBgYGCAoICAgICAgKCgoKCgoKCgwMDAwMDA4ODg4ODw8PDw8PDw8PD//bAEMBAgICBAQEBwQEBxALCQsQEBAQEBAQEBAQEBAQEBAQEBAQEBAQEBAQEBAQEBAQEBAQEBAQEBAQEBAQEBAQEBAQEP/dAAQAMP/aAAwDAQACEQMRAD8A/IeiiigAooooAKKKKACiiigAooooAKKKKACiiigAooooAKKKKACiiigAooooAKKKKACiiigAooooAKKKKACiiigAooooAKKKKACiiigAooooAKKKKACiiigAooooAKKKKACiiigAooooAKKKKACiiigAooooAKKKKACiiigAooooAKKKKACiiigAooooAKKKKACiiigAooooAKKKKACiiigAooooAKKKKACiiigAooooAKKKKACiiigAooooAKKKKAP/0PyHooooAKKKKACiiigAooooAKKKKACiiigAooooAKKKKACiiigAooooAKKKKACiiigAooooAKKKKACiiigAooooAKKKKACiiigAooooAKKKKACiiigAooooAKKKKACiiigAooooAKKKKACiiigAooooAKKKKACiiigAooooAKKKKACiiigAooooAKKKKACiiigAooooAKKKKACiiigAooooAKKKKACiiigAooooAKKKKACiiigAooooAKKKKACiiigD/9H8h6KKKACiiigAooooAKKKKACiiigAooooAKKKKACiiigAooooAKKKKACiiigAooooAKKKKACiiigAooooAKKKKACiiigAooooAKKKKACiiigAooooAKKKKACiiigAooooAKKKKACiiigAooooAKKKKACiiigAooooAKKKKACiiigAooooAKKKKACiiigAooooAKKKKACiiigAooooAKKKKACiiigAooooAKKKKACiiigAooooAKKKKACiiigAooooA//S/IeiiigAooooAKKKKACiiigAooooAKKKKACiiigAooooAKKKKACiiigAooooAKKKKACiiigAoro/D3g/xZ4tn+y+FtGvNXlBwVtIJJsfXYDj6mvftL/Y5+P2pIskmgxWKsSP9Iu4FIx3Ko7MMngcfpzXbhsuxFbWlTcvRNnl47O8HhnbEVoxfnJL9T5eor7Ys/2DfjHcPi51HRrVARktcTsSD1wFgPT3Iqeb9gf4vx+Y0Or6HKFyVHn3KswHTg22AT9ce9d/+rWP/wCfLPGfHeTp2+sx+8+IKK+ttV/Yn+PGnR+ZZ2FlqjcfJbXkann/AK7+UOPrXjuv/A/4v+GFaXWvB+pwxJ96VLd5ol+bbzJEHQZJwMnntXJXyjFUtalKS+TPSwnEuX13ajiIN9uZX+69zyuipZoZraaS3uI2iliYo6OCrKynBBB5BB6ioq849tMKKKKACiiigAooooAKKKKACiiigAooooAKKKKACiiigAooooAKKKKACiiigAooooAKKKKACiiigAoqWGGa4kENvG0sjdFUFicc8AV674e/Z++NXihgNJ8HajtOcPcQ/ZIzggHD3BjXqfX19DjejhqlR2pxb9Fc5cVjqFBc1eaivNpfmeO0V9o6L+wn8ZdSjWXU7nS9JBzlJrh5JB1A4hidD0B+/wBD65Fd/b/8E+PETITdeMrWN88BLR3GPqXX+VexS4XzCauqT+dl+Z8xX8QMmpu0sSvld/kmfnfRX6HXH/BPnxKu37J4xtJOud9rImPTGHbP6Vyuq/sEfFa1jeXS9Y0m/wBmcIZJonYdsZiK5PfLAD1NOfC2YR1dJ/g/yZNLxCyabssSvmmvzR8N0V7r4t/Zq+NvgzzpNT8LXNzbwLvaeyAu49nOW/clmUDBJ3AEDk8EGvD5oZraaS3uI2iliYo6OCrKynBBB5BB6ivHxGEq0ny1YtPzVj6fB5jh8THnw9RSXk0/yIqKKK5zsCiiigAooooAKKKKACiiigAooooAKKKKACiiigAooooAKKKKACiiigAooooAKKKKAP/T/IeiiigAooooAKKKKACiiigAooooAKKKKACiiigAooooAKKKKACiiigAooooAKKK+1v2bf2ULr4nRw+NPHnnWHhkMDBCnyTX+OuGPKQ54LAZbkKR94d2X5dVxVVUqKu/y82eTnWd4bL6DxGKlaK+9vsl1f8AWx4R8JPgf47+M2pS2nhS3RLS1Ki5vbhilvDu6AkAlmI5CqCe5wOa/Sr4cfsTfC3wiIr7xaZfFeoqFJE/7q0Vwc5WBDlvQiRnU/3RX1poWgaJ4Y0qDRPDtjDp1haqFjhgQIigew6k9yeT1JzWvX65k/B2Gw8VKquefnt8l/mfzZxN4nY/GycMPJ06fZbv1e/yVl67laysrPTrWKx0+CO1toFCRxRKERFHQKqgAAegqzRRX1qVtD81bbd2FFFFMQUUUUAcZ4q+HXgPxvGY/F2gWWqnjDzwI0i7em2TG9emOCOOOlfL3jH9hf4Sa5E7+FZ7zw1c4OwJIbuAHAA3JOTIcEZ4lXqfbH2pRXnYzKcNiP41NP5a/fue3lnEmPwdvq1aUV2vp9z0/A/Fr4g/sb/GPwUWudJsk8UWATeZdPO6VcDlWt2xIT1x5YfIx0JxXyzeWV5p1y9nqEEltcR43RyqUdcjIyrAEZBz9K/pLrgPHXwt8AfEm2Fv410S31Jo0ZI5nTE8SsCCI5Vw69c4BxnBxkCvjMx4ApyvLDTs+z1X37/mfqeSeMtaFoY+kpLvHR/ds/lY/nqor9GPir+wfqNp52rfCPUft0fLf2bfMqTD2iuMKjc8ASBMAcuxr4D8ReGfEPhHVZdD8T6dPpd/D96G4jaN8HowDDlTjhhkEcgkV+f5lk2JwkrV4W8+n3n7PkfE+BzGHNhaib6rZr1W/wA9vMw6KKK8s98KKKKACiiigAooooAKKKKACiiigAooooAKKKKACiiigAooqWGGa5mjt7eNpZZWCIiAszMxwAAOSSegoBsipyI8jrHGpd3IAAGSSegAr7L+FX7FXxH8a+TqnjQ/8InpT4bbOm++kX0EGR5eeQTKVYddjCv0g+HP7P8A8KfhcsE3hjRI31GFQDf3X7+6ZsAFt7cITjkRqi9cAZr63KuDsXiLSmuSPnv8l/nY/N+IvE/LsC3TpP2k+0dl6y2+65+U/wAPf2TvjL8QP3/9lf8ACP2Qx+/1UPbbv9yLY0rccg7Ap/vV9reCv2DvhxozR3XjTU7vxFKuCYUP2S2Py8ghCZTzkgiReOor7por9AwHBuCo6yjzvz/y2PxnOfFHNcU2qc/Zx7R3+/f7rHHeFPh74G8DWy2vhDQrPSUAALQQqsj7QQC8mN7nBIyxJ5612NFFfUU6cYLlgrI/Pq1edSTnUk231erCiiirMgooooAK8b+JnwE+F/xXgf8A4SjSEjvyCEv7XEF2hPfzACHxk4WRXUEk4zzXslFY4jDU6sXCrFNeZ1YPHVsPUVWhNxkuqdj8cfjX+x74z+HEDa94QaXxPoqkBxFEzXkACgs8kaAgpnPzLnaMbgOtfHNf0qV8G/tJ/sk6V4psLjxn8LrCOx16HdLcWMQ2RXoPLFF+6k3cYwH6H5uT+bcQcFcqdbB/OP8Al/l/wx+68GeKznKOFzR6vRT2/wDAu3qvn3PydoqWaGa2mkt7iNopYmKOjgqyspwQQeQQeoqKvzY/dUwooooAKKKKACiiigAooooAKKKKACiiigAooooAKKKKACiiigAooooAKKKKAP/U/IeiiigAooooAKKKKACiiigAooooAKKKKACiiigAooooAKKKKACiiigAoors/h94G1v4keMNM8HaDEz3GoTIjOFLLBESN8z4/gjX5j+Q5Iq6dOU5KEVdsyr14UoSqVHaKV2/JH0V+yb8Ak+K3iV/E/ii2MnhTRXIkUn5bq7AVlgPIO0Kwdz6YX+LI/ZKGGG2hjt7eNYoolCIiAKqqowAAOAAOgrkfh94G0T4b+D9M8HaDEqW+nwojOFCtPKAN8z46vI3zH8hwBXZ1+78PZLHBUFD7T3fn/kj+QONeKqma4x1L/u1pFeXf1fX7ugUUUV7x8eFFRTTQ20MlxcSLFFEpd3chVVVGSSTwAB1NfMPjj9sL4J+DJJbS31OTxDdx4+TS0E8ZJz/AMtmZYiBjna5PPQ81yYvHUaEeatNRXmejl2UYrGS5MLTc35K/wB/b5n1HRX51X//AAUI0SN5Rpfgu4uEB/dma9SEsP8AaCxSbfwJqnb/APBQuzbd9r8CyR4xt2aiHz65zbrj9a8Z8XZde3tfwf8AkfUrw0ztq/1f/wAmj/8AJH6Q0V8QaH+3n8J7/Ees6XqmlyHOW8qKeIAdPmSQPk/7mPeve/CX7QXwa8bFI9B8V2ZncEiG4Y2spwMkBJwhbAznbngZ6c16GGzvB1nanVTfrr9zPGx3CWZ4ZXrYeSXe1196uj2SiiivUPngooooAK47xt4A8HfEXR30PxnpUOp2pDbPMUeZEzDBeKQfNG3+0pB/CuxoqKlOM4uM1dM1oV50pqpTk1JbNaNH5T/F/wDYd8TaJJLrPwpl/tqw+d2sZnCXceWJAjLYSRVTA5YOSOAxOB8H3+n3+lXkun6pbS2d1CcSRTI0ciHGcMrAEceor+kivD/i9+z98PfjJZn+3rX7FqqYMepWqol0NowquxU+ZH/st0/hKnmvgM64GpzvUwjs+3T5dvy9D9m4W8XK1JqjmS5o/wAy+Jeq6/g/U/BuivoP41fs4+O/gxcyXl/H/anh5pFjh1OFQqMzDIWSLczRN2+bKk/dY18+V+Y4rCVKE3Tqxs0fvmX5lQxdJV8NNSi+q/rR+T1QUUUVznaFFFFABRRRQAUUUUAFFFFABRRRQAUV1ngvwN4r+IWuQ+HfCGnS6jezEfKg+VF/vSOflRR3ZiBX6s/A79jzwh4Bgt9f8exxeIPEYKyBG+aztWHIEaEDzGB6u4x02quCT7mT8P4jGy/dq0ere3/BZ8nxPxngsqhevK83tFbv/Jeb+Vz4W+Dn7K3xF+Kz22qXMB0Dw7KFk+3XSkNLGcf8e8X3pMg5DHamP4s4B/U/4U/AL4cfCC2B8NaeJ9TIIk1G6CyXbZGCFfA2Ke6oAD3yea9por9ZyfhjDYO0kuaXd/p2/rU/m/ifj/H5m3CT5Kf8q/V9fy8gooor6M+HCiiigAoorxvxh+0F8G/AsptvEPim1W5UMTDblrqQFDtKssAfac8YbHf0OMa+Jp0o81SSS83Y6sJga+IlyUIOT7JNv8D2Sivg/wASft8/DqwDp4Z0LUNXkA+UymO0jJyR97MjDsfud68k1H/goL4rlZ/7J8I2VsD90T3Ek5HPfaIs8cduefavBr8XZfB2dS/om/0sfY4Tw1zqqrqhZebS/C9/wP1Lor8q4f8AgoF42WMC48Lac8ncrLMoP0BLfzr1Twn+374Ov5Fg8ZeG7vSM8ebayreR545YMIWAPPADEYHXJxNHi/L5u3tLeqa/QrFeGedUo83sb+jT/C9z9AKK5HwZ4+8G/EPShrXgvV4NWtONxhb54yeQskbYeNiOdrqDjtXXV9HTqRnFSg7pnw9ahOnN06kWpLdPRoKKKKsyPzz/AGzf2f4NT0yb4t+DbELf2QZ9XjiGPOgA/wCPjaP4o8fvD3T5j905/Lev6UnRJUaORQ6OCCCMgg9QRX4l/tS/BFPg/wCOFuNFj2+HNd3zWQG4+QykeZAS2SdhIKknlSOpBr8s42yBQf1yktH8Xr3+fXz9T+hvCjjF1Y/2ZiX7y+B911j8unl6HzDRRRX50ftwUUUUAFFFFABRRRQAUUUUAFFFFABRRRQAUUUUAFFFFABRRRQAUUUUAf/V/IeiiigAooooAKKKKACiiigAooooAKKKKACiiigAooooAKKKKACiiigAr9S/2E/hbDYeH7z4q6lEr3Gps9rYkqCUhiYrKylkBBZwVyrkEAgjIr8ydC0a98Ra3p/h/TFDXmp3EVrCDnBkmcIgOAT1I7V/RD4W8Oab4Q8N6Z4X0iMR2elW8VtEAMfLGoXJ9ScZJPJJJPNfd8CZYquIliJbQ29X/kfkPi9nzw+Cjg4PWo9f8K/zdvuZvUUUV+un80hXK+NPGnhz4feHLvxV4qu1s9Ps1yzHlnY/dRF6s7HgAdfpmuqr8c/2wfjg/wARfGDeCdBnY+HfDkzIwwu24v4y8bzAjOUVTsT1+Zhwwrw+IM5jgsO6n2nol5/5I+t4M4XnmuMVHaC1k+y/zey/4B598c/2jPGXxn1GS0lkbTfDUMhNtp0ZwDg/LJOw/wBZJ06/Kv8ACAck/PFFFfhmLxdSvUdWrK7Z/XOXZbQwlGNDDQUYrov638wooormO4KKKKAPSvBXxh+Jvw8mjk8JeIruzijx/o5kMlsQDnBhk3R9sZ25xnBGa+1PAf7ft5CI7T4k+HhcKqANdaYwWQsDyTBK205GM4kUZBwMHC/nDRXr4DPsXhv4VR27br7mfNZxwhl2P1xNFN91o/vX6n9B3w9+LPw++KVgb7wTrEN8yKGltyfLuYe37yFsOozwGxtJ+6TXo1fzb2GoX+lXkWoaXcy2d1Ccxywu0ciHGMqykEcehr7Y+E/7bnjTwxNBpnxHjbxFpe7D3CBReopLsSCSqSHLKAGIwq4B71+gZVx5SnaGKjyvutv81+J+M8ReD9elepl8+dfyvSXyez/A/XCivOfh78Wfh98UrA33gnWIb5kUNLbk+Xcw9v3kLYdRngNjaT90mvRq+9o1oVIqdN3T6o/HcThatGbpVouMlumrMKKKK0MCKaGG5hkt7iNZYpVKOjgMrKwwQQeCCOor87fjt+xPZXkc/if4NotpOi7pNIZiUlPJZoJHY7G9I2+X0K4Cn9F6K83M8poYuHJWjfs+q9Ge7kHEmLy2t7XCzt3XR+q/proz+bvVtJ1TQtSuNH1q0lsb60cxzQTIUkjYdQynBFZ9fu38av2fPBPxn0qRb+KPTNdXaYdUhhVp128BZOVMseP4WYY6qRX44/FL4SeM/hF4gk0HxXaFUJzBdxhjbXKdmjcgZ91OGHcV+O59w1WwT5t4d/8APt+R/TvCHHmFzWPJ8NVbxf5p9V+K6rqeZUUUV82fdBRRRQAUUUUAFFFXNP0+/wBWvYNM0u2lvLy6cRxQwo0kkjtwFRFBLEnoAM00r6IUpJK7KdfWPwG/ZS8WfFryvEGvGTQfCzcrcso8+69rdG/h/wCmjDb/AHdxBA+lfgB+xfZ6R9m8X/GCKO9veHh0g4eCI9Qbk8rK3/TMfIP4i+cL+hiIkSLHGoREAAAGAAOgAr9F4f4KcrVsYrLpHr8+3pufiHGnirGnfDZW7y6z6L/D39du19zifAPw48G/DLRF0HwZpsdhb8GRh80szgY3yufmdvrwOgAHFdxRRX6dSpRhFQgrJH4DiMRUqzdSrJuT3b1bCiiitDEKKyNd1/RPDGlT634ivodOsLVS0k07hEUD3PUnsByegGa/Oz4q/t4f67SfhHp3qv8AaV8n6xQZ/EGQ/VK8vM85w+EjevKz7dX8j6HIeFsdmU+XCwulu3ol6v8ARXZ+gvirxl4V8D6U+t+LtUg0qyT/AJaTuF3H+6i/edvRVBJ9K+D/AIi/t76TbJc6f8MdFe8mB2x3t/8AJD/vLCp3t7bmT3Havzl8VeMvFPjjVX1vxdqk+q3r/wDLSdy20f3UX7qL6KoAHpXNV+bZpx1iKt44Zci77v8AyX9an7tw/wCEWDoJTxz9pLttH/N/PTyPW/H3x0+KnxKeVfFPiC4ks5QAbOFjBaYHTMMeFb6sCfevJKKK+Kr4ipVlz1JNvz1P1TCYKjQgqdCCjHslZfgFFFFYnSFFFFAHY+BvH3iz4ca9D4j8H6jLp93ERuCMfLmQEHy5Uzh0JHKtx36gGv2x+BPxy8PfG3wydRsQLPWLEIt/ZE5MTtnDof4o3wdp6joeRX4O16R8J/iZrnwl8b2PjHQ3JMJ8u5hzhbi2cjzIm+uAR6MFbqK+n4b4hngqqjJ3pvddvNf1qfBcdcFUs0w7nBWrR+F9/J+T6dn87/0GUVlaFrWm+JNFsfEGjzCex1GCO4gkH8UcqhlP5Hkdq1a/cIyTV0fyVODi3GSs0FeG/tE/C1Piz8L9S0C3jDaraD7Zp57/AGmEHCZ/6aKWT/gWe1e5UVjisNCtTlSmtGrHVl+OqYavDEUnaUWmvkfzWujxu0cilHQkEEYII6gim19E/tT+AX8AfGfXLeGJ0sNYcajasxzuW5+aUA/7M29QOuAPWvnav53xmGlRqypS3i2j+2ssx8MVh6eJp7SSf3hRRRXMdwUUUUAFFFFABRRRQAUUUUAFFFFABRRRQAUUUUAFFFFABRRRQB//1vyHooooAKKKKACiiigAooooAKKKKACiiigAooooAKKKKACiiigAooooA+uv2K/BH/CVfGSDWrhN1p4agkvG+fbmZv3UIwOTyxbHA+Xk/wALfs1Xwf8AsDeGTp3w613xTKoV9Z1AQrwMtFaRjacgn+ORxggEYzyCK+8K/b+DcH7LAxfWWv8Al+Fj+TvFDNHic3qRvpC0V8tX+LYUUUV9Sfnh4N+0p8Sbn4XfCPV9e01/L1O822Nk+4KUnuAR5i5OS0aB3UAHlRkYyR+ElfoL+3143+3+KdB8AWz5j0qBr24GzH765O1BuPJ2omcAAfNySeF/PqvxbjXHutjHTT0hp8+v+XyP6p8KsmWGytVmveqPmfptH/P5hRRRXyB+lhRRRQAUUUUAFFFFABRRRQBp6NrOq+HtVtdc0O6ksr+ykWWGaI7XR16EH/II4PFfov8ABP8Abg/1Ph34yr/cjh1W2i/AtdIG/wDHol+qdWr81aK9TK85xGDnzUZeq6P5Hz/EHDGDzOn7PFQu+jW69H+mx/SDo2s6V4h0q11vRLqO9sL2NZYZom3I6N0IP+SOh5rTr8CPhL8bfHfwc1U3nhW7zY3EiNd2MoDQXCp2OQSjY43phvcjiv15+Cv7RPgf4z2EcVhIuma+qs02lzSbpVC9WjbCiVMc5UAj+ICv1vIuKqGMtCXuz7d/R/pv+Z/NvF3h3i8svVh79L+Zbr/Eunrt6Xse/UUUV9SfnoVy/jHwb4a8feH7rwv4sskv9OuwN8bZBDD7rowwVZT0YEEV1FFTOEZRcZK6ZpRrTpzU6bs1qmt0fiv+0H+y94i+EF1Jrnh5Z9Y8JNgi6Kh5bUnjbc7AABnpIFCnIBwxAPynX9J80MNzDJb3EayxSqUdHAZWVhggg8EEdRX5YftGfsfaj4ekvvHXwsh+1aP801zpi5M1qOrNAP8AlpEOTt+8vGAwyV/KuJOD3SvXwivHqu3p5fl+X9EcCeJ0cRbCZjJKeyl0l5Ps/PZ+T3/P+iiivz4/aAoor1v4Q/Bnxj8ZPECaR4cgMdlE6i8vnUmC1RsnLdNzEA7UHLH0GWG2Hw86s1Tpq7fQ5sZjKWHpSrV5KMVu2ch4J8D+JviH4itvC3hKye+v7k9FHyxpkBpJG6Ii5GWPHbqQK/ZP4Bfs2eF/gtZjU5mXVfE9zGFnvWHyxBgN0VuD91M5+Yjc3fAwo9E+FHwh8HfB/wAOx6F4Xth5zgG5vJADPcyYALO3YccIPlXsM5J9Rr9g4c4ThhEqtbWp+C9PPz+4/mTjjxGq5i3hsLeNH8ZevZeX3+RRRRX2R+XhRRXL+MfGXhrwD4fuvFHiy9Sw060A3yNkksfuoijJZmPRQCTUznGMXKTskaUaM6k1Cmrt6JLdnUV8i/HD9rjwb8MPP0Hwx5fiHxImAY0bNrbk9fOkU8sP7i89iVr45+OP7Yvivx8bjw74BMvh/QGLI0qttvLpCMfOwJ8tT/dQ59WI4r4rr83z3jhK9LBf+Bf5L9WfunCPhK3bEZp8oL/25/ovm+h6N8SPit44+K+snWfGeoNcsvEUCfJbwL6Rxg4HueWPcmvOaKK/Nq1adSTnUd2+rP3XDYWnRpqlRioxWyWiCiiisjcKKKKACiiigAooooAKKKKAP1R/YS+KT6x4e1D4WanIXuNEBvLInnNpI4Eif9s5WBH+/jtX6B1+DH7Ovjs/Dv4w+HdekYizmn+x3Q3BFMF0PKJYkgYRisnJxlRX7z1+08FZi6+D5JPWGny6f5fI/lfxVyRYXM3WgrRqLm+f2v8AP5hRRRX15+ZnwH+3t4HttQ8F6P4+t4M3mk3ItJpADn7NcAld2AeFkAwSQAWI5LV+U9fv38dfC3/CafB/xb4eUM0s1hLLEqruLTW2J4lAwScvGo4GfTnFfgJX47x3g/Z4tVFtJfitP8j+nfCDM3Wy2VCT1pyt8nqvxuFFFFfEn6uFFFFABRRRQAUUUUAFFFFABRRRQAUUUUAFFFFABRRRQAUUUUAf/9f8h6KKKACiiigAooooAKKKKACiiigAooooAKKKKACiiigAooooAKKKntbae9uYrO1QyzTusaIOrMxwAPqaEhN21Z+7v7Nvh3/hGPgd4P05ovJkmslu3B67rxjPk+/z9D06dq9wrM0XTIdE0ew0a3OYrCCK3Q4AysSBBwOBwOladf0hhKHsqUKa6JL7kfwzmeLeIxNSu/tSb+93CiisPxPrMfhzw3q3iGYqI9LtJ7pt5wuII2c5x245raUlFNs5adNzkox3Z+FP7QPiVfF3xp8X63G/mRtfyW8b8YaO0At0IwBwVjGO+OvOa8dqWaaa5mkuLiRpZZWLu7kszMxySSeSSepqKv5wxNd1akqj3bb+8/ufA4WNChChHaKS+5WCiiisDqCiiigAooooAKKKKACiiigAooooAKvabqepaLfw6po93NY3ts2+KeCRopY29VdCGU+4NUaKabTuhSimrPY/T/8AZ9/bNg1N7Twb8XporSYIscGsMdscjDgC6zwhI/5acL/ex1r9EIZobmGO4t5FlilUOjoQysrDIII4II6Gv5sK+uv2f/2rPE3wrmtPDPil5NX8Ir8giwGuLQEk7oGOCy5PMbHGPu7ec/ovD3GjjajjHddJf5/57n4hxt4WRqc2KyxWlu4dH/h7Py27W2f7NUVznhTxd4a8c6Hb+JPCeoRanpt0MpLET17qykBkYd1YBh3Aro6/UITUkpRd0z+f6tKUJOE1ZrdPdBRRRVGZ+ef7S/7Iqa8958QfhVbJDfhGlvNLiXatyw5Mluo4EhGSydHPK/OSG/Ll0eN2jkUo6EggjBBHUEV/SlXyd8YP2S/BfxV8Yaf4ujnbRpmmH9qiBR/pkIB5XssxICl8Hg5IJAz+e8ScHe1l7bCK0nuuj8128/6v+18DeJ/1eH1XMm3BL3ZbtW6Pv5Pdbbbfmn8CvgP4m+NfiBbezV7LQrRx9t1ArlIwMExx54aUgjC9gctx1/a7wN4F8L/Djw5beFfCNktlYW2TgfM8jt96SRjyzt3J7YAwAANHwz4X8P8Ag3Rbfw74XsItN020BEcMQwoycknPJJPJJJJPJNb1e/w/w7TwML7ze7/ReX5nxvGnG9fNqtl7tJbR/V+f5dOrZRRRX0Z8MFFFfD/7Rv7W2n/D7zvB3w5lh1HxJ92e54kt7LocY+7JLj+HOEP3skFa4cxzKjhabq1nZfn5I9fJMjxOYV1h8LG7f3Jd2+i/pansHxt/aI8FfBnTZYbqZNS8RMgNvpkb4kO7o8rAHy075PJ/hB7fjx8Uvi34z+LviCTXvFd2WQHEFpGWFtbJ2WNCTj3Y5Y9zXBatq2qa7qVxrGtXct9fXbmSaeZy8kjHqWY5JrPr8Zz3iWtjZcu0Oi/z7/kf1JwhwJhcqhzr3qr3k/yXZfi+/QKKKK+bPuQooooAKKKKACiiigAooooAKKKKACiiigByO8brJGxR0IIIOCCOhBr+hj4YeKU8bfDzw74qVg7alYwSyEHOJdoEg+83RwQQSSOh5zX88tftD+xTrp1j4EWFmzF20e8u7Q5IOMv54HqMCUYB/livvfD/ABPLiZ0ukl+Kf/BZ+O+M2BU8DSxC3jK3ykv80j6zooor9bP5tCv51/HuhHwx448QeHCpT+zNQurYAgD5YpWUcDjkDIxx6cV/RRX4c/tZ6ENC+PnieONQsV68N2mARnz4UZzz/t7skf8A1h+f+INC+Hp1Ozt96/4B+z+C2M5cZXofzRT/APAX/wDbHzjRRRX5Of0aFFFFABRRRQAUUUUAFFFFABRRRQAUUUUAFFFFABRRRQAUUUUAf//Q/IeiiigAooooAKKKKACiiigAooooAKKKKACiiigAooooAKKKKACu6+F2npq3xM8I6VI5jS91ewhLDkqJLhFJH0zXC17F+z5afbfjd4Jhwp26pbSfN0/dN5nvz8vHvXVgYc1eEe7X5nn5tV5MLVn2jJ/gz98qKKK/o4/hsK8N/aW1Q6P8CPGd2JDF5libfIIGftLrBt5/vb8H68c17lXy5+2Vd/Zv2ffEEOVH2qaxj56nF1HJ8vv8n5Zrzc4qcuErSX8r/Jnu8MUfaZlhoPrOP/pSPxOooor+eT+1wooooAKKKKACiiigAooooAKKKKACiiigAooooAKKKKAPbvgn8dvFvwS1x77RgL7S7sr9s0+VyscwH8SsM7JAOA4B9ww4r9nvhb8VPCfxd8MR+JvCk5ZM7J7eTAntpe6SKCceoIJBHINfz513/wANviZ4t+FHiaHxV4QuRDcxjZJFIC0FxEescqAjcp9iCDgqQQDX1nDnFFTBtU6mtPt281/kfnHG/h/RzOLr0bRrLr0l5P8AR7+qP6FaK8S+CPxz8KfGvw8L7SmFpq9qi/btPdsyQMeNynjfGT91h9GAbivba/ZcNiadaCqUndM/l3H4Ctha0qFeLjKO6f8AX/DhRRRW5yBRRRQAU13SJGkkYIiAkknAAHUk1FdXVtZW0t7eypb29ujSSSSMEREQZZmY4AAAySeAK/JL9p39qib4itP4E+H80lv4ZRitzc8o9+VPQDqsPcA4LdWAHFePnWdUsFS56mrey6v+u59Pwtwpic1xHsqKtFfFLol+r7Lr6anb/tJ/tftqaXHgT4RXbR2p3R3mqxkq8hDYKWrA8IccydWB+XA+Zvzooor8RzTNa2Mq+1rP0XReh/WPD/DuFy2gqGGjbu+rfdv+rBRRRXmnuBRRRQAUUUUAFFFFABRRRQAUUUUAFFFFABRRRQAV+n//AAT41ky6J4y8PswAtbi0ulHGT56SIx65OPKXtxn3r8wK/QX/AIJ93/l+MfFml7f+Piwhmzjp5Mu3HXv5np/9f6XhCpy5hT87r8GfCeJdD2mS1/Kz+6S/Q/U+iiiv3M/kYK/I39vixEHxb0i9QAC60aEHk5LR3E4J9BwVHHpX65V+YX/BQmz2ax4Kv9mPOgvot2evlPC2Me2/9a+T41p82XzfZr87fqfo/hTW5c6px/mUl+Df6H50UUUV+Jn9WhRRRQAUUUUAFFFFABRRRQAUUUUAFFFFABRRRQAUUUUAFFFFAH//0fyHooooAKKKKACiiigAooooAKKKKACiiigAooooAKKKKACiiigAr379lyGOf4++DklG5RcyN6cpBIwPHoQK8Br6C/ZW/wCS/wDg/wD6+Jv/AEnlr0co/wB7o/4o/mjxeJH/AMJ2J/wT/wDSWfulRRRX9Dn8ShXx9+3FcJD8DZI2BJn1K0RcdiN78/gpr7Br4y/br/5IpB/2FrX/ANFzV43ETtga3+Fn1PBKvm+G/wAaPx4ooor8AP7LCiiigAooooAKKKKACiiigAooooAKKKKACiiigAooooAKKK9P+Enwo8S/GHxdB4W8PJ5affurp1JitYR1d8dSeirkbmwMgZI1oUJ1JqnTV29jnxeLp0KUq1aVoxV22eofsq/D74j+K/iPZ694Iu5NHtNHkVrzUNuY1jP3oNp4kaQcbDxjk4wK/bWuO8B+A/DHw28M2nhLwlaC1sbUZJPMksh+9LK2Budscn6AAKAB2NfunDuS/UqHs27yer7X8v61P5F434q/tbF+1jG0I6R727t/psvvbKKKK98+NCiiigD5O/a7+Gvjv4h/D1f+EM1CQx6UzXN3pa4UXqIAQQ3UvFgssZO1uo+cLn8XK/pUr8yf2u/2aEshe/FzwDbhYCXm1e0U42Fjk3MS+hOTIoPH3gMbsfnXGnD0ql8ZR1a3Xl3X6/f3P2/wr41p0LZZibJN+69tX0fr0fy7W/OGiiivyw/oUKKKKACiiigAooooAKKKKACiiigAooooAKKKKACiiigAr7i/YFdx8XtZjDEI2hTkjPBIurbBx7ZP518O19o/sIzSRfGm7RDhZtHuVb3AlgbH5gV7nDTtj6PqfJ8dRvk+JX91n7B0UUV++H8bhX5tf8FDYZGh8BXAH7tG1NSfQsLYgf8Ajpr9Ja/Oj/goT/yB/BX/AF3vv/QIa+b4vV8uq/L/ANKR934Zu2eYf/t7/wBIkfmFRRRX4Wf1yFFFFABRRRQAUUUUAFFFFABRRRQAUUUUAFFFFABRRRQAUUUUAf/S/IeiiigAooooAKKKKACiiigAooooAKKKKACiiigAooooAKKKKACvoD9ll0j+P3g5nYKDcSjJOOTBIAPxPAr5/r1/9n+5Np8bfBMquIy2q2seTj/lo4THPrnA+vHNd2Vy5cTSl2kvzPIz+nzYDER7wl/6Sz99aKKK/oo/iIK+Q/23kR/gXcMyglNQtCpI6HLDI/AkV9eV8x/tiWb3f7PniR48k2z2UuAM5AuolP0wGyT7V5OfRvgqy/uv8j6Pg+oo5rhW/wCeP4tI/Eeiiiv59P7RCiiigAooooAKKKKACiiigAooooAKKKKACiiigAoorT0bRtV8Q6ra6HodrJe397IsUMMQ3O7t0AH+QByeKcYtuyJnNRTlJ2SNfwX4L8R/EHxHaeFfCto15qF42FUcKij7zu3RUUckn+eBX7rfB74UaB8HvBdp4W0ZVkuNqve3W0K91cEfM57hQeEXJ2rgZJyTwf7NnwItfgt4Rb+0hHP4l1bEl9OvzBAPuW8Z/uJ1J/iYk5wFA+kK/ZeFOHFhIe2qr94/wXb17/cfy74jccvMav1XDP8Acxf/AIE+/p2+/wBCiiivsj8vCimu6RI0kjBEQEkk4AA6kmvy5+Ov7ZmvHxjb6V8I7pIdK0S43S3RUSLqEiEgrj/n36gYILfeBHymvKzbOaOCpqdZ77Jbs+i4b4XxWaVnSwy2V23su1/Xp/kmfqRRXl3wh+K/h34weDrbxRoUgSbAjvLYkeZbTgfMjAE8Hqh/iXB4OQPUa9ChXhVgqlN3T2PFxeEqUKsqNaNpRdmgprokqNHIodHBBBGQQeoIp1FanOfkD+1Z+zX/AMK0vH8eeC4P+KVvZAJoQcmxnkPCgHnyXP3DztPyn+HPxTX9ImraTpuu6ZdaLrFul3Y30TwzwyDKyRuMMpHuDX4k/tI/Aq8+C/i8jTo5ZvDOqEvYXDkMVI5eByP4kzwSBuXB5IbH5Hxfw17BvE0F7j3XZ/5P8Gf0r4acd/XIrAYuX71bN/aS/wDbl+K16M+caKKK+DP18KKKKACiiigAooooAKKKKACiiigAooooAKKKKACvtv8AYJhjl+MmqO4y0Oh3LL7E3NsufyJr4kr7w/YBtg/xM8Q3mwkxaQ0e/nA8y4iOPTnZ+n1r3eGI3x9H1PkOPZ8uT4l/3f1R+slFFFfvZ/HQV+cf/BQqaNdN8D25P7x5tQYD1CrACf8Ax4V+jlfmh/wUNmjabwFbg/vEXU2I9AxtgD/46a+a4wdsuq/L/wBKR954ZRvnmH/7e/8ASJH5tUUUV+GH9cBRRRQAUUUUAFFFFABRRRQAUUUUAFFFFABRRRQAUUUUAFFFFAH/0/yHooooAKKKKACiiigAooooAKKKKACiiigAooooAKKKKACiiigAruPhlef2f8SfCd/v8v7Nq1hLuxnbsuEbOOc4xXD1Pa3D2lzFdRgF4XVwD0ypyM1pRnyzUuzMcTS9pTlDumvvP6TaKrWV3Df2cF9bnMVzGsiHjlXGR0yOhqzX9Jp3P4SaadmFeF/tM2Mmo/AfxnbxHDJZed+EEiynqR2U17pXHfETS31v4f8AibRY1Dvf6Xe24UnaCZYHQAnt161zY6lz0Jw7pr8D0MnxHssXRq/yyi/uaZ/O5RRRX84n9xhRRRQAUUUUAFFFFABRRRQAUUUUAFFFFABRRRQAV+uX7IP7PaeBNHg+JniqINr+sW4NrC45srWUbs+0sq43dCinZwS4rwn9jz9neTxLqUHxU8bWSvodruOnQSjP2m4VseayEHMUeDjONz4PRSD+rFfp3BfDtrYyuv8ACv1/y+/sfgfinxvfmyvCS/xtf+k//Jfd3Ciiiv0o/Bwoor4g/au/aX/4V1bz/DrwTLnxNdwj7Tcqf+PCKVcjaQciZlIZf7oIbqVrhzHMaWFpOtVei/F9kevkeSYjMMTHC4dXb+5Lq35L/gbnlv7XH7TaXKX/AMJPh9cny8vb6texnhxyr2sZ9O0rDr9wZG7P5uUUV+EZtmtXGVnVq/Jdl2P6/wCHOHsPlmGWGw69X1b7v+tD1H4Q/FfxF8H/ABjbeKNCkLQ5Ed3bEny7mAn5kYAjkdUP8LYPTIP7r+B/G3h34h+GbLxb4WuRc2F8gYdN8bfxRyKCdroeGGevqMGv516+gv2efjpqvwW8XJcTPJceHNQZU1C1X5vl7TRqSB5qdv7wyp7Ee9wrxI8JP2NX+G/wff07nx/iJwMsypfWcOrVor/wJdvXs/l6fulRWZo2s6V4h0q11vRLqO9sL2NZYZom3I6N0IP+SOh5rTr9mjJNXR/Lc4OLcZKzQVxPxE8BaD8TPCGoeDPEaE2l+mA6geZDIvKSRkggMp5HHseCa7aipq0ozi4TV0zTD150pxq03aSd0+zR/Pf8Uvhn4i+EvjG78HeJEBmhAkhmQER3EDkhJUz2OCD6MCp5Brzuv3Z/aC+CGk/GnwdJZbUg1/T0eTTbpuNshAJicj/lnJgBuu3hgCRg/hzrOjar4e1W60PXLWSyv7KRopoZRtdHXqCP8gjkcV+HcSZDLBVvd+B7P9H5o/rXgXjCGa4b3tKsfiX6ryf4PTtfMooor5s+5CiiigAooooAKKKKACiiigAooooAKKKKACv0a/4J7WIk1XxvqWBmCCwi6nP71pm6dP8Aln/nmvzlr9Uv+Cflg8fgvxVqhiIW41CGESdmMMW4r/wHzAfxr6jg2nzZjT8r/kz4DxPrcmSVl35V/wCTI/QKiiiv3A/koK/Kn/goFfJJ468L6YHJe302SYrngCaZlBxnv5Z7dvbj9Vq/Hj9uu/8Atnxrgt9uPsOk2sPTrmSaXPX/AKae39T8hxvUtgGu7X+f6H6X4TUebOIy7Rk/wt+p8ZUUUV+LH9UhRRRQAUUUUAFFFFABRRRQAUUUUAFFFFABRRRQAUUUUAFFFFAH/9T8h6KKKACiiigAooooAKKKKACiiigAooooAKKKKACiiigAooooAKKKKAP6DPg5qb6z8JvBupy5Mk+kWJcnu4hUMepPJBxk59a9Ir5o/ZC1lNY+APhtfMEk1gbq1kAOdpjncoDySP3bIcHHXgYxX0vX9FZXW9phqc+8V+R/EXEGG9jj69L+Wcl+LCmuiSo0cih0cEEEZBB6ginUV3HkH84viPS30TxDqmiyKEewup7cqDuAMTlCAe/TrWLXu/7TWhHw/wDHfxjZ7Sq3F59rGQBn7WizkjHB5c8/nzmvCK/nDG0PZVp0+za+5n9y5Xi/b4alXX2op/erhRRRXMd4UUUUAFFFFABRRRQAUUUUAFFFFABX0T+zh8Db34z+M44r+KWPwzpp8zULhPlzxlIEbBG9zjP91Mt1wD5L4E8Ea/8AETxTYeEfDVu1xeX0gXIBKxJn55XPZEHJP9cV+83wx+HOg/CrwZYeC/DwLQWgZpJnAEk8znLyuQBkk8D0UBRwBX13CfD/ANbq+0qL3I/i+3+f/BPzbxG4zWW4f2FB/vp7f3V/N69vPXodfpOk6boWmWui6PbpaWNjEkMEMYwscaDCqB7AVoUUV+0pJKyP5WlJyblJ6sKKK83+KnxS8MfCLwnP4r8TSHYp8u3gT/W3M5BKxoPfBJJ4ABJrOtWhTg5zdktzXC4WpXqRo0o3k3ZJdTzD9pb4+wfBTwzDDpaJc+JNYDrZRvykSpgPPIPRSQFU/eb2Vsfilq2ralruqXetaxcPd319K8080hy0kjnLMT7k1v8Ajvxvr/xE8U3/AIu8S3DXF5fSFsEkrEmfkiQdkQcAf1zXIV+GcRZ7PG1r7QWy/X1Z/XPBPCFLKcMo71JfE/0Xkvx39Ciiivnz7QKKKKAPtj9kf9of/hXesJ8P/F9wf+Ea1WX9xK5ZhZXLnjHJAikP38DhiH4G7P6+V/NXX6l/sc/tELrdnD8J/G97nUbVQulTykDzoUAAtyxPMifwcfMvGcqM/pPBnEdrYOu9Psv9P8vu7H4V4pcD8ylmmEjr9tL/ANKX6/f3P0Jooor9PPwAK+Fv2xvgB/wmujSfE/wnbbte0iEC8hjHzXlon8QA6ywjkd2QFeSqLX3TRXBmWXU8VRlRqbP8H3PYyHO62X4qGKoPVdOjXVPyf/BP5q6K+0f2uv2f/wDhXOvnxz4TtGXwzrEn71F5Wzu3JJTqSI5PvJ2ByvA2g/F1fgmY5fUwtaVGqtV+Pmf2Pkmc0cfhoYqg/dl96fVPzQUUUVwnqhRRRQAUUUUAFFFFABRRRQAUUUUAFfsv+xDow0z4F296FI/tfULu6JOedpW3yM/9cccfzr8aK/en9nHSP7E+Bnguz8tYvM06O5wpyD9rJnz9W8zJ9zX3PANHmxcp9o/m0fkfjJiuTLadNfamvuSf62Pa6KKK/Xz+Zwr8Of2tNYfWPj94pcuWjtHt7aMH+EQwRqwHA6vuP41+41fz1fFbVjrvxP8AFusEFReareyKpxlVMzbVOOOBgV8B4g1rYenT7yv9y/4J+y+C+G5sbWrdo2+9r/I4CiiivyY/o8KKKKACiiigAooooAKKKKACiiigAooooAKKKKACiiigAooooA//1fyHooooAKKKKACiiigAooooAKKKKACiiigAooooAKKKKACiiigAooooA/Vb/gn9rpuvA/ifw4zFv7P1CK5AJBwt1Ft4HUcwk+npzmvv6vyd/YD1z7J8RvEGgMcLqOmCYcZy9tKoAz2+WVvY/ln9Yq/ceD6/tMvp+V1+P+R/JPibg/Y5zWttKz+9K/43Ciiivpz4E/IP9u/Qhp3xesdYjUBNW0yF2IBGZIXeM5PQ/IE/w7n4nr9T/wDgoD4c+1eEPC/ixEy2n3stm5C87bqPeMnPQGHjg8nqOh/LCvwrizDezx9Rd9fvX+Z/Xnhxjvb5NQfWKcfubS/CwUUUV84fcBRRRQAUUUUAFFFFABRRRQAVLDDNczR29vG0ssrBERAWZmY4AAHJJPQUQwzXEght42lkboqgsTjngCv0H/Y1/Z8fVtRT4seNbN0s9OlU6TDINvm3MTndOwznELKAgI5fJ/g59LKssqYutGjT67vsu54fEWf0Mtws8VWe2y6t9Ev60V30Ppf9lX4CQ/CbwqviLX7fb4s1uEfad2CbWAtuS3XgYJwrS/7YA5Cg19Y0UV+94DBU8PSjRpLRf1c/jnN82rY7EzxVd3lJ/d2S8lsgooorrPNMzWdZ0rw9pV1ret3UdlYWUbSzTSttREXqSf8AJPQc1+G/7QHxv1n40+MJb13aLQdPkkj0y2I27YiceZIMn97IAC3Jx90cDn9Ov2jfhJ8TfjNZ2Phbw7rNjo/h2J1mullaUzXEoPy7giY2RjlV3YLYJ5VcfLlv/wAE+PETITdeMrWN88BLR3GPqXX+VfA8V0cfin9Xw9N8i3d0rv79l+Z+yeHOJyfL4/XMbXXtXsrN8q+Ser/BadWfnfRX6R2//BPO5ZCbrx2kb54CaaXGPqbhf5VP/wAO8f8Aqf8A/wApX/3XXxf+p+Y/8+vxj/mfqj8TcjX/ADEf+Sz/APkT81aK/TiH/gnrpqxgXHjiZ5O5XT1UH6Azt/Opf+He2j/9DtP/AOAKf/Har/U3Mf8An3+K/wAzN+KGSf8AP/8A8ll/kfmFRX6e/wDDvbR/+h2n/wDAFP8A47WZ/wAO8f8Aqf8A/wApX/3XSfBuY/8APv8AGP8AmOPifkb/AOX/AP5LP/5E/NWp7W6ubK5ivbKV7e4t3WSOSNijo6HKsrDkEEZBHINfpH/w7x/6n/8A8pX/AN11lP8A8E99cCMY/Gluz4OAbJwCe2T5hx+VS+EMyWvsvxj/AJmi8Ssjlp9Y/wDJZ/8AyJ9UfszfHiL40eEni1bZD4k0cJHeoCAJlIwtwijGA5BDADCtx0K19L1+cfw+/Y++K/wt8Xaf4z8KeLNOe6s5B5kMizxRzwH/AFkTlQ2VbHTHBww5Ar9GkLlFMgCuQMgHIB74OBn8hX6vkFbFSoKOLg1Nde/n/mfznxlhcvhi3Uy2opU5a2V/dfVa9O33dB1FFFe4fJGD4o8M6L4y8P3/AIX8RW4u9N1KIxTRkkZU85BGCCCAQRyCARX4RfGf4Uaz8H/HF54X1FJJLMsZLG6ZcLc25PysCONw+64HRge2K/fuvBv2iPg3a/GXwDPpMKqut6fuuNNlY7QJscxsf7kgG0+hw3avleKshWMo88F78dvPy/y8/U/RPDvjB5ZivZ1X+6nv5PpL/Py9EfhJRWnqujatod09jrNnNZTxsVZJkKHK9RyBWZX4lKLTsz+rozUleLugooopFBRRRQAUUUUAFFFFABRRRQBc0+xn1O/ttNtQDNdypCgJwN0jBRk/U1/RroumQ6Jo9ho1ucxWEEVuhwBlYkCDgcDgdK/CL9nrQj4j+NvgzTQpcLqUNyygBsraH7QwIPGMRnPtmv3wr9S8PMPanVq92l92v6n8+eNeMvWw+H7Jy+92X5MKKKK/Rj8OMPxPrMfhzw3q3iGYqI9LtJ7pt5wuII2c5x245r+cl3eR2kkYu7kkknJJPUk1+6X7UniNPDXwI8V3JkKSXtuLGMKcFjdusTD/AL4ZifYGvwrr8p8QsRetSpdk397/AOAf0V4K4PlwtfEfzSS/8BV//bgooor89P2oKKKKACiiigAooooAKKKKACiiigAooooAKKKKACiiigAooooA/9b8h6KKKACiiigAooooAKKKKACiiigAooooAKKKKACiiigAooooAKKKKAPd/wBmbxOnhL45eEtRmIENxdfYnz0xeKYASe2GcHPtzxmv3dr+bfT7650u/ttSsnMdxaSpNGwJBV42DKQQQRgjsc1/Rj4f1m18R6DpviGx5ttUtobqLnPyToHXn6Gv1Pw9xV6dWi+jT+/T9D+evGrAWr0MUlunF/J3X5s16KKK/RT8QPn/APak8NjxN8CPFdsEDS2VuL5Cc/L9kdZnIwD/AMs1YdO/UdR+Fdf0janp1rrGm3ek3y77a9hkglX1SRSrD8Qa/FfQ/wBkD46a7eTQJoi6dbxSOgnvpkhVghYbggLuQSvBCkcg52nNfmnHGU1a1enUowcm1bRdv+HP3nwl4jw2GwlejiqiglJNXaW6s7X9PxPmGiv0c8N/8E+tSkjWXxh4uht5OMxWFu0w98SymP8A9F/4H3Dw9+w18FdIYSasdR1xucrcXPlR9QRgW6xN0GPvHqfbHzuH4Lx9TeKj6v8AyufbY3xUyajdRqOb/up/m7L8T8c63NE8MeJPEs32bw5pN3qso/gtIJJ26gdIwT1I/MetfvJoHwP+EHhhVXRfB+mRMvSSS3SeUfNu/wBZKHfr79h6CvT4YIbeMQ28axRr0VQFAzzwBXu4fw8l/wAvav3L/O35HyGN8a6a0w+Hb85O34JP8z8KdG/Zi+PGuyCO18H3cA3BS10Y7UDvn98yZH0B9OvFet6P+wj8ZNQRJNRvNK0wEZKS3EkkgznjEUTqff5u/Ga/YCivZocBYOPxuT+f+SPl8V4xZpPSnGEfk2/xdvwPzV0n/gnt919d8a+m6O2sfpnEjy/Ufc9D7V6ppX7B/wAHLLDahfatqLdw9xFGnfoI4Vb/AMePI/CvtaivWo8K5fDakvnd/mz5zE+Imc1fixDXokvySPnHTf2Sv2ftMA2eFUuHBB3T3NzLnByMhpdv4Y575r0HTPgt8ItHTZp/gzSI+MbjZQu5HHBd1LHoO/XnrXptFenSyzDQ+ClFfJHg4jP8fV/i15v1k3+pTs9PsNPTy7C2itkwBiJFQYXoMKB07VcoortStseTKTbuwooopiCiiigAooooAKKKKACiiigAooooAKKKKACiiigAooooAKKKKAGuiSo0cih0cEEEZBB6giuH1P4X/DXWk8vVvCmlXgxgebYwOR16EpkdTgjpXdUVnUpRmrSVzajialN3pya9HY8E1L9l74B6qCt14OtUySf3DzW/U5/5YyJ6dPw6V53qP7D/AMDL1WW2h1HTy3QwXZYrxjjzlk+vOefbivr+ivPq5Jg5/FRj9yPaw/FmZ0vgxM//AAJ/qfnfrv8AwT58PTFm8NeL7qzGSVW7tkucjHALRtD36nb+FeTa7+wN8TbINJoOuaXqaKCdshlt5G54CjY6cj1cV+tNFeXX4Ny+e0Lejf8Awx9DhPFDOqVr1eZecV+aSf4n4ga5+yL8fdEy/wDwjf2+IY+e0uIJck9tm8Scdztx7147r/w58f8AhXcfEnhvUdMVV3l7i1ljTb67iu3Hqc9eK/ohoryK/h9h3/DqNetn/kfS4Pxoxsf49GMvS8f8z+auiv6GPEHwt+GvippJPEfhbTNQll3bpZbSJpcscsRJt3gk8kg5rxHxH+xn8CNfeSW20u40aSQHLWNy6gE9wkvmoPoFx7V4eI8P8TH+HNP71/mfWYLxmwM9K9KUfS0l+j/A/FWiv068Tf8ABPvSpA0ng7xbPAQTtiv4FmyCRjMsRjxgZP8AqzngccmvnjxV+xZ8cPDiST2Fna6/DGRzYzjeVOedkwiY46EKCcnjIya8LFcL4+l8VJteWv5H2GX+IGT4myhiEn2leP52X4nW/sHeGf7U+KupeI5R+60TTn2+vnXLrGvYjGwSdwc46jNfrpXxr+xd8MvEHw98E67ceLNMl0rVdT1DaYpo9knkW8YCEnqQXeTHJHcdTX2VX6nwlgnQwMFJWbu3/XpY/njxIzSOLzapKDvGNopryWv4thRRRX0p8IfCX7fXiBbL4a6F4cSTZLqmpiUruALxWsTbht6kB5IzkdCBnqK/JivuT9vLxV/avxP0vwvEWMWhWAZgWyBNdtvbC5IHyLHk4BP0ANfDdfhnF2J9rj6ltlZfd/wbn9ceGmA+r5NRvvK8vven4WCiiivmj7wKKKKACiiigAooooAKKKKACiiigAooooAKKKKACiiigAooooA//9f8h6KKKACiiigAooooAKKKKACiiigAooooAKKKKACiiigAoorX0Tw/rniS/j0vw/p8+pXczBUit42lck5wMKD6H8jVRi27Imc4xTlJ2SMiivsbwb+xF8YfEe2bxALXw3bk8/aZBLNgNg4jh3Dpkjcy5/HI+vPBX7DXwl8PMtz4onu/E84z8kr/AGa365UiOEh8gcHdIQfSvo8Dwljq+vJyrvLT8N/wPhc28Scowl17XnfaOv47fifkbpek6rrd4un6LZTX904JWK3jaWQhRkkKgJ4HWv3S/Ztj8RW3wU8Mad4r0+40zU7CF7Z4LqIwyKkUjLEShCkZj29Rn1yeT6p4e8K+GfCVl/ZvhbSbXSLUnJjtIUhVm6biEAyfc81vV+i8O8L/AFGbqOpdtWtbQ/EeN/EFZvSjQjR5Yxd027vZrtZb+YUUUV9cfmoUUUUAFFFFABRRRQAUUUUAFFFFABRRRQAUUUUAFFFfNXxJ/at+FHww8Rz+FdZe7v8AULWMPMtjHHKsbnP7pmaRAJAACR0GRk5zjmxeNpUI89aSivM78uyvE4up7LDU3KW9kfStFfBd9+3/APDmMn+zfDmqzjIx5vkRcY5+7JJ3/wA9q565/wCChGiIX+x+C7iUAfJ5l6keTjviJ8c/X+lePPivL471V9z/AMj6en4c51LbDv74r82forRX5mXP/BQu8bb9k8Cxx4zu36iXz6Yxbrj9aw7z/goJ4xff9g8J2EOcbfNmllx6527M9/SueXGeXLapf5P/ACOyn4W5296KX/b0f0Z+p9Ffk7/w398Sf+hd0n8rj/47VO4/b7+LDODa6HokaY5DxXLnP1Fwv8qyfG+A/mf3M6F4T5y/sR/8CR+t1FfkX/w3z8Yf+gPoP/gPdf8AyVVCb9u740yyF0tNHhU/wrbSkD6bpyf1qXxzgO7+40j4SZw+kf8AwL/gH7B0V+RCft7/ABiRFVtJ0JyAAWNvc5PucXQHPsKf/wAN8/GH/oD6D/4D3X/yVR/rxgO7+4X/ABCXOP5Y/wDgR+ulFfk2n7f3xMCKJPD2kM+BkhbgAnvgeccfmauW3/BQHx6u77X4Y0yTONux5kx65yzZ/SrXG2X/AMz+5mT8Kc5X/Ltf+BI/ViivzCs/+ChOsJs+3+CoJsZ3eVfPFn0xuifHb1rct/8AgoXZtu+1+BZI8Y27NRD59c5t1x+tbx4xy5/8vfwl/kctTwxzuP8Ay4v/ANvR/wAz9IaK/P8Ah/4KBeCDIBP4W1FI+5WWFiPoCV/nXVWH7ePwbutq3dhrFk3y5L28LKCeuCk7EgfQH0FdEOJ8BLasvyOGrwBnMFd4aXys/wAmfa1FZ+k6tpuu6Za61o9wl3Y30STQTRnKyRuMqwPuDWhXuppq6PkZRcW4yWqCiiimSFFFFABRRRQAUUUUAFFFFABRRRQAUUUUAFFFFAH4O/tHy+IL/wCMvinWdd02604Xd9IkAuo2jMkNuFijZdyrkGNUYYyMEckYJ8Nr+kTVNI0rXLKTTNasoNQs5gQ8NxGssbAjBDI4IPHqK+ZfG37HHwT8XI8un6dL4cvCGxLp8mxCx6boZA8eAeyhSR36Y/L814FrynKrRqKTbbs9Hr+H5H9BcPeLuEp0qeHxNFwUUldaqyVttGvxPxVor7u8c/sHfEHSGlufAup23iC33MUhlP2S527cqPmJiY5yud684OACdvyB4r8AeNvA1z9l8X6Hd6S524NxEyI28Eja+NrZwehPII6g18TjsnxWG/jU2vPp9+x+q5TxNgMcv9lrKT7bP7nqchRRRXmnuhRRRQAUUUUAFFFFABRRRQAUUUUAFFFFABRRRQAUUUUAf//Q/IeiiigAooooAKKKKACiiigAooooAKKKKACirNnZXmo3UVjp8El1czsEjiiUu7segVVyST6Cvs34a/sQfEfxbDFqXjO5j8KWUmCI5E8+8K4z/qlZVTPT53DDuvau7A5ZXxMuWhBv+u+x5Gb59g8BD2mLqKK/F+iWr+SPimvoX4dfsv8Axh+I6W19p+jnTNKuDxe37CCPb13KhzK4PYqhB9a/VP4cfs0/CP4awRNp2ixanqMZVjfagq3E+9ejJuXbHjtsVT6k9a98r7/LeAPtYufyX+f9ep+N594yvWGXU/8At6X6Jfq/kfDHgP8AYS+HegmO78b6lceJLlHD+Ug+yWxAH3WVWaRue/mLnHTqD9k+HvCvhnwlZf2b4W0m10i1JyY7SFIVZum4hAMn3PNb1Ffd4HKcNhlahBL8/v3PyHN+I8dj3fF1XLy6fctPwCiiivQPECiiigAooooAKKKKACivg34z/tl6r8NfF+q+BtP8H7r7TpAq3N5cYjkRlDJIsUa5KsDkfvBx15yB8k+If2z/AI8a4x+yapbaLGcZSytY8cEn70/nOOoHDdAPfPyuO4ywVCTg221o7Lr87H6JlPhfmuLpxqpRjGSTTct0+vu3P2orjPEPxG8AeE2KeJvEmnaXIMfJcXUUcnJI4RmDHkHoOx9DX4N6/wDFL4leKty+IvFOp6hGzbvLlu5WiB/2Y92xenYCuCr57EeIfSlS+9/ov8z7XBeCnXE4j5Rj+rf6H7ca7+2D8A9EDCPX31KVQTstLaZ84OMB2VE57fN/TPj+s/8ABQDwJbSFNA8M6jfqGI3XEkVsCPUBTKevY44/KvynorxK/HWOn8No+i/zufV4Twiyin8fNP1lb/0lI/QDWf8AgoF43nb/AIp7wtp1kvPF1LNdHrxyhg7cfXn2ryvVf2xf2gfEMy2unapFp7TsiLFY2cRZmzgBTIsr5Y44B56D0r5Tr9DP2HvgxFq+pS/F/XoyYNKlMGmJkFXnKMs0rKef3YYBP9ok9VFZYDMsxx9eNBVmr720sur0sdOcZHkeT4OeLlhovl2T1u+i96//AAFqfoL8LNB8W+HvBVhaePNWl1nxBMDPezSMrKssnJij2gAIgwowME5PevQ6KK/Z6NJQgoLofyzicQ6tSVWSSbd9FZfJdEFFFUdT1Kw0bTbvWNUmW2srGGSeeV/uxxRKWdj7KoJNW2krsxjFt2W547+0D8XrP4N/D2617O/Vb3da6bGAGzdOjFXZSf8AVx43N68L1YV+FOp6lf61qV3rGqTNc3t9NJPPK/3pJZWLOx92YkmvYv2gfi9efGT4hXWvZ2aVZbrXTYwCuLVHYq7KTxJJnc3pwvRRXh9fh/FOePGV7QfuR2/z+f5H9a+H3CayzBp1F+9nrLy7R+XXzCiiivmD74KKKKACiiigAooooAKKKKACiiigAooooAKKKKAP0X/Yi+N81pft8HvEtzutbndNpMkjn93KOZLYbuNrjLoBjDBhyXGP09r+bSyvLrTryDULGVoLm1kWWKRDhkdCGVgexBGRX7pfs7/GS1+MvgGDVpmVdb0/bb6lEo2gTY4kUf3JANw9Dle1fq/BGee0h9TqvVbea7fL8vQ/nTxZ4S9jV/tKgvdl8XlLv8+vn6nvNFFFfoJ+LBX5SfGX4sftE/AP4jXXhyLxTPqGjTH7TYPe20EwmtnJIRnMe4tGSUcqwzgHABAr9W68B/aO+EFr8X/h3d6fDFnW9LV7rTXHB85V5iP+zKBtPvtPavB4iwVath28PJxnHVWbV/L+up9jwTm2Gw2MUMbTjOlPR8yTt2lr26+XyPhLRf2+PihZx+VrWi6XqO1QA6LNA5Pq2JGU/QKteraR/wAFB9EkQDXvBtxbuCoJtrtJgR/EcOkePYZP1r8xZoZraaS3uI2iliYo6OCrKynBBB5BB6ioq/KaPFmYU9Pa39Un+h/RWJ8OMlraugl6Nr8nY/ZrRP23PgVq2Pt91f6LnP8Ax92jNjHT/j2M/Xt+uK9r8PfGr4SeKVH9h+LtMnc5xG1ykU2AASfKkKvgA9duO3UGv5+qK9fD8f4qP8SEX96/X9D5nGeDWXz1o1JRfya/JP8AE/pSR0lRZI2Do4BBByCD0INOr+dDRPGnjHwzj/hG9dv9J25x9kupYMbuv+rYde9e0+Hv2svjz4dOE8SvqERGCl7FHcdBgHey7/ybnvmvcw/iDQf8Wm16Wf8AkfJY3wWxcf8Ad68Zeqcf/kj9xqK/L7w1/wAFBNeiZI/GPhO2ulPDyWEzwEcnkRy+bnjAxvHPOe1fod8PPGlr8RPBWk+NbK0msYNWh81YZyhkUbivJRmUg4yvOcEZCnKj6nLM9wuLbjQldrW1mj89z7hDH5bFTxcLRbsndNN/J3/A7OiiivYPmQooooAKKKKACqOpaZpus2E2l6xaQ31lcrslgnjWWKRfRkcFWHsRV6ik0mrMcZNO63PkDx9+xV8IfFkM03h2KbwtqDqoSS1YyW4ZQRloJDggjGQjJkgHOd2fhv4i/sb/ABd8EM9zo1qvinT+oksAxnACkndbn588HGzeDkDOTiv2jor5nMeEcFiNVHlfdafhsffZJ4lZrg7RdT2ke0tfx3/Gx/NhNDNbTSW9xG0UsTFHRwVZWU4IIPIIPUVFX9Afj/4L/DP4nI58Y6FBd3LIUW6TMVyucYIljIY42jAbI7YwSD8EfEj9gvXdOik1D4X6sNWRAT9ivisVw3JwElAWJjjaPmCDqcjgV8BmXBOLo3lS99eW/wB3+Vz9lyLxXy7FWhiP3UvPWP8A4F/mkfnnRW54i8M+IfCOqy6H4n06fS7+H70NxG0b4PRgGHKnHDDII5BIrDr4+UHF2krM/TadSM4qUXdMKKKKksKKKKACiiigAooooAKKKKACiiigD//R/IeiiigAooooAKKKKACiiigAoor234QfAD4g/Ga8z4dtRa6TE+yfUbnKWyEDJVSATI+P4UBxkbioOa3w2GqVpqnSjdvojkx2Po4ak62ImoxXVniiI8jrHGpd3IAAGSSegAr7N+DX7GfjXx8ia144aXwto5IKxyR/6bOp5ysbY8sf7TjPopHNffnwf/Zk+HHwhKalZQHWNdUf8hC8VWeM4IPkJjEWQSMjLYOCxFfRNfpWTcCRjapjHd/yrb5v/L7z8J4o8XpyvRytWX873+S6er+5Hlfw3+C3w4+FFqIfB2kRw3JXbJeS/vbqT13StyAf7q7V9q9Uoor9CoUIU4qFOKSXRH4ri8ZVr1HVrycpPq3dhRRRWpzBRRRQAUV4H8Qv2mPg98OEmj1TW01G/hcxtZaftubgMMZDAMETGf43X06givizxz+314qv/NtPh9oMGkxHcoub1jczkH7rrGuyNGHo3mCvCzDiTB4bSpO77LV/16n1+TcCZpjrSo0WovrLRfjq/kmfqa7pEjSSMERASSTgADqSa8D8ZftPfBLwS7wah4khvrpFDeTYA3bHKlgN0eYwTjHLjGRnAOa/Gzxl8WviV8QZml8YeI7zUUY58lpClupxtJWCPbEuQcHCjNeeV8ZjvEGT0w1O3m/8l/mfqOU+C9NWljq1/KOn4v8AyR+8nwU+O/hj442utXXh21nsv7HnjjaK52+a0Uqbo5CELKu5lddoZvu5zzge4V+NX7E/jRvDPxki0OeXZaeJLaS0ZSSF85P3sTYAOW+VkGcffNfsrX1/DGayxmFVSp8SbT/r0sfmnH3DkMszB0KK9xpOPXyevqmFFFFfQnxR+WH7fXgb7B4q0H4g2kWItWgayuSq4AntjujZ27s8b7R7R1+fVfuR+1V4Ej8d/BXXY44lkvtFj/tO2Y9VNr80oGOSWh3qB3JFfhvX4rxrgfY41zW09f0f+fzP6r8K83+s5VGnJ+9Tbj8t1+Dt8gooor5E/SQooooA734Z/D3W/il4107wToJVLi+Zi0rg+XDFGpZ5Hx2CjgdzhRyRX79+GfDuleEfD2neGNEi8mw0uCO3hXqdkahQWPGWPVj1JJJ5r5K/Y0+DCeBPBX/Cd69ZtB4i8QqwUSBlkgsNylIyp6GRk8wnuCgOCDX2jX7Pwbkv1bD+2mvfn+C6L9X/AMA/lrxQ4p+vYz6tSf7undesur/RfN9Qooor7E/MAr86P24PjYllZp8HvDd1/pVxtl1cpuDRxEK8MGeh8wHe4/uhR0Yivr/41/FOw+Dvw+vvGV1GtzcIyQWduzbfPuZfurn0ChnbvtU45xX4LazrOq+IdVutc1y6kvb+9kaWaaU7nd26kn/IA4HFfB8bZ57Gn9Vpv3pb+S/4P5H7D4UcJfWa/wDaNde5B+75y/yjv627MzKKKK/Iz+kwooooAKKKKACiiigAooooAKKKKACiiigAooooAKKKKACvdP2evi/dfBz4h2utyyyf2Le4t9ThQbg8DHhwvd4m+ZSOcZUHDHPhdFb4XEzo1I1abs1qceYYCliqE8PWV4yVn/X5H9Jdle2uo2cGoWMqz211GssUiHKujjcrA9wQcirNfnV+w78aH1Gzm+D/AIgmLT2aNcaU7HJaEHMsGSf4M70AH3d3QKAf0Vr9/wAozOGLoRrw67rs+qP414lyGpluMnhKnTZ909n/AF1ugooor0jwT8m/22vg0/hnxOvxU0ZB/ZniCUR3aKMeTe7c7vTEwUt/vhs9RXwfX9FHjnwXofxC8Kaj4Q8RQiay1GIo3HzI3VJE9GRsMp9RX4B+OfBeufD3xXqPhDxFCYb3TpSjcfK69UkX1V1wyn0NfjnGmS/V6/t4L3Z/g+v37/ef0/4WcVfXMJ9TrP8AeU/xj0+7Z/LucnRRRXxR+qhRRRQB0PhPw5f+MPE+leFtMRnutVuYrZNq7iDKwXdjIGFByckAAZJA5r+iDRdJs9B0ew0LTl2WmnQRW0K4AxHCgRRhQBwAOgA9BX5IfsOeBk8SfFWfxTdxLJa+GLYyruVmAubjMcX+yCF8xhnJyoIGRuX9gq/WuAcDyYeVd7ydvkv+Dc/m7xkzf2uMp4OL0grv1l/wLfeFFFFffH44QXVzBZW0t5dOI4YEaR3PRVUZJP0FfMvgn9r/AOCXjLZBcaq/h+6YL+71NBCuS23/AFyl4uODy44OezbbX7Wvj5/AfwW1b7JKI7/XiNLg4ycXAPnEY6YhV8N2YjvgH8Qq+F4n4pqYPEQpUUnpd389v68z9e4B8PqGaYOpiMS2tbRa8t907rW3yP6S7O9s9RtkvLCeO5gkztkiYOjYODhlyDggj61Zr+dXwt458Y+CLo3vhDWrvSJW+8baZow49HUHaw4HDAjivqzwT+3R8VfD6R23iq1tPE0CYy8i/Zbkjd08yIeX93IyYic4JJ5BnBcfYaeleLi/vX+f4F5r4OY6leWEqKouz91/qvxR+v1FfLXgT9sL4LeNAsF7qT+G7whcxamoijLMQDtmUtHgE9WZTjnAAOPp62ura9gS6s5UnhkGVeNgysPUEcGvscJj6NePNRmpLyPzDMsnxWDlyYqm4PzX5PZ/InooorrPNCiiigDkfGfgHwb8Q9KOi+NNIg1a052iZfnjJ4LRyLh42I43IwOO9fnZ8W/2Fb/TYbrXfhPqDX8EStIdMu/+PjAGSsEqgLIeyq6qcD77Gv1BoryM0yLDYtfvo691v9/+Z9Nw/wAXY/LZf7NU93rF6xfy6eqsz+bnUtM1LRb+bS9YtJrG9tm2SwTxtFLG3oyOAyn2IqjX9A/xL+EHgL4s6X/ZvjHTUmkUARXcYVLuAA7sRy4JAJ6ryp7ivyw+M/7Ifjv4ZiTWfDhfxPoIIzLBERcw7jwJYVLEgcDeuR3IXpX5ZnPB+Iwt50/fh3W69V/kf0Lwt4mYLMLUq37up2b0fo/0dn2ufI9FFFfIn6SFFFFABRRRQAUUUUAFFFFAH//S/IeiiigAooooAKKKKACrNnZXmo3UVjp8El1czsEjiiUu7segVVyST6Cuo8DeAvFfxH8QW/hnwhYvfXs55xxHEvd5HPCKB3P0GSQD+yHwG/Zr8KfBW2OpM41fxJcJtlvnXaI1YDdHAuTtXI5b7zdyBhR9BkXDtbHSvHSC3f8Al3Z8Xxdxvhcpp2n71R7RX5vsvz6HzN8DP2JBIlt4p+MuQGG+PR4mIPP3TdSLgjufLQ+m5/vJX6Qafp9hpNlBpmlW0VnZ2qCOKGFFjjjReAqIoAUDsAMVcor9kyvJ6GDhyUY+r6v1/qx/L/EHE+MzOr7TFTuuiWy9F+u/mFFFFeofPhRRXNeKvGXhXwPpT634u1SDSrJP+Wk7hdx/uov3nb0VQSfSpnOMU5SdkaUqU6klCCu3sludLWD4h8VeGfCVl/aXinVrXSLUnAku5khVm67QXIyfYc1+efxV/bw/12k/CPTvVf7Svk/WKDP4gyH6pX59eKvGXinxxqr634u1SfVb1/8AlpO5baP7qL91F9FUAD0r4nNeOMPR9zDrnf4f8H5fefq/DvhJjMTapjX7OPbeX3bL56+R+m3xH/bw8JaJPLpvw60p/EEqhl+2XDNb2wbsVTb5kg9c+X7E18EfEL4/fFf4nJNaeKNdlOnyuX+xW4EFsOmFKJguBjjeW9epNeN0V+eZlxHi8VdVJ2XZaL/g/O5+15FwPluX2lRpXkvtS1f/AAPlYKKKK8I+uCiiigDc8M69eeFvEel+JdP/AOPnSrmG6jGSoLQuHAJUg4OMHHav6IfD+t2HiXQtP8Q6XIs1pqUEdxE6nIKSqGGDgevcA+1fzhV+wX7Dnjv/AISX4VT+FLl1N34WuTEqgYP2W5zLEzdiS/mr9FFff8A4/kryw72krr1X/A/I/GvGTJvaYSnjYrWDs/SX+Tt959pUUUV+sn84DXRJUaORQ6OCCCMgg9QRX8+fxb8DSfDf4j694NZZFh0+5cW5kHzPbv8APC3GQcoQc/yPA/oOr8x/2/fAnkX/AId+JFqjFblW0y6Yn5Q6Zlt8D1ZTLnt8or4rjrL/AGuEVZbwf4PR/ofq3hFnP1fMXhpP3aqt81qvwuvmfnHRRRX44f08FfSv7LnwZ/4W98Ql/tNf+JDoHlXd9ldyzfOPLtj6edtbJ/uq2OcV83wwzXM0dvbxtLLKwREQFmZmOAAByST0Ffu/+z78JLf4PfDuz0CVVOrXeLnUZAVbNw6gFAwUZRMbVznuc819Twnk31vE3mvcjq/0X9dD8+8R+KP7OwLjSdqlTSPl3fyX4tHuFFFFft5/JgUUV8h/tg/GR/hv4CHhnRZgmueKEmt1IGWhtNu2aQEEFWO4Kh9ckcrXHmGNhhqMq1TZHp5NlNXHYqGFo/FJ/d3fyWp8FftWfGdPiv8AEF7TQLxp/DOiKILQKWEc0vWW42nuWOxT3RQRjJr5coor+fcdjJ4irKtU3Z/aGU5ZSwWGhhaK92Kt/wAF+b3YUUUVynohRRRQAUUUUAFFFAGeBQAUV3mj/C34l+IUWXQ/Cmq30bdHhspnT/voLt/Wuxj/AGb/AI6SLvXwXqAHvGFP5Eg1108BXmrxpt/JnnVs4wlN2qVop+ckv1PEqK9V1H4GfGTSlMl74K1cIvVks5ZVH1KKwFea3thfabcNaajbSWs69Y5UKOPqrAGsquGqU/ji16qxvh8dRrfwpqXo0/yKlFFFYnUFFFFABRRRQAUUUUAbXhzxBq3hTXtP8S6FObbUNMmS4gkHO14zkZB4IPQg8EZB4Nfvt8KviNo/xV8Dab400chVu02zw5BaC4TiSJhkkYPIz1Uq3Qiv576+xv2OvjMfh745Hg7W5wmgeJnWMl2Crb3nSKXJ6B/9W3TqrE4XFfYcHZ19WxHspv3J/g+j/R/8A/MvE7hX6/g/rFJfvKevrHqv1X3dT9jqKKK/aD+WAr4P/bb+DSeJvDC/FTRkP9p+H4hHdooz51luzu9cwlif9wtnoK+8KgurW2vbaWyvYkuLe4Ro5I5FDo6OMMrKcggg4IPBFefmmXwxVCVCfX8H0Z7PD+dVcvxdPF0t4vVd11XzR/NlRXtv7QXwpf4QfEq/8NW6udKnAutPdzktbSE4UnuY2BQnvjPevEq/n7E4adGpKlUWqdj+0MBjqeJowxFF3jJJr5hRRXZ/Dvwbf/EHxxongzTkZ5dVuUibacFIvvSyZwcBIwzk4PA6HpWdKnKclCO70Nq9eNKEqk3ZJNv0R+t37GHgc+EvgxaarcxlLzxLPJfvuxkRf6uEDHYom8d/nOfQfWdU9PsLPSrC20vT4hDa2cSQxRjOEjjUKqjPPAAFXK/onL8GsPQhRX2VY/iTOszljMXVxUvttv0XRfJaBRRVa9vLbT7Oe/vH8uC2jaWRsE7UQFmOBknAHbmutu2p5iTbsj8pP28vHZ1jx9pfgO2c+R4et/OmAcYNzdhWwVB/hiVCC3PznAwct8H11/j/AMV3Pjnxtrni+64fVruW4A2hdqOx2LgE42rgdSeOSTyeQr+es4xzxOKqVu709On4H9rcM5SsDgKOF6xWvq9X+LYUUUV5p7oV3/gr4p/ET4dymTwXr91pasQWiR90DFTuBaF90bc+qngkdCQeAorSlVnCXNBtPyMcRhqdWDp1YqUX0auvuZ+lHw5/b4ffDYfFHRBswqNe6aOc8gu8Ejf7udjepC9FH3l4J+JvgH4jWzXXgnXLfVVQAukbFZUBAOWicLIv3h1Uc8dciv55avabqepaLfw6po93NY3ts2+KeCRopY29VdCGU+4NfZZbxziqVo11zr7n9/8Amfl2feEmAxN54VulLy1j93T5P5H9I1Ffk78Kv25/F3h7ydK+J1n/AMJFYLhftkAWK+RfUj5YpsDgA7GPVnJr9HPh78Wfh98UrA33gnWIb5kUNLbk+Xcw9v3kLYdRngNjaT90mv0fK+IcLi1alL3uz0f/AAfkfhvEPBWYZa28RC8P5lrH/gfOx6NRRRXtnygUUUUAfG/xw/Y/8H/EVJ9e8ErD4c8RFRhUUR2Fw27JMyRoWVzn76fVlY81+T/jbwP4m+HniK58LeLbJ7G/tj0YfLImSFkjbo6Ng4YcduoIr+iivPPiZ8LfB3xa8Ov4b8Y2pmhBLwzRkJPbyYxvicg4PsQVPRgRxXxef8H0sSnUoe7P8H/l6n6pwd4m4jAtUMZedL/yaPp3Xk/kz+e6ive/jh+z74x+C2rN9tjfUdAnfba6lGhEbZ5CSgE+XJ1+Un5sEqSAceCV+R4rC1KE3Tqxs0f0nl+Y0MVRjXw8lKL2a/rfy3QUUUVznaFFFFABRRRQB//T/IeiiigAooooAK9L+FXwq8U/F7xTD4Y8MQ+j3Ny4Pk20OcGSQj/x1erHge2T8PfAHiL4meLbHwf4YgMt1eONzkHy4IgQHmlI6IgOSep4ABYgH91fhV8KvC3wi8LQ+GPDEPo9zcuB51zNjBkkI/8AHV6KOBX1PDPDksbPnnpTW/n5L9T894844hlVL2dLWtJaLsu7/RdSD4S/CLwl8HPDK+HfDERaSUh7q7kA8+5lH8TkDgLnCqOFHuST6jRRX7VQoQpQVOmrJdD+VcXi6terKtWk5Slq2wooorU5wqte3tnp1rLfahPHa20Cl5JZWCIijqWZiAAPU15F8XPjv4B+Den+d4ku/P1GVSYNPtyHuJDjgkZ+RP8AbbA9MnivyB+MXx/8ffGa/P8Ab1z9j0eKQvb6bbkrbx9lZ+8sgH8bdCTtCg7a+Zzziihg1y/FPsv17fmfe8JeH2MzRqo/cpfzNb/4V19dvyPuL4vfty6DoxudC+FNqNYu1BT+0pwVtUbHWKM4eXae52rkZG9ev5peKvGXinxxqr634u1SfVb1/wDlpO5baP7qL91F9FUAD0rmqK/Jc1z3E4yV60tOy2/r1P6R4d4RwOWQthoe91k9ZP59PRWQUUUV459MFFFFABRRRQAUUUUAFfWP7G3j/wD4Qz4xWmk3UkgsfE0ZsHVeV89iGgZhg5wwK5GMbyc4zXydVmyvLrTryDULGVoLm1kWWKRDhkdCGVgexBGRXZl+Mlh68K0fsu55mc5ZDGYSrhZ7STX+T+T1P6S6K5DwB4ttfHngnQ/GNntWPV7SK4KK24RyOo8yPPqj5U+4rr6/omnUU4qUdmfxHXoypzlTmrNOz9UFeRfHb4fQ/E34Wa94Y8jz70wPcWIGAwvIAXhwT03MNh/2WNeu0VGIoRq05U57NWNcFi54etCvTdpRaa+R/Na6PG7RyKUdCQQRggjqCKbX0r+1j8Pf+Ff/ABl1XyObLxBnVYOPu/aXfzU9PllV8AdFK14J4c0DU/FWvaf4b0WIz32pTJBCgBPzOcAnAJwOpOOBk1/PGLwU6VeVB7p2P7Yy7NKWJwkMXF2jJX9NNfuPsP8AYr+DZ8ZeMv8AhZGsRk6T4XmUwAqCk98F3IM5yPIysnT72ztkV+u9ec/Cb4e2Hwt+H2j+CbEq7WMINxKo/wBdcyfNNJzzhnJ2g8hcL2r0av3Hh3KVg8NGn9p6v1/4Gx/JfG3Ecszx86yfuLSPouvz3/DoFFFFe4fImRr+uab4Z0S+8QaxMsFlp8LzSuzKoCoM4y5VcnoMkc1+BXxb+IuofFX4gat40vwY0vJSttEcZhtk+WGM44JVMbj3bJ7194ft2fFpILCz+EGjysJblkvNT4ZR5SYa3iyRhgz/ALxsdCi88kV+Y9fknHOce1rLCwfux39f+B+Z/SXhJwx9XwzzCqvfqbeUf+C/wS7hRRRXwR+xBRRRQAUUUUAFdv4F+HPjX4lasNG8F6VLqVwMGRkGIolJxukkbCoPqRntzX0Z+zz+yjrnxU+z+LPFrSaT4V3ZTAxcXoHURZ+7H6yEc9FB5K/rb4T8H+GfA2iw+HvCWnRaZp8H3Yolxk92ZjlmY92Yknua+0yHg+rikqtZ8sPxfp29T8s4x8TcPl8nh8Kueqt/5Y+vd+S+bR8IfDf9grRrWOLUPijq730/DGysD5cIPo8zDe//AAEJ9TX2j4R+E/w28Boi+EvDdlpzp0mSINOcesz7pD+LGvQqK/TsBkeFwy/dU1fvu/vPwHOOLcxx7f1ms2uy0X3LT79Qooor1j5wKx9a8PaB4ktDYeIdNttUtjnMV1Ckyc9flcEVsUUpRTVmi4VJRfNF2Z8geP8A9ir4ReLUkuPDscvha+bkPaEyW5P+1BISMeyMlfnp8Wf2Yfif8J0m1K9tBq+iRZJv7IF0RfWZMb4/ckbc8BjX7lU1lV1KOAysMEHkEGvl804QweITcY8ku6/VbH6BkHiZmWCajUn7SHaW/wApbr53XkfzW0V+sfx+/Y30XxXFc+KvhXDHpWtkmSWwBCWt0ep8sdIpD7YQnqF5avyr1TStS0PUbnSNYtpLO9s3aKaGVSkkbqcFWU8givyjOMkr4KfLVWj2fR/12P6L4Z4swma0vaYd+8t4vdf8Dz/UoUUUV459MFFFFABRRRQB+237Knxk/wCFr/DuK21e48zxDoG21vN77pJkCjyrg55/eDIYnkurHuK+nq/Bb4AfFeb4P/Emw8Sybm0uf/RdQjXOWtZSNzADq0ZAdR3K7cjJNfvBZXtrqNnBqFjKs9tdRrLFIhyro43KwPcEHIr9u4Szn61huWb9+Oj/AEf9dT+TvEjhf+zsc50lanU1Xk+q+W68mizRRRX1R+eHzD+1Z8H4fij8Nri90+Dd4g8PK93ZsoBeRFGZoOmSHUZUDneq9sg/iTX9Klfi5+158H4fhl8RDrGiQeVoXibzLqFVACQ3AbM8KgAAKCwZR0CttH3a/NOPMn0WMgvKX6P9PuP3jwg4ns5ZXWfnD9V+q+Z8nV+iP7A3w/F7rWu/Eu8V9mnINPtOoRpZgHmOe5RAgxyMSZIyAa/O6v3y+Anw9T4Y/CrQvC7ljd+T9puywYH7TcfvJFw2CAhOwcA4UEjJNeHwRl/tsZ7R7Q1+fT/P5H1vivnX1bLPYRfvVXb5LWX6L5nsVFFFfs5/LQV8p/ti/EJPBHwdvdKgDG+8UN/Z0WCwCxON07MRjjywUxnkuOCoYV9WV+OP7bPxAHi34sjwzaM/2LwpB9lw2drXMuJJnUHpxsQ8clM5IxXzfFmYfV8FNreWi+e/4XPu/DnJfrua01Je7D3n8tvxsfHNFFFfhZ/XIUUUUAFFFFABRRRQAVe03U9S0W/h1TR7uaxvbZt8U8EjRSxt6q6EMp9wao0U02ndClFNWex+g/wb/bi1fRkh0P4uQy6vbAkLqVuqC5QcBRJENiyAc5YHf7Mev6S+EfGnhbx7osHiHwhqUWp2FwMrJHkEckYZGAdDkHhgD7V/OnXceAfiP4y+GWtrr3gzUpLC4+USKOYpkBzslQ/K6/XkdQQea+3yXjWtQtTxPvx79V/n8/vPyfinwpwmLTrYH93U7fZfy6fLTyP6HKK+QPgf+134P+J80HhzxPGvh7xE6nAdwLO4YHAEMjNuDnrsYewZjX1/X6pgcwo4mn7SjK6P54zfJsTgazoYqDjL8/NPZoKKKK7DyzK1zQ9H8S6TdaFr9nFf6fepsmgmUOjr15B9CAQeoIBHIr8av2j/ANmvWPg9qcmu6Ckt/wCEbp/3U+CzWjMcCKcj3OEc8N0Pzdf2qqjqemadrWnXOk6tbR3lleRtFNDKodJEcYZWU8EEV4We5DSx1PllpJbP+uh9fwhxhiMpr80NYP4o9/Ndn5/efzc0V9R/tJ/s6ah8GNZXVtG8y88KalIRbzEFmtpOvkTNjGcfcb+IA9wa+XK/DsbgqmHqulVVmj+tMqzWhjaEcTh5XjL+rPzQUUUVynohRRRQB//U/IeiiigAq9pmm3+talaaPpcLXN7fTRwQRJ96SWVgqKPdmIAqjX6TfsPfBOG4RvjL4ihWRQ0ttpUMiAgMjASXSk9wwaJfQhz/AHTXqZPlc8ZiI0YfN9l3PA4mz+llmDniqnTRLu3sv66H1d+z18DtH+DPg6CB4Uk8R6hEj6lc8FvMIz5KNz+7jJwMfeI3HrgfQFFFfvmEwtOhTjSpKyR/G+Y5jWxdeWIryvKTu/67dgoooroOIK+GP2h/2vtL8DfaPB/w0ki1LxCpKT3eBJbWTK2GUDpJKMEY+6vckgrXn/7U/wC1a8T3Xw1+Ft8VdSY9Q1OBsEEcNDbuv5O4+i9zX5pV+ccTcYODeHwj16y/Rf5/cfufAPhkqkY43Mo6bxh385eXZdevY0NW1bVNd1K41jWruW+vrtzJNPM5eSRj1LMck1n0UV+Xttu7P3+MVFJJaBRRRSKCiiigAooooAKKKKACiiigAooooA/Ub9gj4iR3mhaz8MLx2Nzp8jaja5OR9nlKJKijsEkw3uZDX6HV+BHwK+IM3wy+Keg+KPP8iyE6W98TkqbOchJsgddqneP9pRX76o6SoskbB0cAgg5BB6EGv2fgnMfbYT2TesNPl0/y+R/Lfivkn1XMvbxXu1Vf5rR/o/mOooor7E/Lz4r/AG4Ph6/ij4YweLrCFGvPC83myNj5zaTYSQA57NsYgjoDjHOfF/2D/hV9r1HUfi5q0P7uy3WOm7h1mdf9IlHf5UIjBGQd7jqtfpPrui6b4k0W+8P6xCJ7HUYJLeeM/wAUcqlWH5Hg9qyPAvg3R/h74Q0rwXoKlbLSYBEhbG52+88jYwN0jlnbAAyTgCvma/D0Z5jHGvZL/wAmWz+78Ufe4XjWpSyOeVx+Jy0f9x6tff8Ag2dZRRRX0x8EFcZ8QfHOifDfwfqfjHXpVS30+F3VCwVp5QDshTPV5G+UfmeAa7Ovyi/bj+Lc2ueLIPhdot0w07Q1El+EYhJryQBlRscMIUxj0dmBGVFeLn+arB4aVXrsvX+tT6ng3h2WZ4+GH+zvJ9orf79l6nxJ4m8Rar4u8Q6j4n1yXzr/AFSeS4mbtvkYsQo5wozhR0AAA4FYdFFfgc5OTcnuz+yKdOMIqMVZIKKKKksKKKKACvtf9lL9msfEu7Xx741hP/CL2UpEMDcfb5kPIP8A0xQ8Mf4j8o6Njwj4G/Ci/wDjD8QbLwrAWisU/f306jPlW0ZG7B/vMSEX/aIPQGv3i0bR9L8PaVaaHotslnYWMSwwQxjCoiDAA/x6nqa+54O4eWJn9YrL3I7Lu/8AJf11PyTxO41lgaawWFlapJav+Vf5vp2WvYvQww20MdvbxrFFEoVEUBVVVGAABwAB0FSUUV+vn8zthRRRQIKKKKACiiigAooooAK+TP2m/wBnHT/i3o0niXw5Clv4u0+PMbDCi9jQf6mQ/wB7H+rc9D8p+U5X6zorkx2Bp4mk6NVXT/q56WUZtXwOIjicPK0l+Pk/Jn82NzbXFncS2l3E0M8DMkkbgq6OpwysDyCDwQahr9Hv23vgglpKvxj8NwbY52SHVo0UBVc/LHc8f3jhH/2tp6kmvzhr8FzfLJ4SvKjPps+67n9icNZ/SzLBwxVLruuz6r+ulmFFFFeYe8FFFFABX60/sR/GBPE/hKT4Y6zMP7T8OoGtC7fNPZMx4A6/uDhT/ssmOhr8lq7j4b+O9V+GnjbSfG2jjfPpkwdoi20TRMNskRODgOhK5wcZz2r2+H82eDxMav2dn6f8Dc+V4z4cjmeAnh/trWL/ALy/z2fqf0OUVh+GfEWleLvD2neJ9El86w1SCO4hbodkihgGHOGHRh1BBB5rcr97hJSSktmfxxUpyhJwkrNBXinx/wDhRD8YPhvf+Go9qapb/wClafI2MLdRA7VJOMLICUY9g27BwBXtdFZYnDwrU5UqiumrM6MBjqmGrQxFF2lF3XyPxA/Za+Gd545+NGmW19aZsfDshv79ZkOF+zt8kbKcZZpdoKnsGJBAIr9v64fwx8PPDHg/xB4k8SaDb/Z7vxVPHc3oAUKZY1IyuFB+YsztknLsxGMmu4rxuHMl+o0XTbu222/y/D8z6njjiv8AtbFRrRVoxikl57v8dPRIKKKK+gPizjviD4us/AXgjW/GN8wEek2skwBBbdIBiNMAjO9yqjkdeo61/PVqepX+tald6xqkzXN7fTSTzyv96SWVizsfdmJJr9P/ANvf4gpYeGtF+G1lcAXOqy/bruMDLC2hJWLcSeA8uSMDkxnkYw35ZV+Qcd5h7TEqhHaC/F/8Cx/TPhBkvsMBLFzXvVHp/hWi+93/AACiiivhj9bCiiigAooooAKKKKACiiigAooooAK+8v2e/wBsTVfCUlv4R+K1zJqGgqqxQX2zfcWYXAAk2/NLEB7NIO24YUfBtFd+XZnWwlT2lF2f4P1PGzzIcLmNB0MVG66Pqn3T6P8Apn9Imk6tpmu6bb6xot1FfWN2gkhnhcPHIp6FWGQa0K/FD9nH9pPVvgzqX9ja15uoeE7x901uvzSWznrLACQOf4kyA3Xg81+zGga/o3inRrPxD4evI7/Tr+MSwzRHKup/UEHgg4IIIIBBFfteQ59Sx1O8dJLdf10P5U4w4OxGU1+WetN/DLv5Ps/6Rr0UUV7x8eYPijwzovjLw/f+F/EVuLvTdSiMU0ZJGVPOQRggggEEcggEV+Ffxw+EOq/BjxxP4YvHa6sZVE9jdFdongb17b0PyuB356EV++VeDftEfBu1+MvgGfSYVVdb0/dcabKx2gTY5jY/3JANp9Dhu1fLcVZCsZR5oL347efl/l5n6H4ecXyyzFKnVf7mfxeT6S+XXy9EfhJRUs0M1tNJb3EbRSxMUdHBVlZTggg8gg9RUVfiB/WKYUUUUAf/1fyHooooA6/wD4M1X4h+MtI8F6KP9L1adYQ2MiNPvSSMByVjQM7Y5wDX9BPhnw7pXhHw9p3hjRIvJsNLgjt4V6nZGoUFjxlj1Y9SSSea/Mz9gXwR9v8AFOveP7lMx6VAtlbnfj99cnc52jk7UTGSQPm4BPK/qfX69wJlqp4Z4hrWf5L/AIP6H80+L+eSrY6OCi/dprX/ABPX8Fb8Qooor7o/IQr8/wD9sH9oyPw9p83ws8C32NYuvl1O5hbm1hI5gVh0lkz82D8q5HVgV+mvj58Uo/hD8NdR8VRrvv5f9EsR8uPtcyt5bMGI3Km0uwGSQp4xkj8H9T1K/wBa1K71jVJmub2+mknnlf70ksrFnY+7MSTXwfGmfuhD6rSfvSWr7L/Nn7B4WcGxxdT6/iVeEH7q7y8/JfiyjRRRX5Gf0oFFFFABRRRQAUUUUAFFFFABRRRQAUUUUAFFFFABX7e/sm/EZPiD8HdLjnIF/wCHQul3AzkkW6L5UmOvzRlck9WDelfiFX11+xp8Tv8AhBPinH4cvWxpvi7y7J/9m6BP2ZvxZjH/AMDz2r6jhHM/q2MipP3ZaP8AT8T8/wDErIfr2WTcFedP3l8t1934pH7NUUUV+4H8lhRRRQAUUUUAeXfGX4j2vwp+Heq+MZ1Ek1unl20Z3ASXEnEakqr455yRjjBIr8CtT1K/1rUrvWNUma5vb6aSeeV/vSSysWdj7sxJNfY37anxb/4TPx9/wgelSB9K8Ku0cjDaRJfEYmIONw8v/VkZxuVjjoa+K6/FuMs3+sYn2cH7sNPn1f6H9UeF/DX1HAKvUX7yrr6R+yv1fr5BRRRXyB+mBRRRQAUUV2vw48Jy+OvHugeEI841W8hgcjqsTMPMb/gKZP4VdKm5yUI7vQyr140oSqTdkk2/RH6yfsa/C9PAvwuh8S30O3VvFe27ckfMtrj/AEdPoVJk/wCB+1fXdQWttb2VtFZ2kYiggRY40XgKijCgewAqev6Jy/BRw9CFGGyX9fefxJnWaVMbi6mKqbyd/RdF8loFFFFdh5YUUUUAFFFFABRRRQAUUUUAFFFFAGN4i0DS/FOhah4b1qET2OpwSW8yHuki7Tj0IzkHscGv58/H/g/UPh/401nwZqfM+k3Lw7sYEiA5SQD0dCGHsa/olr8qf2+fBSab4x0Lx3ax7U1m2a1nI6edakFWPu0bgD2SvhePMuVTDLELeD/B/wDBsfr3g/nbo46WCk/dqLT/ABLX8Vf8D4Booor8hP6WCiiigAooooA/Sr9g/wCKv/IR+EerTf3r7Tdx/wDAiIfpIB/vmv0qr+dDwb4q1XwP4p0vxdoj7L3Sp0nj9G2n5kb/AGXXKsO4Jr+gPwL4y0f4heENK8aaCxay1aASoGxuRvuvG2MjdG4ZGwSMg4Jr9f4Hzb2tB4ab96G3p/wNvuP5n8W+G/q2LWOpr3Km/lL/AIK19bnWUUUV9yfkYUUUUAFRTTQ20MlxcSLFFEpd3chVVVGSSTwAB1NS18mftkfEiHwP8JbnQreQDUvFZaxiTJDfZ8ZuX4I4CkIevLgEEZrjzDGRw9GdaW0Vf+vU9PJssnjcVTwtPeTt/m/ktT8sPjR4/f4nfEzXfGId2trubZaq5zttogEiAGFxlRuIx1Jzk5J8toor+eK9aVScqk927v5n9s4TCwoUoUaatGKSXotAooorI6AooooAKKKKACiiigAooooAKKKKACiiigAr6v8A2Zf2jNS+EeuReHdfle48I6jLiaM/MbSR+PPiyeBn/WL3HIG4c/KFFdeBx1TD1VWpOzR5ubZTQx2HlhsRG8X+HmvNH9JtrdW17bRXtlKlxb3CLJHJGwdHRxlWVhkEEHII4Iqevzo/Yd+NE2oW8vwe1+XdJZxvcaXI7Es0QOZLfn+5nen+zuHRRX6L1+95TmcMXQjXh13XZ9Ufx3xJkNXLcZPCVemz7ro/666BRRRXpHgn48ftq/Cr/hCviOPGmlw7NK8Wb522j5Y75MeeD6eZkSgk8sz44WvjKv3L/aq8Djx18Etft4ow95o6DVLfOeGtAWkwB1LQmRQPUivw0r8R4xy1YfGNx+GWv+f4/mf1h4Y568blkY1H71P3X6LZ/dp6phRRRXyp+iH/1vyHooooA/Zz9ibQYNJ+BVlqccYWTWry7uXbu3lyG3Hc9BF049cckn64rw39mmwTTfgR4Mt44hEHsRNgdzO7Slv+BFtx+te5V/QuS0uTCUo/3V+R/FXFWIdXM8TUfWcvuu7fgFFFFemeAfj/APtu/EyfxV8S08DWjkaZ4UQIwB4ku51V5X467F2oAehD44aviuuz+I2qya58QfE2syv5jXup3k27O4EPMxGCOMY6Y4x0rjK/njNsZKvialWXVv7un4H9s8OZZDB4GjhoL4Yr792/m7sKKKK849sKKKKACiiigAooooAKKKKACiiigAooooAKKKKACrNleXWnXkGoWMrQXNrIssUiHDI6EMrA9iCMiq1FNO2qE0mrM/oF+DXxCh+KXw10TxooVLi8h2XKKR8lzETHKMdgWUsoPO0g969Pr8sv2Efik+m+Ib/4UalITbauHvLEHnbcwpmVB/vxLu9tnvX6m1++8P5n9bwkKreuz9V/nv8AM/jbjTIXl2Y1MOlaL1j/AIXt923yCiiivaPlQrx348fE6H4SfDLVfFisv9oFfs2no2DvvJgRHweCEAMjDuqEda9ir8ff22vidN4t+JK+B7JmXTPCi+Ww5AkvJgGlfHGQq7UXI4IYg4avA4lzX6phJTXxPRer/wAtz7LgTh7+0sxhSkvcj70vRdPm7I+MppprmaS4uJGlllYu7uSzMzHJJJ5JJ6moqKK/Bj+wkgooooAKKKKACvsD9h/QU1f44R6hIu4aLp91dKT2Z9tuPxxKa+P6/QT/AIJ+WyP4y8V3hHzRWEMYPtJLk/8AoAr3eGaSnj6Kfe/3anyPHuIdLJ8TJfy2+9pfqfqhRRRX72fxyFFFFABRRRQAUUUUAFFFFABRRRQAUUUUAFfHn7cOgJqvwRk1Tbl9Fv7W4DdwshNuR9CZR+Qr7DrwL9qO2W7+AXjGJxkLaxyfjHNG4/UV5ed0lPB1ov8Alf5H0PCWIdLNMNNfzx/F2f4H4UUUUV/PZ/aYUUUUAFFFFABX6D/sLfFh9M1+8+FGsXB+yaqGudPDtwlzGMyxrnp5iDdj1X1avz4rV0PWtS8N6zY+INHmMF9p00dxBIP4ZImDKfzHI716WUZjLC4iFePTfzXU8LiXJIZjgqmEn1Wj7NbP7/wP6P6K4X4Z+O9N+JfgXR/Gul4WPUoQzxg58qZflljP+44I9+veu6r+gqVWM4qcXdPVH8XYjDzpVJUqitKLaa80FFFFaGIV+I/7WvxIi+IXxf1CPTpzPpegD+z7c8bS0R/fuuByDLuAOTkAEHBAH6l/tDfEkfCz4V6t4jhcJfzgWdkDnm5nBAxhkb5VDPkHI25wcYr8GK/NuP8AM7KGEj11f6f5/cfuvg3kF5VMxqLb3Y/q/wAl82FFFFfmB+/hRRRQAUUUUAFFFFABRRRQAUUUUAFFFFABRRRQAUUUUAdL4N8Var4H8U6X4u0R9l7pU6Tx+jbT8yN/suuVYdwTX9CPhXxDZeLfDOleKdNyLXV7WG7iB+8qzIHAbHcZwfev5ya/br9j/VZNU+AHhwTP5klk13bk5ycJcSFAfTCFQB6AGv0Pw+xklWqUOjV/mrL9fwPxTxoyyEsNRxiXvKXL8mm/wa/E+mqKKK/VT+diKeGO4hkt5hujlUqw6ZDDBHFfzleI9JOgeIdU0JiWOnXU9sScZPkuUyccdu1f0dV+Afx305dK+M/jWzRNi/2tdyKvGAJpDIMY4Aw3A7DivzrxDpXpUp9m19//AAx+3+CmIar4il3Sf3Nr9Tyeiiivyw/oU//X/IeiiigD93f2ZNSOq/AbwbdEg7LMwcEH/j3keHtj+5z+vNe718d/sPeIo9Y+CSaQAyyaFf3NscnIIlIuAy+g/ekY9QT3r7Er+hMkre0wdKX91fkfxXxZhnRzPE02vty+5u6/AKKKK9Q+fP55/inpH9gfEvxXowjWJbPVLyNVQ5UIszbce23GP1rg6+5v25vhnP4f8f2/xGs0JsPEyLHMQOI7u3QJj23xqrD1Ic18M1/PWc4OWHxVSlLo/wAOn4H9rcMZpDGZfRxEHvFX9Vo194UUUV5h7wUUUUAFFFFABRRRQAUUUUAFFFFABRRRQAUUUUAFFFSwwzXM0dvbxtLLKwREQFmZmOAAByST0FANn3h+wt8LX13xhefFDUoz9h8PBre0J6Pezphj6Hyom5B7yIR0r9X68i+BXw3/AOFU/DDRfCEx3X0UZnvG3bh9qnO+QKem1CdikYyFBPJNeu1++cOZZ9UwkKbXvPV+r/y2+R/HPHGff2jmVSuneK92P+Ff56v5hRRRXuHyIV+NX7Zvwwk8EfFGXxTZx40vxZuu1IGAt0MfaEOO5YiTPfefQ1+yteG/tE/C1Piz8L9S0C3jDaraD7Zp57/aYQcJn/popZP+BZ7V89xPlX1vCSjH4lqvVdPmfa8AcRf2dmMKk37kvdl6Pr8nr6XPwdopzo8btHIpR0JBBGCCOoIptfhB/X4UUUUAFFFFABX3/wD8E/bxU8ceKbAn5ptOjlA9opgp/wDQxXwBX1p+xV4hTQ/jpY2cjbF1qzurLJ6Z2idR+JiAHvXucNVVDH0ZPvb79D5PjvDOrlGJgv5b/dr+h+0FFFFfvh/G4UUUUAFFFFABRRRQAUUUUAFFFFABRRRQAV8/ftUXiWPwA8YTOcB7eGIfWW4jQf8AoVfQNfF/7dPiFNK+DkGiq373WtRgi2+scIaZj9AyoPxrys9rKGCrSf8AK/xVj6PhDDOtmmGgv54v5J3f4I/Huiiiv58P7RCiiigAooooAK3PDPh3VfF3iHTvDGhxedf6pPHbwr23yMFBY84UZyx6AAk8CsOv0Y/YP+FX2vUdR+LmrQ/u7LdY6buHWZ1/0iUd/lQiMEZB3uOq16mTZbLF4mFFbPf06ngcUZ5DLsDUxUt0tF3b2X37+Vz9DvAPgzSvh54N0jwXoo/0TSYFhDYwZH+9JIwHAaRyztjjJNddRRX9A06cYRUIqyR/F9etOpOVSo7tu7fdvcKKKKsyPKfjZ8OLb4qfDXWPCMiBrqWIzWbHGUu4huiIJwBk/K3+yxr8A3R43aORSjoSCCMEEdQRX9KVfjL+2P8ACr/hAPia/iPTYdmkeKt91HtHyx3QI+0J+LESD/ewOlfnXH2V80I4uK20fp0/H8z9w8HOIFCrUy6o9Je9H1W6+a1+TPkWiiivyw/oQKKKKACiiigAooooAKKKKACiiigAooooAKKKKACiiigAr9wf2R9GOjfAHwyJFCy3oubp8YOfNnkKHj/pntzn6V+NvgHwZqvxD8ZaR4L0Uf6Xq06whsZEafekkYDkrGgZ2xzgGv6EtF0mz0HR7DQtOXZaadBFbQrgDEcKBFGFAHAA6AD0Ffonh9g26tTEPZK3zev6fifiPjRmkVh6OCT95vmfok0vvbf3GnRRRX6ofzyFfgD8dNSOrfGbxteEhh/a95GpBBBSGVo1II45Cj/6/Wv3y1C+g0ywudSuiRDaRPK+Bk7Y1LHA+gr+czXdUfXNb1DWpFKPqFxLcFS28gyuXILYGcZ645r858Q6yVOlT7tv7v8Ahz9w8FMM3WxFa2yS+9t/oZVFFFflp/Qh/9D8h6KKKAPuv9g3xwNG+ImqeB7mQLD4jtfMhBySbmy3OFHYZiaUn12iv1pr+cfwz4i1Xwj4h07xPocvk3+lzx3ELdt8bBgGHGVOMMOhBIPBr+grwD4z0r4h+DdI8aaKf9E1aBZgucmN/uyRsRwWjcMjY4yDX61wFmSnQlhpbx1Xo/8AJ/mfzf4w5E6WLhj4L3Zqz/xL/NbejOuooor74/GzzD4xfDSw+LXw+1PwXeOsMtwoktZ2GfJuY+Y345xn5WxyVJHevwR1/QtV8Ma3feHtct2tb/TpngmjYYKuhwfqD1B6Ecjiv6Pa+IP2sv2bZPiLayfETwVCz+JbKFVntUGftsMfTaP+eyL0/vgbRyFr4fjLIHiaaxFFXnHdd1/mj9a8L+Mo4Gs8FiZWpzej/ll/k+vbTzPyKooor8fP6aCiiigAooooAKKKKACiiigAooooAKKKKACiiigAr6o/ZC+GC/ET4r22oahGsmk+GlF9cK4DLJIDiCPByOX+Y5GCqMOCRXyvX7WfsgfDdvAPwhs7+9DDUfEzDUZlbI8uN1AgQA4/5ZgMeM5YjJAFfTcJ5Z9ZxkeZe7HV/Lb8T4LxHz76hlk+R2nP3V8938lf52Pqiiiiv3I/kgKKKKACiiigD8cf2zPhEngD4gr4t0eIro/isyTkAfLFeg5nTjoG3B1z1JYDha+Oa/ff45fC61+L3w41LwhIVjvDtuLGVhnyrqLJQ+wYFo2PZWOOa/BG9s7rTryfT76JoLm1kaKWNxhkdCVZSOxBGDX4pxjlH1bE+0gvdnqvXqv1+Z/VnhjxL9ewCpVHepT0fmvsv7tPVeZWooor5I/SAooooAK6bwX4luvBvi7RvFllkzaRdw3IA/i8pwxX6MAQfY1zNFVCbjJSjujOrSjODhNXT0Z/SLpWp2etaZZ6xp0gltL+GOeFx0aOVQ6n8QQav18RfsRfFNPFXgCXwBqU2dT8MHEQJ+aSykOUI9fLYlD6DZ619u1/Q+V4+OJw8K8eq/HqvvP4nz/KJ4DGVMJP7L0810fzQUUUV3njhRRRQAUUUUAFFFFABRRRQAUUUUAFfkl+3f45TXPiNpvgu0k3w+HLXdKAelzd4dgR7RrH+Z/H9Q/G/i/SfAXhLVfGOtvts9KgaZxnBcjhEX/adiFX3Ir+fTxV4k1Lxh4k1PxTrD773VbiS5lPYNIxbA9AOgHYACvgePcyUKEcMt5av0X/AAfyP2TwdyN1cXPHSXuwVl/if+Sv96MCiiivyU/pAKKKKACiiigDc8M+HdV8XeIdO8MaHF51/qk8dvCvbfIwUFjzhRnLHoACTwK/oK8A+DNK+Hng3SPBeij/AETSYFhDYwZH+9JIwHAaRyztjjJNfn/+wn8J4ZWvPi5q8Cu0LPaaaTglGKlZ5FIfg7SUwydCcHk1+l1fr3A2UeyoPEzXvT29P+D/AJH80+LfEn1nFrA0n7tPfzl/wFp6thRRRX3R+QhRRRQAV85/tTfDWb4l/CLUrLTovN1TR2Go2igHczwKwdBjqXjZgB0LY9iPoyiubGYWNelKjPaSsd2WZhUwmIp4ml8UWn93+Z/NXRXvf7Svw4n+Gvxc1rTliEenanK2oWJVdqeRcMW2KO3ltuTHooPevBK/njF4aVGrKlPdOx/bOXY6niqEMRSfuySa+YUUUVznaFFFFABRRRQAUUUUAFFFFABRRRQAUUUUAFFFfYn7KH7PTfFLX/8AhLfFtq3/AAielN91gQL64B4iB4zGvWQg+ifxEr2ZfgKmJqxo0lq/6ueXnOcUMBhp4rEO0Y/e+yXmz6V/Yk+Cq+H9Cb4ta/Cy6nrEbxWCNgrHZMVPm4xkPKykA/3AMcOa++6ihhhtoY7e3jWKKJQiIgCqqqMAADgADoKlr98yvLoYShGjDp+L6s/jniHPKuY4ueKq9dl2XRfIKKKK9A8U+Yf2vPHcfgr4K6taxSql94ixpkCnqyTf684HOBCHGegJGeoB/Emvqz9sD4nv8QfitPpVjOsujeGFNnbeW6ujythriUFSRlnATg/dRcgHIr5Tr8O4tzNYnGS5fhjovlv+J/W3htkLwOWQ5/jn7z+ey+63zbCiiivmD74//9H8h6KKKACv0A/Yj+NUfh7V5PhL4hm22OsTGXTnbny7tgA0ROeFlCgqOm8er1+f9SwzTW00dxbyNFLEwdHQlWVlOQQRyCD0NejlWZTwleNeHT8V1R4vEOR0sxwk8JV2ez7Po/66aH9J9FfNn7NHx2tvjP4O26m6R+J9ICx38QAXzRj5blFHG2T+ID7rgjAUqT9J1+/YPGU69KNak7pn8aZpltbB4ieGrq0ouz/z9HugooorpOA/OH9qj9lSfUZ774n/AAytQ07BptR02JcNIw+9Nbqo5Y8s6dWOWXLHB/Mmv6VK+Fv2lP2S7Xx35/jb4aW8dr4jODcWQKRQXuOCyltqpN6kkK2OcNlj+ccUcIc7eJwi16x7+a8/L7j9y8P/ABLVNRwOYy93aM308peXZ9Oumq/JSitDVtJ1TQtSuNH1q0lsb60cxzQTIUkjYdQynBFZ9fl7TTsz+gIyUkmnoFFFFIoKKKKACiiigAooooAKKKKACiiigD034OeAbn4m/ErQfB8MRkgu7hWuiCQEtIjvnYsOnyAheRliADkiv6AoYYbaGO3t41iiiUIiIAqqqjAAA4AA6Cvzf/YH+HUPk658UdQgYylv7OsWYAKFwHuHXPJJOxdwAxhlBOWA/SWv2TgfLvZYT20lrPX5Lb9Wfy/4tZ39ZzFYaD92krf9vPV/ovkFFFFfaH5WUdT1Kw0bTbvWNUmW2srGGSeeV/uxxRKWdj7KoJNZXhDxVo/jfwxpvi3QJDLYarCs8RbAYBuqsASAynKsMnBBFfLX7bXxCfwj8KV8L2YX7Z4smNtklcpbQ4kmZQeSSdidMAMTkHbnx39g/wCKv/IR+EerTf3r7Tdx/wDAiIfpIB/vmvnK3EEIZhHBPqt/Povu/NH3GF4Mq1clnmsd1Lb+6tG/v/BM/Sqiiivoz4cK/I/9tz4SSeFvGsfxJ0mDbpPiRgtwV+7HfhSWB/66ou8erBzX64VwXxN8A6V8TfA+reDNWVdl/CwikIyYZ15ilX3RsHjqMjoTXicQZSsZhpUvtLVev/B2PrOC+I3lmPhXfwPSXo/8tz+eiitfX9C1Xwxrd94e1y3a1v8ATpngmjYYKuhwfqD1B6EcjisivwSUWnZ7n9jQmpRUou6YUUUVJQUUUUAeh/Cv4jax8KvHOm+NNG+d7R9s0RPyz278SRn/AHl6HswB6iv3r8HeLtB8eeGrDxZ4auBdadqMYkjboR2ZGHZlIKsOxBFfzo19R/s1/tE6h8GdbOk6yXuvCmpSA3MK/M1vIcDz4h64ADr/ABADuBX2XCXEKwk/Y1n7kvwff07n5d4k8EvMaKxOGX72C2/mXb1XT5r0/bGis3RtZ0rxDpdrreh3Ud7YXsYlhmibcjo3Qgj/ACDwea0q/ZYyTV0fy9ODi3GSs0FFFFMkKKKKACiiigAooooAKKK+Ef2q/wBp638GWl38OPAF0JPENwpjvbqM5FijDBRSP+W5HH+wOfvYxwZlmVLCUnWqvT832R7ORZFiMxxMcNh1dvd9Eu78v+GPB/20PjnF4w1xfhj4YuBJpGiy772WNvlnvFyuzjgpDyPQuT/dBr4RpSSTk8k0lfguZ5jUxVeVepu/wXY/sPIcko5fhYYWjsuvd9W/X/gBRRRXAewFFFFABXZ/D7wNrfxI8YaZ4O0GJnuNQmRGcKWWCIkb5nx/BGvzH8hyRXGV+rv7Dnwkh0PwnP8AFHWrVTqOuMY7Auo3w2cZKs6k8qZnzn1RVIOGNe1kGVPGYmNLpu/T+tD5bjHiKOWYCeJ+1tFd5Pb7t35I+2/DPh3SvCPh7TvDGiReTYaXBHbwr1OyNQoLHjLHqx6kkk81uUUV++QiopRWyP43qVJTk5yd2woorx348fE6H4SfDLVfFisv9oFfs2no2DvvJgRHweCEAMjDuqEdazxGIjSpyqTeiV2b4HB1MRWhQpK8pNJerLng/wCL3hjxp4+8WfD/AEpwbzwo8SSPuyJiwxNsGOPJk/dv/te2M+rV+C3wF+JTfDj4vaN4x1WeRrSSZ4b9ixJeG6BR3c9W2MRJ7lRX7zo6SoskbB0cAgg5BB6EGvA4Zzz69SlKWkk3p5Pb/L5H2PH3CSynEU4U9YSitfNaS/HX52HUUUV9KfCHw/8At0fD3/hI/hxaeOrXi58KzfvBj79teMkbdOSVcIR2A3GvyLr+j/XdF03xJot94f1iET2OowSW88Z/ijlUqw/I8HtX893j7wldeBPG2t+Drzc0mkXctuHZdpkRGPlyY9HTDD2Nfk/HuW8laOJjtLR+q/4H5H9HeDue+1ws8BN6wd1/hf8Ak/zORooor8/P2YKKKKACiiigAooooAKKKKACiiigAoor75/Zz/ZAv/FL2vjb4qW72eiECW305tyT3Y5wZcYaOPgED7zg9hgn0Mtyyti6ipUVd/gvU8bPc/wuXUHiMVKy6Lq32S6v+nY8u/Zu/Zu1X4x6quua4sll4SspMTTD5XunXrDCf/Q36L0HzdP2Z0bRtK8PaVa6JolrHZWFlGsUMMS7URF6AD/JPU81asrKz061isdPgjtbaBQkcUShERR0CqoAAHoKs1+15FkNLA0+WOsnu+//AAD+U+L+MMRm1fnn7sF8Me3m+78wooor3T5AK+aP2ovjSnwi8ASR6ZID4h10SWtkFfa8AKHfdY/6ZZGP9sr2zXtvjTxp4c+H3hy78VeKrtbPT7Ncsx5Z2P3URerOx4AHX6Zr8JvjD8VNc+MHje88W6wTFCxMVnbZyttbKTsjHqecu3G5iTgDAHyXFmfLCUfZ0378tvJd/wDL/gH6T4ccHyzHFKvWj+5hv5vpH9X5ep5nNNNczSXFxI0ssrF3dyWZmY5JJPJJPU1FRRX4of1WkFFFFAH/0vyHooooAKKKKAOq8F+NPEfw+8R2nirwrdtZ6hZtlWHKup+8jr0ZGHBB/ng1+6PwZ+LehfGPwXb+KNJKw3SYivbTcWa2uAMlCSBlT1VsYI9wQPwEr0j4W/FTxb8IvE0fibwpOFcjZPbyZMFzF/ckUEZ9QQQQeQa+o4a4ilgqnLPWD3XbzX9anwHHnBMM1oc9OyrR2fdfyvy7dn6s/oMoryL4P/Gnwb8Z9AGq+G5/KvbdU+22Mh/fWsjDoeBvQ4O114PswKj12v2rD4iFWCqU3dPqfypjMFVw9WVGvFxkt0wooorY5T5/+NX7Ofgb40WbXF/GNL8QIgSDU4U3SKAR8ssYZRKvGAGOV/hZcnP5EfFr4JeO/g5qos/FVpmxuJHW0voiGguFTuMElGxzsfDexHNfvvWZrOjaV4h0q60TW7WO9sL2NopoZV3I6N1BH+SOo5r5bPeFKGMvOPuz79/Vfrv+R+h8I+IuLyy1Kfv0v5Xuv8L6em3pe5/N9RX6L/GH9hi8sVu/EHwjvPtNvGrSHSrknzgFGSsE3PmE9lcKf9tjxX57alpmpaLfzaXrFpNY3ts2yWCeNopY29GRwGU+xFfkeZ5RiMJLlrxt59H8z+k8i4lweZU/aYSd+62a9V+u3ZlGiiivMPeCiiigAooooAKKKKACrNlZ3Oo3kGn2aeZcXMixRrkDc7naoycAZJ7nFVq+o/2P/Az+MvjVpd5NEz2Xh1W1KVtqlQ8WBACW4B81lYYBb5TjGCy9eAwjr1oUY/aaR5ucZjHCYWrip7QTf+S+b0P11+F/gmH4cfD7QvBMLrKdKtljkkRQqyTNl5XAAHDSMxGeeeSTknvKKK/omlSjCChHZaH8R4nETq1JVajvKTbfq9WFFFeYfGXx/D8MvhprvjFpFS4tIClqGx811L8kIAIOfnIJGDwCTwDSr1o04SqT2SuysJhZ16sKNNXlJpL1eh+TH7XXj9fHXxm1KGzmaXT/AA+o02D5gU3xEmZlC8cylhnJJCjnGFHgXhTxRrPgrxHp3ivw9N9n1HTJlmhfGRleoYd1YZDDuCRWHNNNczSXFxI0ssrF3dyWZmY5JJPJJPU1FX884vHTq15Yi9m3f07fcf2xluU0sPg4YNK8Yx5fXTW/r1P6HPhv470r4meCdJ8baONkGpwh2iLbjDKp2yRE4GSjgrnAzjOOa7ivyY/Yk+McnhjxU/wu1mX/AIlfiGTfZljgQXoX7o9plAXr95VwPmOf1nr9x4fzZYzDRq/a2fr/AMHc/krjPhyWWY+eH+w9Y/4Xt92z9Aooor2j5Q/ND9uz4SRxPZ/F/RoMGZks9U29yFC28x/AeWT/ALgr82q/o48TeHdK8XeHtR8Ma3F51hqkElvMvQ7JFKkqecMOqnqCARzX4DfFD4fat8L/ABzqvgrWFJksJT5UnaaB/milGOPmQgkdjlTyCK/IuOMn9lW+tQXuy39f+D+dz+lvCbif6zhXgKr9+nt5x/8AtdvSxwFFFFfCH68FFFFABRRRQB9FfAr9o7xf8Fb4WcWdU8OXEm640+RsbSeskDf8s39f4W/iGcEfsB8Nfi34E+LOkjVfBuorcMgzNbSYS5gPpJFkkezDKnsTX8+ta2ia9rXhrU4dZ8P302nX1ucxzQO0cin2KkHB7joe9fWZFxZWwaVOfvQ7dV6f5fkfnPF/hzhczbrU3yVe62f+Jfrv6n9H1FflN8N/27/Fmixxad8SNLTXoFAX7XbFYLoD1ZMeXIfps9zX2j4Q/ap+BvjBEWHxHHpVw+Mw6kDaMpPYu/7o/g5r9OwHE2CxC92ok+z0f9eh+BZxwFmmCb9pRco94+8vw1XzSPoiis/TdX0rWIBdaRewX0J6PBIsq/mpIrQr3U01dHyEouLs1qFFNeRIkMkjBFUZJJwAPc15d4n+N/wj8HKx8QeLNPgdOsSTCeYY/wCmUO+T/wAdrOtiKdNc1SSS83Y3w2DrVpclGDk+yTf5HqdUNU1TTdE0+fVtYuorGytVLyzzOI441HUszEAD618EeP8A9vfwxp6SWnw40WXVbjoLm+/cW4PqI1JkcexMZr4B+I/xl+IvxWu/tHjLV5LmBG3R2sf7q1iP+zEvGf8AaOW9TXyWZ8bYWimqPvy8tvv/AMrn6RkHhTmGKalil7KHn8XyX+dvQ+zfj7+2k97HceEvg5K8MRJjn1cgq7DoRaqeVB/56MAf7oHDV+cskkk0jSysXdyWZmOSSeSST1JplFfleaZtXxlT2lZ+i6L0P6G4f4bwmWUfY4WNu76v1f8ASXQKKKK8090KKKKACiiigD2L4D/DGb4t/E3SvCbK39nhvtOoOuRss4SDJyOQXJEanszg9K/emys7bT7OCws08uC2jWKNck7UQBVGTknAHfmvlf8AZF+ECfDj4cW+v6nFt13xNGl1OGRQ0MDcwxBtocZQhnUnhiRgY5+sa/bOEMn+q4bnmvenq/Tov67n8o+JfE31/HunTf7unovN9X+nogooor6w/OQr8Y/2vvjI/wASPH7+GdKmD6D4Xllt4SowJrnhZ5CQSGAZdsZ/u5I+8c/oT+1D8ZB8Ivh5IdNkC69roltLABirx/JiS4XAOfJ3KRn+Ir2r8Pq/NeO84slg6b85fov1+4/dvCDhi7lmlZbaQ/8Abn+n3hX7ifsqfEiT4kfCDTri9OdR0Nv7MuT/AHzAimN/+BRsuT3YNX4d19lfsTfEV/CfxTPhO8uRFpviiLyNrfd+1xZaAj0LfMg9SwHpXzfB+ZfV8ZGLfuz0f6fj+Z934m5F9dyyc4r36fvL0W6+78Uj9iqKKK/bj+Tgr8sv2+fAgsPE+hfES0ULHqsBsbnahH7+3yyOzYwS8bbQCc4j474/U2vEf2i/Ag+Inwe8RaFGoa8hh+2Wp2F2E1qfNAUAE5dQ0fAzhjXh8R5f9Zwc6a3Wq9V/nt8z63gbOvqOZ0qzfut8r9Hp+Gj+R+DNFFFfgZ/Y4UUUUAFFFFABRRRQAUUVZs7K81G6isdPgkurmdgkcUSl3dj0CquSSfQU0r6ITaSuytXWeC/A3iv4ha5D4d8IadLqN7MR8qD5UX+9I5+VFHdmIFfYPwc/Yk8VeJ5ItZ+KLyeHtL4YWabTezg9m6rCOmdwZuo2r1H6d+C/A3hT4e6HD4d8IadFp1lCBwg+Z2/vyOfmdj3ZiTX2mS8F18RaeI9yP4v5dPn9x+V8VeKeEwd6ODtUqf8Akq+fX0X3o+Y/gL+yL4X+Gq23ibxoI9c8Trh1B+a0tDjGI0IHmOM/fccHG1VIyfsiiiv1bAZfRw1NU6MbL+tz+dc4zrE4+s6+KnzS/BeSXRBRRRXaeUFZms6zpXh7SrrW9buo7Kwso2lmmlbaiIvUk/5J6DmoPEPiLQ/Cmj3Ov+I72LT9Ps0LyzSttUADOB3JPZQCSeACa/G39pH9pHVfjHqraHobSWXhKykzDCfle6dek0w/9ATovU/N08HPs+pYGnd6yey/rofY8H8HYjNq/LHSmvil28l3f/Dso/tLftAXXxq8SRWulCS28MaQzizhbhpnPDXEi/3iOEBzsXOOWbPzLRRX4fjcZUxFWVaq7tn9Z5XllHB0I4bDxtGO39d31CiiiuU9AKKKKAP/0/yHooooAKKKKACiiigDr/A3jrxR8OPEdt4q8I3rWV/bZGRykiN96ORTwyN3B9iMEAj9l/gV+0n4O+NNsumxg6X4kgiDz2MpGHwBve3bJ3oD2OHHcYwx/Dmr2m6nqWi38OqaPdzWN7bNvingkaKWNvVXQhlPuDX0ORcRVsDKy1g91/l2Z8XxfwThs2p3l7tRbS/R91+XTz/pGor87/gN+2pY6mLXwl8X3SyulTamsE4imYH5ROiqBGcfxg7SeoXqf0LhmhuYY7i3kWWKVQ6OhDKysMggjggjoa/Zcszahi6ftKMr911Xqfy5n3DmLy2t7HFQt2fR+af9NdUS0UUV6R4QV5d8T/g54C+LmlnTvGFgHmVCkN5DtS7twSG/dyFWxyOQQVPcV6jRWVehCpFwqK6fRnRhMXVoVFVoycZLZrRn48fFX9ir4j+CvO1TwWf+Es0pMttgTZfRr6GDJ8zHABiLMeuxRXxvNDNbTSW9xG0UsTFHRwVZWU4IIPIIPUV/SfXjvxO+A/wy+LcLN4s0pRqG3amoW2IbxMDA/eAEOAOiyK6jsM1+f5twFCV54SVn2e3ye/33P2fhzxhqwtTzKHMv5o6P5rZ/K3oz8DaK+7vid+wv408OQtqfw5vl8S2qLl7WQLb3i4HOzJ8uQcE9VboArHmvi3xF4Z8Q+EdVl0PxPp0+l38P3obiNo3wejAMOVOOGGQRyCRX57j8pxGFdq8GvPp9+x+1ZPxHgcfHmwlVS8uq9U9TDooorzj2wooooAK/Xn9hr4ff8I38NLvxpewNHfeKJ90Zb/nztspFheo3OZGz/ENp6AE/kzouk3mv6xYaFpy77vUZ4raFcE5kmcIowoJ6kdAT6Cv6IfCfhyw8H+GNK8LaYqpa6VbRWybV2giJQu7GScsRk5JJJJJJ5r73gHAc+IliHtFaer/4Fz8d8Y849lgqeDi9aju/SP8AwbfcdBRRRX62fzaFfmn+3z8RX36F8L9OuRswdRv0U8k8pbKxH/bRip/2Gx0J/SyvwE+OXjl/iL8VvEXilZWltZrlorXLKwFtB+7i27flAKru4yMknLHLH4zjjH+ywnsovWbt8lq/0XzP1PwkyZYjMniJL3aav83ov1fqjyaiiivxo/qEs2V5dadeQahYytBc2siyxSIcMjoQysD2IIyK/eT4DfFi1+MXw7sfE4Cx6lD/AKNqES8BLqNRvKjJwj5DrycA4JyDX4JV9S/sofGV/hX8QY9M1NwNB8SPFa3ZY4EMmSIp/T5SxDf7JJ7Cvq+Ec5+q4nlm/clo/Xo/66H534k8L/2hgXUpK9SnqvNdV+q80ftfRRRX7afyeFfGX7Zfwb/4T7wOPHGjR51vwtG8jgdZ7HlpUwBktGfnXnpvGCWGPs2iuLMcDDE0ZUKmz/q56uSZvVwGKhi6O8X966r5rQ/mror6a/am+DLfCX4hyy6Tb+X4c1zdc2JUHZEc/vbfJ6GNuVHPyMvOc4+Za/n7G4SeHqyo1Fqj+z8qzKljMPDE0XeMlf8A4HqtmFFFFcp6AUUUUAFFFFABRRRQBLDPNbyCa3kaJ16MpKkfiK6CPxn4wiXy4tdv0X0F1KB+W6uaoq41JLZmc6MJfEkzQvdW1XUjnUbya6I/56yM/wD6ETWfRRUuTerKjFJWSCiiikUFFFFABRRRQAUUUUAFfW37Ifwbm+JPxBi8T6nGraB4WmiuJw+f39x8zQRLxhgHUNIDxtGD94V8uaNo2q+IdVtdD0O1kvb+9kWKGGIbnd26AD/IA5PFfvl8H/hjpHwj8B6f4Q0tVMqKst7Muf8ASLx0USy88gEqAo7KAO1fXcIZL9axHtJr3IavzfRf5/8ABPzbxM4p/s/BexpP95Uul5Lq/wBF569D0+iiiv2o/lQKimmhtoZLi4kWKKJS7u5CqqqMkkngADqalr4i/bU+Mg8GeDf+Fb6PIBq3iiBhOVYh4LEttc4xg+fho+v3d/fFcOZ4+GFoSrz2X4voj18hyarj8XTwlLeT+5dX8kfAn7R/xbPxg+JV1rdkXXRrBBaafG+MiJCS0hAJGZHLNnrt2qc7a8Door+fcXip1qkqtR6t3P7Qy7AUsLQhh6KtGKsgrT0XV7/w/rFhr2lyeVe6bPFcwPjO2WFw6HHswBrMorCMmndHXOCknGS0Z/RV4H8V2Hjjwfo/i7TXV4NVto5xt6KzD50+qNlSOxBrqq+CP2DviD/a/gvU/h3ezqZ9BmNxaxnhvstyxZ8eoWUkn03j2r73r+hcnx6xOGhW7rX16/ifxXxPk7wGPq4V7Reno9V+AUUUV6R4J+Dv7R/gQfDz4x+IdFgUJZ3M5vrUKhRVguv3gRRjGIySmRkfL65rw2v1N/b68EG/8M6B4/tIC0mlTPZ3LqoP7m4w0Zds5AWRSF4xmQ+2fyyr8E4ky/6tjJ01s9V6P/LY/sbgbOfr2V0azfvJcr9Vp+O/zCiiivCPrgoore8PeFvE3i29/s3wtpV1q90BkxWkLzMF6biEBwPc8VUIOTtFXZFSpGEXKbsl3MGpYYZrmaO3t42lllYIiICzMzHAAA5JJ6Cvuv4dfsJeOtbe2v8A4hahBoFi43Pbwnz73/dOB5SZHfe+O61+hfw5+CHwy+FkMf8AwiOiwx3qKVN9MBLeNuGGzMw3KG7qm1favrsr4Lxdf3qvuR89/u/zsfmuf+KmXYS8KD9rPy2+cv8AK5+X3wq/Y4+Jvj7ydS8Rp/wiukPhvMukJupF/wBi34YfWQp6jNfpj8KfgF8OPhBbA+GtPE+pkESajdBZLtsjBCvgbFPdUAB75PNe00V+j5TwzhcJaUFeXd7/AC7H4bxHx7mGZXhUlyw/ljovn1fz08gooor6E+KCiiigArzn4n/FLwj8JPDUviXxZc+WnK28CczXMoGRHGvcnuThV6sQK8I+On7W/hD4Ypc6B4UMXiDxOg2+Wp3Wlsx7zOhG4jvGhz2JWvyU8aeOfFfxC1ybxF4v1GXUb2Yn5nPyov8AdjQfKijsqgCvi8/4vpYa9Kh70/wXr5+X3n6nwb4Z4jHOOIxd4Uv/ACaXp2Xm/kejfG/48eLPjXrn2nVGNlo1q5Nnp8bExxDkB37PKQcF8DuFAHFeG0UV+RYnE1K03Uqu7Z/SuAwFHC0o0MPFRitkgooorA7AooooAKKKKAP/1PyHooooAKKKKACiiigAooooAK+jvgp+0x47+Ds8WnpIdY8OlwZdPnY/IO5gc5MR9gCp7rnmvnGiunCYyrQmqlGVmjhzLLMPi6ToYmClF9H/AFo/NH77/Cr43/D74wad9p8KX+LyJVNxZTjy7iFmBOCp4ccH5kLL754r12v5udN1PUtFv4dU0e7msb22bfFPBI0UsbequhDKfcGvvz4N/tx6po0MehfF2CbV4A2E1O3CC4jTAAEsQCLIB1Lhg+Ooc1+n5NxzTqWp4tcr79P+B+XofgHFHhHXo3rZa+eP8r+JenR/g/U/UqiuY8J+NPCnjrS49a8I6pDqlnIMh4myRyV+ZThl5UjDAdDXT199CpGSUou6Z+OVaM6cnCommt09GFFFFUZhXK+LPA/g/wAd2Cab4x0e21e3jbei3EYcxtxyjfeUnGCVIyODxXVUVE6cZJxkro0o1p05KdNtNdVoz4G+IP7BngvVg138OtVn0K4L5NvdZurbaT91GOJUx6s0mcAccmviT4gfsw/GX4dj7RqWhvqdllh9q03ddRjaTyyqBIgIwQXRRyBnOQP3Uor5TMOC8HWu4Lkflt93+Vj9GyXxTzTC2jVkqkf72/8A4EtfvufzV0V/QL4w+C3wq8eM8vivwxZXs8md04j8m4O4ljmaIpJ1JP3upJ718j+NP2A/C96HuPAXiC40yUlSIL5VuIup3AOgR14wRndyCO+V+LxvAmLp60mpr7n+P+Z+p5V4vZbWtHEJ0356r71r+B82fsV+CP8AhKvjJBrVwm608NQSXjfPtzM37qEYHJ5YtjgfLyf4W/Zqvlf9lj4Ga78E9B16DxRJbTapqt2h32jtJGbeBMR/M6Ic7nk4K8DHrgfVFfe8KZbLDYNRmrSbbf8AXofjviNnsMfmcp0pXhFKMX36v8Wwooor6U+EPAf2nPH3/CvPgzr2pwMovdRj/s61DNtPm3YKMy/7SR75APVeeM1+FNfoT+3541W98S+HfANs2V0yB7644GDJcnZGueuVRCccDDjr2/PavxbjXH+2xrgtoafPd/5fI/qnwpyf6tlcasl71R83y2X4a/MKKKK+QP0sKKKKAP2Q/Y7+M0fxC8CJ4O1m4aTxB4ajEbmQ5ae0ziKTJ6leEbvwpP3q+xK/nx+FPxI1n4UeONP8Z6KdzWzbJ4T92e3fAkjP1HIPZgD2r999A13SvE+iWPiLRJ1ubDUYUnhkU5DI4yPoR0I6g8Hmv2ng/OvrOH9lN+/DT1XR/o/+Cfyv4ncLfUMb9YpL93Uu/SXVfqv+Aa9FFFfXn5meO/HT4UWHxh+Hl94Wm2x38f8ApFhOf+WV1GDt/wCAuCUbOeGJAyAR+DuraTqWhapd6LrFu9pfWMrwzwyDDRyIcMpHsRX9Ilfm1+3D8E98cfxj8NWqgpth1hU4JBwsNxjvjiNz15Q4wGI+B43yP2tP63TXvR381/wPy9D9k8J+Lfq9b+zq79yb93yl29Jfn6s/NCiiivyU/pAKKKKACiiigAooooAKKKKACiiigAooooAKKKKACiiigAoor1v4J/CjUvjH4+svCNo729oQ017dKu4W9vGMlvTLHCLn+JhnjNbYehOrONOmrt6I5sZjKeHpSr1naMVdvyR9n/sP/BP73xl8RQ/89bbSoZE/3Q90pP8AwKNf+Bn+6a/SqszRtG0rw9pVromiWsdlYWUaxQwxLtREXoAP8k9TzWnX79k2VwweHjRj833fU/jXijiCpmeMniqmz0S7R6L/AD8wooor1D54wfFHiXSfB3h3UfFOuyGGw0uF55mUbm2oM4UDqT0A7mv5/wD4ieO9a+JXjHUvGWuuftGoSllj3s6wxZ+SJCxJCoOB+dfaP7cXxkTWdXh+EehzE22kSrcakwHD3JTMUYYHkRq5LDH38d14/Pivx/jbOvb1vq1N+7Dfzf8AwNvvP6a8KeFvqmF+vVl79RaeUen37+lgooor4c/WgooooA+hP2XPHT+AvjToV28hjs9Wf+zbnC790d0QEGBzxKI2JHp0PSv3Qr+a1HeN1kjYo6EEEHBBHQg1/QV8IPG0PxE+Gvh/xejo0t9ap54RiwS4jGyZctzw4PX8z1P6h4fY+8amGfTVfk/0+8/n/wAaMntOjjorf3X8tV+v3HpFFFFfpB+Fnm/xf8Ew/ET4a+IPCDojS31q/kF1LBLiMb4WwvPDgdPyPQ/z6ujxu0cilHQkEEYII6giv6Uq+QH/AGLPhVqHjTVvF/iGe91GPUruW6FiJfJgTzjuZWZP3rfOSQQ64GAQcZPxPFnDlXGTpzoWutHft0/X7z9Y8OOOMPldKtSxbfK7NWV9dn96tv2PxsRHkdY41Lu5AAAyST0AFfSvgT9kr40+OQlwdJGhWbBGE2pMYMqx/hjAaQ4HPKge+a/YXwn8NPh/4GVR4R8PWWluq7fMhhUTEEAEGUguchRnLHPU813FefgPD+C1xNS/ktPx/wCGPYzfxnqyXLgaKj5y1f3LT8WfC3gT9hD4e6FJFe+NtUufEk8bbvJQC0tSP7rKpaVsHuJFB7rX2X4e8K+GfCVl/ZvhbSbXSLUnJjtIUhVm6biEAyfc81vUV9rgcpw2GVqEEvz+/c/Ks34kx2Pd8XVcvLZfctPwCiiivRPECiiigAornvFHivw54K0abxD4r1CHTNOt8b5pmwMnooHVmPZVBJ7Cvz2+Kv7eH+u0n4R6d6r/AGlfJ+sUGfxBkP1SvKzPOsNhFetKz7dfuPosh4Vx2ZSthad11b0ivn+iu/I+6/iD8UPAvwv0ltX8a6rFYIR+7i+/PMemIoly7c9SBgdWIGTX5YfGb9sXx18QjPong7f4Z0BwyERt/plwrDB82UH5Af7seOpDMwxj5V8ReJvEPi7VZdc8T6jPql/N96a4kaR8DooLHhRnhRgAcAAVh1+W51xjXxN4Uvch+L9X+i/E/oXhXwxweAtWxH7yp5/CvRfq/kkFFFFfHH6aFFFFABRRRQAUUUUAFFFFAH//1fyHooooAKKKKACiiigAooooAKKKKACiiigDpfC3jLxV4J1FdW8J6pPpd2ufngcrnKsvI6HhiBkHGeK/QX4Xft4fc034sad6/wCn2S/77fPDn/cQbT6k1+atFetlmd4nCO9GWnbp9x87n3CmBzKNsVTu+jWkl8/0eh/RV4T8ceD/AB3YPqXg7WLbV7eNtjtbyBzG3PDr95ScZAYDI5HFdVX84/h3xN4h8I6rFrnhjUZ9Lv4fuzW8jRvg9VJU8qccqcgjggivtL4Y/t0eNPDkK6Z8RrFfEtqi4S6jK294uBxvwPLkHAHRW6ksx4r9EyzjyhUtHEx5X3Wq/wA1+J+IZ94P4ujeeBn7SPZ6S/yf4eh+s1FeJfDr9oj4S/E1LaLQNcit9RuTtWwvSLe739dioxxIcf8APNnHvwa9tr7fD4mnVjz0pJryPyfG4CvhpuliIOMuzVgooorc5AooooAKKKKACiiigD8oP2h/2dPjv4w+JfiDxzY6MmrWN7OfI+z3MRkS2hVY4QY3MbZKAEqqtg5yT95vjbxJ4D8beD5Xi8VaDfaSUOCbm3kiU8lQVZgFYEg4IJBxwa/ooprokqNHIodHBBBGQQeoIr4XMOBaNacqkajTbvrZ7/cfruS+LuKw1KFCpRjKMUkrXi7LTzX4H81tFf0Fa58GvhP4jy2teENLuJGxmT7JEkuF6DzEUPj2zivGtd/Yt+A2sBvsemXWju4PzWl3IcEnOQJzMo9hjHtXztfw/wAVH+HOL+9fp+p9vg/GbL56VqUo+lmvzT/A/Fqiv1E13/gnz4emLN4a8X3VmMkqt3bJc5GOAWjaHv1O38K8i1j9gf4p2iPLo+s6VqAUZCM80MjdOADEy+vVxXjV+Eswp70r+jT/AFPp8J4kZNW2rpPzTX5q34nwxX6L/sO/GiHTrmX4Pa/LtjvJHuNLkdgFWUjMkHP9/G9P9rcOrCvBNY/Y9+P2ko8qeHkv40GS1tdQOe3RGdXPXoFPSvObz4R/Gbwdew6hceE9XsprN0mjuI7SV1R0+dWEiKy5XGeuRipy6OMwFeNd0pK2+j1XVGmdzyzOMHPCKvB32akm01s9/wCkfv8AUV438C/ikfit4EttZv7c2Ot2Z+zalasrRmO5QcsqsAQkg+ZeuOUySrV7JX7jhsRCrTjUg9GfyVjsFUw1aVCqrSi7MKo6npthrOm3ej6pCtzZX0MkE8T/AHZIpVKup9mUkGr1FatJqzOaMmndbn4I/Hf4R6h8G/H134bm3S6dPm40+4IOJbdzwCf76fdf3GehFeM1+7f7RHwbtfjL4Bn0mFVXW9P3XGmysdoE2OY2P9yQDafQ4btX4W3tndadeT6ffRNBc2sjRSxuMMjoSrKR2IIwa/DuKMkeDxHur3Jar/L5fkf1v4f8WLNMGvaP97DSXn2l8/zuVqKKK+ZPvAooooAKKKKACiiigAooooAKKKKACiiigAooooAlhhmuZo7e3jaWWVgiIgLMzMcAADkknoK/bj9l34LJ8IvAEcmpxg+IddEd1elk2vACg2Wuf+mWTn/bLdsV8X/sWfBFvFfiQfFLxDD/AMSnQZh9iRwcT3qYYSA91h4P+/j+6RX6z1+pcD5Hyx+uVFq/h9O/zP588WuLeef9l0HotZ+vSPy3fnbsFFFFfox+HBXinx9+LNn8H/h3feId6nVblWttNiOCXunU7WKnqkf339hjqRXtdfkR8etP+OP7QHjwX2i+DdZXw7Ykw6VHc2b2wCOqmSVjIFA81lDZJwFCrnINeBxFmU8Ph37FNzlorK/z+X52PsuCMipY3GJ4mSjShrK7Sv2Wvf8AK58YanqV/rWpXesapM1ze300k88r/ekllYs7H3ZiSao19T6H+xp8etYw1xo8GlI2cNd3cQ6f7MRkYZ7ZH6YNes6N/wAE/fG87f8AFQ+KdOsl45tYpro9eeHEHbn68e9fkVLhzH1XdUn89Pzsf0riON8nw6tLEx07O/8A6Tc/P+iv1f0b9gH4d24U694i1O+cHJ8gQ2ynkYBDJKenBw30xXrOhfsffAPRApk0B9SlUAb7u5mfODnJRWROe/y/1z69HgXHS+K0fV/5JnzeK8Xcpp/BzS9I2/No/ElEeR1jjUu7kAADJJPQAV6X4c+DHxY8WJHN4f8ACepXUMpAWb7O8cJz/wBNXCp+Of5iv3d0DwL4K8KbT4Y0Cw0plXaGtbaKFse7IoJ685PNdVXt4bw8jvWq/cv1f+R8ljvGuW2Gw/zk/wBEl+Z+M/hz9iP44a2kcupQWOho5GRd3IZwvXO23WX8iQc9cc4/Sj4AfCfV/g14FbwfqutLrWbmS5jKxGJYBKq7oly7bl3AvnC8seK9wor6nKuGcLg5+0pXctrt/wDDI/PuIuPsfmdL2GI5VC97Jfq7v8Qooor6E+KCiiigAooooAKKKKACivA/iP8AtLfCP4awSrqOtRanqMZZRY6ey3E+9eqvtbbHjvvZT6A9K+DfiP8At0fEDxA72fw+tIvDNmRjznC3N23qcuDGmemAhI6hs4x4GZcTYPC6Tnd9lq/8l82fZZHwFmePtKlT5Y/zS0X+b+SZ+o3ivxr4S8Daa2reL9Wt9JtQCQ08gUvtxkIv3nPI4UE+1fn78Vf28P8AXaT8I9O9V/tK+T9YoM/iDIfqlfnVrWuaz4k1KbWPEF9NqN9cHMk9xI0sjfVmJP0Hasqvz7NOOcRWTjQXIvvf39Pl95+08P8AhJgsM1Uxj9rLttH7uvz08jrPGHjvxj4/1Iat4z1e41e5UbUadyyxqeqxoMKgPUhQATz1rk6KK+KqVJTk5Sd2z9Vo0YU4qFOKSWyWiCiiioNAooooAKKKKACiiigAooooAKKKKAP/1vyHooooAKKKKACiiigAooooAKKKKACiiigAooooAKKKKACvdfAX7SPxi+Hc0P8AZOvzX1lEzE2d+TdW7BiCVw53qCRn5HU5zzyc+FUVvh8VVoy5qUmn5HHjcvoYmHs8RBSXZq5+pvgX9vnwxfJHa/EPQp9Lnw264sT58BI5X92xWRc8jgvzjsTt+xvBnxW+HHxCjDeDfENpqbnH7pJNk4yu8ZhfbIOAeq9iOoOP57KcjvG6yRsUdCCCDggjoQa+wwHHeKp6Vkpr7n960/A/M838IMur3lhpOm/vX3PX8T+lKivwi8G/tL/GzwPti0zxPcXlsowIL8/bIwoXaqr525kC4GAjKOPQkH9l/hH4q17xv8NvD/i7xNaQ2Wo6vbC4kigDiIK5JjZRJlgGTa2CT14LDBP32R8S0cc3CEWpJX1/zPxvizgPFZRGNSrOMoydk1v31T/4J6NRRRX0Z8OFFFFABRRRQAUUUUAFFFFABRRRQAUUUUAFFFFABXyP8Wv2QPBPxT8XzeMzqdxot3eIouUt442jlkXjzMEZDEYDc84z1zn64orjxuAo4mHs68bo9PKs5xWBqe2wk3GVradvmfm5cf8ABPO2ZwbXx48aY5D6aHOfqLlf5Vgzf8E+NfEZMHjO2eTsGs3UH6kSN/Kv1BorxJcHZc/+Xf4y/wAz6yHifna/5f3/AO3Y/wCR+VNx/wAE/fHKoDa+KNNkfPIeOZBj6hW/lWPcfsCfFhXAtdc0SRMcl5blDn6C3b+dfrdRWMuCcvf2X97OqHivnK3mn/26j8en/YT+NSOyrc6Q4BIDC6lwfcZhB59xTf8AhhX41/8APfSf/AqT/wCM1+w9FZ/6i4Hz+83/AOIu5v8A3f8AwH/gn42XH7D3xyhcLHHps4IzuS7wPp86Kf0qH/hiP46/8+th/wCBa/4V+zNFQ+BMD3l9/wDwC14wZt2h/wCAv/M/Gy3/AGHvjlM5WSPTYABnc93kfT5EY/pVz/hhX41/899J/wDAqT/4zX7D0VS4FwP977/+AJ+L2bv+T/wH/gn4+Q/sI/GmWQI93o8Kn+JrmUgfXbAT+laKfsC/F4uok1rQlTIyRPdEgd8D7KM/mK/XKiqXA+A7P7zOXi3nD6xX/bv/AAT8pLf/AIJ//EBnIuvE2lxpjgos7nP0KL/Ot6H/AIJ7ay3l/aPGtumcb9li749cZlXOO3TPtX6e0VtHgvL1vBv5v/M5Z+KmdPaql/27H9Ufm9b/APBPSzXd9r8dSSZxt2acEx65zcNn9K6Gx/4J++CY48an4p1GeT1hihhHfswk9u//ANb9AKK3hwll0dqX4v8AzOOp4kZ3LfEP7or8kc94U8L6N4K8Oaf4U8PQ/Z9O0yFYYUzk4HUse7Mclj3JJroaKK+hhBRSjFaI+Kq1ZTk5zd29WwoooqiAooooAKKKKACiiigAooooAKKKKACiiigAooooAK8m8a/HT4S/D5WHijxNaQTrj/R4n+0XHzDK5hhDuoI6FgB71+ff7cuveNtI+JFro8Ou3sehahp0FwlmlwyW4kWR0bMabQTlA2W3HJ4PYfBFfnudcbTw9WdClT1Wl3/kv8z9q4V8KKeMw1PF4iv7sle0Vr97v+R+mfjv9v2zWOWz+G3hyR5GXCXepsECt6i3iLbh3BMq+618V/EH48fFT4mPcR+J9enNjcEZsoGMNoAucDyl4bGerFie5OBXkFFfB5hxDjMTpVqO3ZaL8P1P2HJuC8swFnh6K5u71f3vb5WCiiivFPqQooooAKKKKACiiigAooooAKKKKACiiigAooooAKKKKAP/1/yHooooAKKKKACiiigAooooAKKKKACiiigAooooAKKKKACiiigAooooAuafYz6nf22m2oBmu5UhQE4G6Rgoyfqa/oz0LSLbQNE0/QbIAW+m28VtGAoUBIUCLhRwOB0HAr8NP2afDDeLPjj4S04xeZFbXYvZcg7Qlmpn+bAPBZAvPBJAJGa/eCv1Pw9w1qdWt3aX3a/qfz141Y+9fD4ZdE5P5uy/JhRRRX6KfiBn6vqdtoulXus3ufs9hDJcSYxnZEpdsZIHQdyB71+b3h7/AIKDXIPl+K/CCOMf6yyuSuCB/wA85VbOT/t8e9fVn7VHiYeF/gR4puFYibUIFsIwCRu+1uInGQDjEZcnOM4xkEivwwr884w4gxGFrwp4eVtLvZ7vz9D9s8MuDMHmGErV8bT5vestWrWV3azXdfcfs54b/bY+BuuBF1O8vNBkYci8tWdd2QMbrfzhznIJwMDnHSvd9A+LHwx8UqreH/FWmXrN/wAs0uovNHzbRmMsHGT0yBnt2r+eyivGw3H+JjpUgpfev6+4+ox3g1gJ60Kso+tpL8k/xP6VKK/nQ0Txp4x8M4/4RvXb/SducfZLqWDG7r/q2HXvXsmhftXfHzQSoh8VS3kSkEpdww3G7Axgu6Fx74YZr26HiDQf8Wm16Wf+R8njPBbFx/gV4y9U4/lzH7l0V+Smi/t8fFCzj8rWtF0vUdqgB0WaByfVsSMp+gVa9U0n/goPo8m1dd8GT2+MbmtrxJs9MkK8ceO/GT259PYo8ZZfPedvVP8AyZ8zivC7Oqe1JS9JL9WmfovRXxppH7dHwU1BAb+PU9LfKgia2Vxz1IMMkmQPcA+1epaX+098BNYx9k8ZWkef+fhZbb1/57onp/L1FerRzzB1Phqx+9Hz2J4SzSj/ABMNP/wFtfetD3miuH0/4m/DbVt39l+LNJvNuc+Tf28mMYzna59R+ddfaXtnfwi4sZ47mI9HjYOp4z1XI6GvQhWhL4WmeLVw1Sn/ABIteqsWaKKK0MAooooAKKKKACiiigAooooAKKKKACiiigAooooAKKKKACiiigAooooAKKKrXd7Z2EJuL6eO2iHV5GCKOM9WwOgpN2Gk27Is0V5vqfxj+E2jP5Wp+MtIgkBwUN9AXHXqockcgjOOvFec6l+1r+z9pgO/xUlw4JG2C2uZc4ODgrFt/HPPbNcVXM8ND46kV6tHq4fIMdV/hUJy9It/ofR1FfFOq/t4fByyyun2Orai3YpbxRp26mSZW/8AHTyPxrzDWv8AgoRCN6eHfBjN8zbZLq8A+X+EmOOM8nqRv46ZPWvNrcVZfDeqvld/kj3sN4eZzV+HDterS/Nn6S0V+PGt/t0fGjU8rpcWmaQvGDDbtI/HXJmd1Of93p+Z8m1n9pj48a8pW+8Z3sQOf+PXy7M8jHW3SP8A/Xz1ryK/HuDj8EZP5JfqfS4XwdzOetScI/Nt/grfifu3NPDbxma4kWKNerMQoGeOSa8i8Q/tBfBXwwpOreMtO3DGUt5ftbjIJGUt/MYcD09PUZ/CTVfEGva9J52ualc6jJx81zM8x44HLk9M1kV4uI8Q5v8AhUkvV3/K35n1OC8FKS1xOIb/AMKS/F3/ACP178R/t3fCPSxJHoNlqWtSgHayxLBCx25GWlYOOeD+7Pc88Z8L8R/8FAvFlykkfhTwtZ6eSSFku5pLohfXaghGe/Uge/f8+KK8HE8ZY+ptPl9Ev+Cz7DA+F+TUbN0nJ/3m3+CsvwP1N/ZQ/aI8ffFL4j63oHjq+S4imsTdWkUUKRRwNDKqsi7RuO5ZM5dmPy9elfoPX4RfszeJ08JfHLwlqMxAhuLr7E+emLxTACT2wzg59ueM1+7tfoHBeYzxGFftZXkm9/vPxnxUySlg8wj7CCjCUU7JWV1dP8k/mFFFFfXn5mfn1/wUB8OfavCHhfxYiZbT72Wzchedt1HvGTnoDDxweT1HQ/lhX7qftSeGx4m+BHiu2CBpbK3F8hOfl+yOszkYB/5Zqw6d+o6j8K6/GuOsNyY3n/mSf3afof1F4RY/2uVeyf2JNfJ+9+rCiiivjD9SCiiigAooooAKKKKACiiigAooooAKKKKACiiigAooooAKKKKAP//Q/IeiiigAooooAKKKKACiiigAooooAKKKKACiiigAooooAKKKKACiiigD70/YD8OJffEHxB4mljLjSdPWFDj5Vku5Bg59dsTAexNfrBXwN+wBoQtfAPiXxGVCvqGpJbZwQxW1hVhz0IzMwGO+a++a/cuD8P7PL6fnd/j/AJH8k+JuM9tnNbtG0V8kr/jcKKKK+mPgT8+v+CgPiL7N4Q8L+FUlw2oXst26DqVtY9gJPpmbgdyM9q/LCvtb9u3X31P4v2eiq37rR9MhQr8p/ezu8rHjnlCgwfTI618U1+FcWYn2mPqPtp9y/wAz+vPDjA+wyagusk5fe7r8LBRRRXzh9wFFFFABRRRQAUUUUAFT291c2jmS1leFyMEoxU49MioKKExNX3O4sPid8SdJ3f2X4s1az3Zz5N/cR5zjrtcegr7y/ZI/aY1XUtcb4cfErU59RudVmDabe3D+YwlK4Nu7HnDYBj/2sr3FfmrUsM01tNHcW8jRSxMHR0JVlZTkEEcgg9DXr5ZnVfC1Y1IybS6X0aPnM/4WwmPw06E4JN7NJXT6P+t0f0n0V8r/ALLfx6h+L3hMaPrk+fFeixgXYIA+0RZ2pcLgBeeA4HRucAMK+qK/dsDjaeIpRrUndM/kDNsqrYLETw2IVpRf9NeT3QUUUV1nnHzn+0F8aPE/wSsNN8Q2XhqPXdFuZPJuJPtDQvBL1UNiNwFcZCt2YYI5GfmaH/gobC0gFx4CZI+5XUwxH0Btl/nX6Ha/oWleJ9EvvDutwLc2GowvBNGwyGRxg/QjqD1B5HNfhf8AHj4L6t8FPGbaHcyG60u9DTafcnrLCGxtfAAEicBwBjoRwRXwfFeLzDCNV8PU/dvdWWj+7Zn7D4dZdkuYxeExlH98tnzSXMvk0rr8te59of8ADwnR/wDoSZ//AAOT/wCNVeh/4KC+FGjBuPCN6kncLcRsB9CQv8q/LSivjFxnmP8Az8/Bf5H6jLwtyR/8uX/4FL/M/VD/AIeB+Dv+hTv/APv9FR/w8D8Hf9Cnf/8Af6Kvyvoqv9dcw/nX3In/AIhXkv8Az6f/AIFL/M/VD/h4H4O/6FO//wC/0VV7j/goL4XVAbXwheSPnkPcxoMfUK38q/Leih8aZh/OvuX+QLwsyX/n0/8AwKX+Z+nv/DwnR/8AoSZ//A5P/jVQXH/BQuwVAbXwNLI+eQ+oKgx9RA38q/MmiofGWY/8/PwX+RovC/JP+fH/AJNL/M/S7TP28fE/iPWbbRfDfw9W6u76RYoLdb5pJHduwIgX69AAOvTNfo1p4vxZQf2oYjebB5vkhhHv77NxJwO2eT7dK+J/2OfgF/wg+hx/E3xPCya9rUBW2gkXBtLR2yCRn/WSgKx7quF4JcV9yV+ncOLGSo+1xk7uWyslZfJbv8D8C45nlkMV9Wyymoxho3dvmfzb0X4+lgooor6I+ICvLvjD8UtF+EXga+8V6rIn2hUaOxgbObm7Kkxx4HOCRlj2UE16Re3trp1nPqF9KsFtaxtLLI5wqIg3MxPYADJr8Of2jvjbefGbxxLdWUsq+G9NJj023kAUhSFEkrAfxSMM88hcL2NfOcTZ4sFQvH45aL/P5fmfc8B8JSzXF2n/AAo6yf5L1f5XPPfE/wAWPiN4v1K91LW/EV9Ib6VpXhW5lWBd2flSINtVQDtAA4HFcHcXVzduJLqV5nAwC7Fjj0yagor8Pq15zd5ttn9aUMLSpRUaUUkuysFFFFZG4UUUUAFFFFABRRRQAUUUUAXNPvrnS7+21Kycx3FpKk0bAkFXjYMpBBBGCOxzX9GehatBr+iafrtqCsOo28VygPULMgcA/ga/nAr93f2ZNdHiD4EeD7zcGa3s/sjYJOPsjtAAc8jhBx+XGK/RPD3EWq1aXdJ/c/8Agn4l41YK+Gw+I7ScfvV//bT3eiiiv1Q/ngyPEGkx69oOpaHN/q9RtprZuccTIUPI6da/nHmhkt5pLeYbZImKsOuCpwRxX9J9fz+fG3Qj4b+L3jDR9pRItUunjBAH7uVzJHwOPuMMfyHSvzfxDoXhSq9m19//AAx+6eCmMtUxOHfVRf3XT/NHl1FFFfl5/QAUUUUAFFFFABRRRQAUUUUAFFFFABRRRQAUUUUAFFFFABRRRQB//9H8h6KKKACiiigAooooAKKKKACiiigAooooAKKKKACiiigAooooAKKKKAP2/wD2RdD/ALE+AXhveMS3/wBou35yP3s77Men7sLkeua+la4X4X6Ymi/DXwppMeMWelWMWR3KQICeg6nknAzXdV/ReW0fZ4enT7JL8D+IM9xXt8bXrfzSk/vbCiiop5o7eGS4mO2OJSzHrgKMk8V2nlpH4QftJ63/AMJB8dfGl/nd5V+1p02/8eSrbdPby+vfrXh9aetanNresX+s3AxLfzy3DjJOGlcueTyeT1rMr+b8ZX9rVnU7tv72f3NluE9hhqdBfZil9ysFFFFc52hRRRQAUUUUAFFFFABRRRQAUUUUAdn8PvHev/DXxdp/jHw3L5d3YSBihzsmjP34pAOqOvB7jqCCAR+8nw0+ImgfFPwbYeM/Dr5t7xSJImIMkEycSRSDsyn8xhh8pBP89FfSf7Nfx5ufgr4rddSD3HhvViqX0S5Zoyv3Z41yBuXPzD+JcjqFI+v4T4g+qVfZVX+7l+D7/wCf/APzTxH4M/tLD+3oL99Db+8u36r7up+4NFVrK9tdRs4NQsZVntrqNZYpEOVdHG5WB7gg5FWa/aE76n8rtNOzCvMvi38LfD/xd8GXfhTXoxvYGS0n/jtrkKQkin2zhh3UkV6bRWdajCpB05q6e5vhMVUoVY1qUrSi7pn86vjbwZr/AMPvFF/4Q8TQfZ9Q06TY4GSjg8q6EgZR1IZTjkHoDxXK1+237TH7P1r8Z/Di6hpAWHxTpEbfY5CcLOnLG2ckgAMeVY/db2LV+KV7Z3WnXk+n30TQXNrI0UsbjDI6EqykdiCMGvwviHIp4Gty7wez/T1R/XXBXF1LNsLz7VI/EvPuvJ/8ArUUUV4B9kFFFFABX3J+xz8Av+E41xPib4ohVtB0WcrbQSLkXd2i5BI/55wkqx7M2F5AcV4v8APgbrnxo8WQ2yxPD4esJY21K7+6FjzkxRtggyuOF4O37x4HP7i6No2leHtKtdE0S1jsrCyjWKGGJdqIi9AB/knqea+74O4d9vNYqsvcW3m/8l/XU/IPE7jdYSk8BhZfvJL3mvsp/q/wWvY06KKK/XT+agoor5j/AGnfjxB8GvCSWel4l8Sa4ksdkueIFUYe4f8A3Cw2A/eb2VscuNxlPD0pVqrskehlWWVsbiIYbDq8pP8Ap+i3Z82ftr/HfzGf4N+Fp2Xy2STVbiKTAb5SRacdRyGk9wF/vCvzaqWaaa5mkuLiRpZZWLu7kszMxySSeSSepqKvwTN80qYyu60/kuy7H9jcNcP0cswkcLS6bvu+r/rZBRRRXmHvBRRRQAUUUUAFFFFABRRRQAUUUUAFfr3+whrp1H4Q32jyMS+k6pMigkHEcyJIMDqPnL/49h+QlfpZ/wAE9tTcp430Z8lFNhcJ6Anzkfv3wvQduT0r6vgqty5hBd01+F/0PzrxVwyqZNUl/K4v8Uv1P0oooor9tP5QCvxc/bV0v+z/AI9and4x/adpZ3H12xCD1P8Azy9vp3P7R1+Un/BQDS3i+IHhnWioCXWltbhs8k287uRjtjzRz3z7V8dxzS5sA32af6fqfp/hHiOTN1H+aMl+T/Q+BqKKK/GD+pQooooAKKKKACiiigAooooAKKKKACiiigAooooAKKKKACiiigD/0vyHooooAKKKKACiiigAooooAKKKKACiiigAooooAKKKKACiiigAq9pljJqmpWmmQnEl3NHCv1kYKOpHr61Rr0P4RWKan8VvBmnyoXjuNZ09HAGfkNwm7jBHAznIx61rQp884x7tHPi63s6U6nZN/cj+gyCGO3hjt4RtjiUKo64CjAHNS0UV/SZ/CjYVwvxQ1NNF+GvivVpMYs9KvpcHuUgcgdR1PAGRmu6rwH9qPU/7I+AXjG7wx8y2jt/lOD/pM8cP5fPyO44rjzCryYepPsm/wPSyXD+1xlGl/NKK+9pH4U0UUV/OZ/cIUUUUAFFFFABRRRQAUUUUAFFFFABRRRQAUUUUAfoL+xx+0N/wj95B8JPGdzjTLyTbpc79IJ5DnyGYniORvuccOcdG+X9T6/mrr9fv2Rf2hH+I2jDwB4sm3eI9HhzFM20fbLVMAH3lj4DccjDZJ3Y/T+C+Ir2wdZ6/Zf6f5fd2PwDxT4I5XLNMKtPtr/27/P7+59rUUUV+kn4UFfB/7W/7NsPjCwuvif4Itj/wkFoge+towSb2FFxuRVBJmQAdPvKMfeAz94UVwZnltPFUXRqrR/g+6PZyHPK+XYmOJw71W66NdU/J/wDBP5q6K/Q79sH9nCHQmm+K/gKz2WErbtVtIVAWB2P/AB8IM8IxOHUDCn5uhO388a/B81yyrhKzo1fk+67n9gcPZ/QzLCxxVB6PddU+qf8AWq1Cu9+Gnw71/wCKfjKw8GeHUzcXjZklIJjghXmSWQ9lUfmcKPmIFcvoeh6t4l1iz0DQrV73UL+VYYIY/vO7nAHOAPckgAckgV+4P7PvwM0b4L+EYbYxxz+Ir+NX1G7AyWfr5UZPPlRngdNxG4gE4HpcN5DLG1tdILd/ovN/geFxzxjTynDe7rVl8K/V+S/F6d7d38Lfhn4d+Evg618HeG0JhhJkmmcDzLidwA8r47nAA9FAUcAV6HRRX7jRoxpwUIKyWx/JWJxNStUlVqyvKTu33YUUVn6tq2m6Fpl1rWsXCWljYxPNPNIcLHGgyzE+wFW2krsyjFyajFas5D4nfEbQfhV4Mv8Axp4hJaC0CrHChAknmc4SJASMknk+igseAa/CD4iePNc+JfjHUvGXiCQtc6hKWWPOVgiB/dwp0+VFwo7nqckkn1b9pH453Xxn8ZNLp0k0XhrTf3dhbudu4/xTuv8AfftnkLgdc5+c6/FuLOIPrdX2VN/u4/i+/wDkf1R4c8FrLcP7euv301r/AHV/L69/PToFFFFfIn6UFFFFABRRRQAUUUUAFFFFABRRRQAUUUUAFfcn7BGqfZvitrGmMGK3ukyEYPAaKaIjI+hOD2/Gvhuvq/8AYsuHh+PmlRqARPa3qNnsBCz8fior2uHanLjqL/vL8dD5bjeiqmUYmL/lb+7X9D9paKKK/fj+NAr85f8AgoRpiPpXgvWRgPDPe259SJVicducbD34z05r9Gq+Ef2/bTf8MPD99hf3OsJHk/e/eW8x49vk5/CvnuK4c2X1V5L8Gj7Xw6q8mdYd+bX3xaPyZooor8IP6/CiiigAooooAKKKKACiiigAooooAKKKKACiiigAooooAKKKKAP/0/yHooooAKKKKACiiigAooooAKKKKACiiigAooooAKKKKACiiigAr279m+2F38dPBcTIZAuoJJgZ/wCWYL549MZP054rxGvo79km3S5/aG8IxyEgB7x+PWOzmcfqOa9DKY82LpL+9H80eLxHU5MuxMu0Jf8ApLP3Gooor+iD+JQr5T/bRu/s3wC1eHLD7Vc2UfHQ4nWT5vb5PzxX1ZXxv+3PNJF8EURDhZtUtVb3AWRsfmBXj8QStgaz/uv8j6bgyHNm2FX9+P4O5+OdFFFfz+f2cFFFFABRRRQAUUUUAFFFFABRRRQAUUUUAFFFFABWno2s6r4e1W11zQ7qSyv7KRZYZojtdHXoQf8AII4PFZlFOMmndEzgpJxkrpn7pfs8/HTSvjT4RS4meODxHp6qmoWq/L83aaNSSfKft6HKnsT9BV/O54C8deIPhx4rsfF/hm4MF7YvnH8MsZ4eNx0KuOD+YwQCP3W+E/xV8M/F7wlb+KPDkoVyAl1alsy2s+MtG/TP+y2MMOR3A/Z+FeI1i4eyqv8AeL8V39e5/LXiJwM8tq/WcOr0ZP8A8Bfb07P5evptFFFfYH5kRTQw3MMlvcRrLFKpR0cBlZWGCCDwQR1Ffkp+0/8AstXngfUh4x+G9jNd6BqMwSW0hQyPZTysFRVUZYxSMcJwdrYU9Vr9cKK8fOclpY2l7Opo1s+qPpuFuKsTlWI9tR1T3j0a/wA10f6XPkz9mD9nWy+EugxeJfEcKTeLtTiDSsRn7FE4B+zoeRuH/LRh1PyglRlvrOiiu3A4GnhqSo0lZL+rnl5vm1fHYiWJxEryf4eS8kFFFFdZ5oV+UH7Xv7Rs/irU7z4V+C7kf2DZOEv7iM/8fk6HJjVv+eUbDB/vOCeVCk+v/tg/tGR+HtPm+FngW+xrF18up3MLc2sJHMCsOksmfmwflXI6sCv5V1+ZcZcSb4Og/wDE/wBP8/u7n734X8C25czxkf8AAn/6U/8A237+wUUUV+aH7yFFFFABRRRQAUUUUAFFFFABRRRQAUUUUAFFFFABX0Z+yXc/Zf2hPCMu3duku0xnH+stJkz+Gc18517h+zZ/yXbwZ/1/r/6C1ehlErYuk/70fzR43EcObLsTF9YS/wDSWfvJRRRX9EH8SBXxp+3TbGf4JRShA4ttVtZCTj5cpKmRn/exx6+ma+y6+Rf23P8AkhN3/wBf9n/6Ea8biFXwNb/Cz6jgmVs2w1v51+Z+MtFFFfgB/ZgUUUUAFFFFABRRRQAUUUUAFFFFABRRRQAUUUUAFFFFABRRRQB//9T8h6KKKACiiigAooooAKKKKACiiigAooooAKKKKACiiigAooooAK+lf2QP+TivCX/b/wD+kNxXzVX0n+yG6R/tEeEmkYKCb4ZJxy1lOAPxPAr08l/3yj/ij+aPB4q/5FeK/wCvc/8A0ln7g0UUV/Qp/FIV8Zft1/8AJFIP+wta/wDouavs2vjL9uv/AJIpB/2FrX/0XNXi8R/7jW9GfVcD/wDI3w3+JH48UUUV+An9lBRRRQAUUUUAFFFFABRRRQAUUUUAFFFFABRRRQAUUUUAFexfBH4w638GPGkHiPT91xYT4iv7TcQs8GeeMgeYnJjY9D7Eg+O0Vth8ROlNVKbs1scuNwVLE0pUK0bxkrNH9FXgvxp4c+IPhy08VeFbtbzT7xcqw4ZGH3kdequp4IPT6Yrqq/Cn9n/46a/8FvFKz26Sahomossd7YKTlxkASRDOBMvbPDD5TjII/crT72HU7C21G3V1iuoklQSKUcK6hgGVsFTg8g8g8V+48O59HHUr7TW6/Vep/JfG/B1TKcQop3py+F/o/Nfj+CuUUUV9CfEhRRRQAV8p/tL/ALR2n/B/Rn0Hw9LHc+L7+P8AcRkB1tEb/ltKOmcf6tT1PJG0HPo3x5+K6/B34eXniqOzkvbx2FtaoqsY1nkB2tK4BCouCefvEBRycj8Jtc1zVvEusXmv67dPe6hfytNPNJ953c5J4wB7AAADgACvieLeJHhY/V6Pxvr2X+Z+r+G3AqzCf1zFL91F6L+Z/wCS699u5Rurq5vbmW9vZXuLi4dpJJJGLu7ucszMeSSTkk8k1BRRX462f04lbRBRRRQMKKKKACiiigAooooAKKKKACiiigAooooAKKKKACvcP2bP+S7eDP8Ar/X/ANBavD6+if2TrNL79oPwhC+MLLcy8jPMVrNIOPqvB7da9DKY3xVJf3o/mjxuI5qOX4iT6Ql/6Sz9y6KKK/og/iQK+Rf23P8AkhN3/wBf9n/6Ea+uq+Of25bxLb4IeS2M3ep2sS5OOQsknA78IePx7V4/ELtga3+Fn1HBSbzbC2/nX5n440UUV/P5/ZgUUUUAFFFFABRRRQAUUUUAFFFFABRRRQAUUUUAFFFFABRRRQB//9X8h6KKKACiiigAooooAKKKKACiiigAooooAKKKKACiiigAooooAK9y/Zpvhp/x38GTsQA98IuQT/rkaPt/vcfrxXhtekfBy+Om/FrwXfAkCLWbAtgAkqbhAwGeORkV2ZdPlxFOXaS/M8zOqXtMHWh3jJfgz+gyiiiv6MP4eCvlP9tG0+0/ALV5sMfstzZScdBmdY/m9vn/ADxX1ZXgn7UOlvq/wD8Y2iKGMdqlxgnHFtNHMT+ATIHfpXmZ1T5sHWj/AHX+R7/Ctb2eZ4ab6Tj+aPwmooor+ej+1QooooAKKKKACiiigAooooAKKKKACiiigAooooAKKKKACpYYZrmaO3t42lllYIiICzMzHAAA5JJ6CtDQ9D1jxLq1roWgWct/qF6/lwwQqXd268AegGSegAJPAr9ef2df2U9H+Fgh8W+MPK1TxUyAoMB4LEk5/dEj5pMYBkxxyF4yW9vJMirY2pyw0it30X/B8j5Tivi/C5TR56zvN/DFbv8AyXn+bOa/Zh/ZUtvA6WfxC+IkAm8RkeZa2b4aOxzyrsP4px+SdvmAI+66KK/bsty2lhaSpUVZfn5s/k7Pc9xOY4h4nEyu3t2S7Ly/phRRRXeeOFFFFAGZrOjaV4h0q60TW7WO9sL2NopoZV3I6N1BH+SOo5r8eP2iv2Wtd+E9xceKfC6San4QdsmTgy2JdsLHMOrJ0CygY7Ng43fs1UU0MNzDJb3EayxSqUdHAZWVhggg8EEdRXh53kNHHU+Wekls+3/A8j6zhPjDE5TW56WsH8UXs/8AJ+f33P5sKK+8P2mP2Tr/AMHz3Xjz4aWj3fh9yZLmxiVnlsupZ0UAloB1PdB1+UEj4Pr8SzLLa2FqulWVn+D80f1hkee4bMcOsRhpXT3XVPs10f8ASCiiiuA9gKKKKACiiigAooooAKKKKACiiigAooooAKKKKACvrH9iq28/49aZLu2/Z7S8fGM5zEUx7fezXydX3p+wDpCXHxE8Ra2wJNlpghX5cqDcTI2c9jiIgeoJr2+G6XPj6K87/dqfKcc4hU8oxMn/ACtffp+p+sFFFFfvp/GwV8H/ALf18I/hn4e03IzPq6y9Dn91byr16f8ALT/PNfeFfm5/wUI1hBbeC9ARwXd725kXuAoiRD075fv2r53iupy5fVfkvxaPt/Dmi551h12bf3RbPzOooor8JP69CiiigAooooAKKKKACiiigAooooAKKKKACiiigAooooAKKKKAP//W/IeiiigAooooAKKKKACiiigAooooAKKKKACiiigAooooAKKKKACrNldzWF5BfW52y20iyIeRhkOR0weoqtRTTsJpNWZ/SXZXcN/ZwX1ucxXMayIeOVcZHTI6GrNeO/s++IV8UfBXwbqwOW/s6K3c4Ay9pm3c4BI5aM/4DoPYq/pDDVlUpxqLqk/vP4Xx+FdCvUoPeLa+52CuV8daM3iPwR4h8PLy2qadd2o4J5nhZOg579ua6qitKkFKLi+phRquE1OO6dz+a10eN2jkUo6EggjBBHUEU2vVvjl4XPg34veLfD2wRxwahNJEoUKFhuD50QAGAP3br0GPSvKa/nDEUXTqSpy3Ta+4/ufB4mNejCtDaSTXzVwooorE6QooooAKKKKACiiigAooooAKKKKACiiigArv/hz8MvGPxV8QJ4c8G2RuZ8bpZWysECf35ZMEKOMDuTwATxXr/wAB/wBmHxd8Ypk1m9LaN4YjkAku5FxJOAQWW2Uj5jj+MjYD/eIK1+wHgL4d+EPhnoKeHPBmnpYWgIZyPmkmkwAZJHPLMQByfoMDAr7Hh/hKrirVa3u0/wAX6f5n5jxp4kYfLk8PhrTrfhH18/JfOx558D/gB4R+CujCOxRdQ124Ufa9RkTDuefkjBz5cYz0ByerE8Y95oor9fwuFp0aapUlZI/mbMMwrYqtKviJOUnu3/X4BRRRXQcQV5b8UPjJ4B+EGn21941vzC94+yC3iQyzy4IDMqD+FAcsxIHYZYqp5r46fHjwx8FPD7XN4yXuu3SH7Fp4bDyE5AkkxysQIOW7kYXnp+J3jbxx4m+IfiK58U+Lb176/uT1Y/LGmSVjjXoiLk4Ucd+pJr4/iTimODXsqWtT8F6/5f0/03gXw8qZm/rGJvGivvl6eXd/JeX9CujazpXiHSrXW9Euo72wvY1lhmibcjo3Qg/5I6HmtOvxC+AH7SniX4K3o026R9W8L3DlprIsA0TNjMsDH7rDuh+V+hwcMP2V8HeMvDXj7w/a+KPCd6l/p12DskXIIYfeR1OCrKeqkAivQyHiGljoaaTW6/Vd0eNxhwVicpq+971N/DL9H2f59DqKKKK+gPiwr89v2jP2O4dfkvvHnwrRbfUX3TXWlABY7hurPbkfckPdD8rE8FTw36E0V52Z5XRxdP2VZX/Neh7eQcQ4rLa6r4WVn1XRrs1/TXQ/mwmhmtppLe4jaKWJijo4KsrKcEEHkEHqKir9tvj1+zF4V+MsK6pYyR6F4jhzi8SEMtwuPuTqpUtz0fO5f9ocV+Pnjn4feMPhvrcug+MdMm0+4RmCM6ERTqpxvhfG2RPdfocHivxjPOHa+Cl72sOj/wA+x/U/CfG2EzWn7j5ai3i9/l3Xpt1scZRRRXz59kFFFFABRRRQAUUUUAFFFFABRRRQAUUUUAFfqt+wB4blsvBPibxVIhQarfRWyZyNy2cZbcARjG6dhkE8gg4xX5U1+7f7MnhX/hEPgd4VsHTZPd2326XPBLXjGYZ91RlX8Oea+04EwvPjfafypv79P1Z+V+L2P9llXsVvOSXyWv5pHvNFFFfsh/L4V+Rf7eeufb/ixpejRnMel6XFuGMESzyyO3PcbAn45r9dK/B39pTxIPFXxy8X6lG4eOG8NmhXO3bZqtvxknqYycjgkkjGa+J48xHLg1D+Zr8Nf8j9Y8HsF7TM5VekIv720vyueG0UUV+On9OBRRRQAUUUUAFFFFABRRRQAUUUUAFFFFABRRRQAUUUUAFFFFAH/9f8h6KKKACiiigAooooAKKKKACiiigAooooAKKKKACiiigAooooAKKKKAP1r/YK8Vf2p8NdX8Kyvul0K/3qP7sF4u5R/wB/EkNfdNfj1+w744Tw38WZvDF0SLfxPatAmFz/AKTb/vYyT1A2CQfUjPSv2Fr9w4PxftcBBdY6fdt+Fj+S/E3LHhs4qu2k7SXz3/FMKKKK+oPz8/Kb9vTwB/ZXjHSfiHZxyGHXIfs1y3VFuLYAJzngvH2wB8hIyc18CV+5/wC1D8On+I/we1jT7G2FxqumBb+yH8XmQHLquOpeLeoHckV+GFfivGmX+xxrmlpPX59f8/mf1X4WZz9ayuNKT96m+X5bx/DT5BRRRXyJ+khRRRQAUUUUAFFFFABRRRQAUUV9OfCH9lX4lfFCe2v7y0fQPD8hDPe3SFWdPWCE4aTPY8J/tdq6sJgquIn7OjFtnn5lmuGwdJ1sTNRiu/6d35I+dtH0bVvEOp2+i6FZzahf3TbYoIEMkjnGSFVck4AJPoOelfph8Dv2JLLSzb+JvjHsvbtSskekRNugjIGf9JkXiUg9UQ7OOWkUkD60+E/wR8A/BzTDaeFLLdezLtuL+fD3U+SDhnwNqcDCIAvGSC2SfXa/Usi4Kp0bVcV70u3Rf5/kfz5xd4q18Tehl94Q/m+0/T+Vfj5rYihhhtoY7e3jWKKJQiIgCqqqMAADgADoKloor7w/H2wooooEFfKv7Q37Tnh/4QWMmh6E0Wq+LJ0Pl24OY7UHIEk5HoekeQzd9oINeSftG/tg2vh77b4E+FUy3OqjMVzqa/NFbHlXSD+9KOPn5Ve2T938t7q6ub25lvb2V7i4uHaSSSRi7u7nLMzHkkk5JPJNfn3EnGKpXoYR3l1fb07v8j9p4F8MZYjlxeYq0N1HrLzfZeW78lvueLfFviDxx4gvPFHii8e+1K+ffJI/5BVA4VVHCqOAOBXOUUV+VTm5Nyk7tn9D0qUYRUIKyWiS6BXuXwN+O3ib4JeIDe6cDfaPeEC9sGfakoHR0ODskXs2ORwcivDaK1w2KqUaiq0naSOfH4CjiqMqGIjzRlumf0L/AA7+Jfg34p6AniLwZfreW5wJYyNk0EhHMcsZ5Vh+R6qSuCe9r+e/4Z/FLxj8JfESeJPB12IZiAk0MgLwXEYOdkqZGR7ghh1Ug81+zPwP+PnhL406Gs9i6afrkAxdac8gMiEfxx9C8Z7MBx0IB6/snDvFNPGJU6nu1O3R+n+R/MHG3h5XyyTr0Lyo9+sfKX+e3e3X3eiiivrT82CuF+IPw28GfFDQ28P+NdOS/tgd0bZKSwv/AH4pFwyn1wcEcMCMiu6orOrSjOLhNXT6G2HxFSlNVKUnGS2a0aPxO+N37K/jj4SNNrOnhte8NLub7ZCnz2654FxGPu/74yp7kHivlyv6UnRJUaORQ6OCCCMgg9QRXw/8b/2MvC3jNJ/EPw2EXh/WsSSvahT9ku5DyABuAgOe6Db6r1avzPPOB3G9XBar+X/J/oz974S8W4ztQzTR/wA62/7eXT1Wnktz8jaK6/xn4B8ZfDzVTovjTSJ9Ju+domX5JAOC0ci5SRQeNyMRnvXIV+dVKcoScZqzR+3Ua8KkFUpyTT2a1TCiiioNQooooAKKKKACiiigAooooA734XeDJviF8Q/D/gyENt1S7jjlKgkpADumcAf3I1Zu3TqK/oShhhtoY7e3jWKKJQiIgCqqqMAADgADoK/Mz9gv4YzTX+q/FjUVZIIFbTrAcgPI2Gnk7ZCrtReoJZu61+nFfsXAuXOlhXWktZv8Ft+p/MXi7naxGYRw0H7tJW/7eer/AAsvW4UUUV9sflBg+Ktch8MeGNY8S3GPK0mzuLt8gkbYI2kOQuT0Xtz6V/OhdXM97cy3l05lmndpHc9WZjkk/U1+xn7bPjgeF/g8/h+3kC3nie4S1A53CCI+bMw7fwqhz2fp3H42V+S8f4xTxEKK+yvxf/ASP6Q8GsrdPBVcVJfG7L0j/wAFv7gooor4E/ZAooooAKKKKACiiigAooooAKKKKACiiigAooooAKKKKACiiigD/9D8h6KKKACiiigAooooAKKKKACiiigAooooAKKKKACiiigAooooAKKKKANzwzr154W8R6X4l0//AI+dKuYbqMZKgtC4cAlSDg4wcdq/oe8Oa7ZeJ/D+m+I9NYPa6nbxXMRBz8sqhgMj0zg1/OLX6n/sKfFX+1vD998KtWmzdaPuurDceWtZG/eoP+uch3fR/QV95wJmapV5YeW09vVf5o/IPF/IXXwcMbTWtPf/AAv/ACf4Nn6C0UUV+uH81BX4y/tcfA//AIVh4y/4SbQYNnhvxDIzxAHIt7r70kPsp+8ntkD7tfs1XJ+OPBPh34h+Gb3wl4pthc2F8hU9N8bfwyRsQdroeVOOvqMivC4gyWONoOn9pap+f+TPr+C+KZ5VjFW3g9JLuu/qt193U/nXor3f42fADxn8F9YkTUIXv9ClfFrqUUbeS4Ynakh6Ry4HKE88lSw5rwivwzFYWpRm6dWNmj+ucBmFHFUo18PJSi9mv6/AKKKK5zsCiiigAorQ0vSdV1u8XT9Fspr+6cErFbxtLIQoySFQE8DrX1H8Pv2NPjD40C3er28XheyD7WbUNwnZQcMUgQFuO28oD2NduDy6viHy0YN/13PLzPO8Jg48+KqqK83r8lu/kfJle5fC79nf4ofFl47jQNNNppTHnULzMNtjvsOC0n0RW98V+mfw4/Y5+EfgOeLU9Rgl8TajGFIfUNrQK46skCgL9BIXI7Gvq1ESJFjjUIiAAADAAHQAV93lXAUn72LlbyX6v/L7z8g4h8Y4RTp5bC7/AJpbfJbv529D5J+E/wCx38Nfh49vq+vg+J9ahKuJblQttE45BjgyQcHoXLHuMV9cUUV+iYLAUcPDkoRSX9b9z8RzXOcVjqntcVUcn59PRbL5BRRRXYeYFFFeDfGT9ojwD8GrVodWn/tDW2UNFptuw84hujSHkRp7tyf4Qa58ViqdGDqVZWSOzAZdXxVVUMPByk+i/r8T1vxN4o8P+DdFuPEXii/i03TbQAyTSnCjJwAMckk8AAEk8AV+Tvx9/a98RfEM3fhTwE0ui+GmJjeZSY7u8TGCHIP7uNufkU5ZeHOCVHg3xa+NPjf4x602peJ7opZRuWtbCIkW1sMY+VT1Yj7znJPPQYA8kr8n4g4xqYi9LD+7Dv1f+S/ryP6P4L8MaOC5cTjbTq9F9mP+b89u3cKKKK+HP1kKKKKACiiigArT0bWdV8Para65od1JZX9lIssM0R2ujr0IP+QRweKzKKcZNO6JnBSTjJXTP13+Av7Ynh/x2IfDPxGMOha8AiR3Bbba3jk44yMQuePlJKsfukZCj7dr+auvtv4Bftha/wCAPJ8MfEVp9e0Esqx3LOXu7NeehbJljHHyFgVH3TgBK/S+H+NtqONfpL/P/P7+5+D8Z+FPxYnKl6w/+R/yfy6I/XmisPw74m8PeLtKi1vwxqMGqWE33ZreRZEyOqkr0Yd1OCDwRmtyv0qM1JXi7o/CKlOUJOM1ZoKKKKog5Hxn4B8G/EPSjovjTSINWtOdomX54yeC0ci4eNiONyMDjvX5r/GL9h7xHossutfCWQ6zp+Cz2E8irdx8k4iYhUkULjgsH9AxNfqtRXjZrkOGxi/ex17rf+vU+o4d4wx2WSvh5+71i9Yv5dPVWZ/N9q2i6xoF42na7YT6ddpndDcxPDIMEqcq4B6gjp1BFZlf0MePPhl4H+JWmvpnjHSob5SpCSlcTRHayhkkHzArvYjsCc4r4I+JX7BN0k0uo/CvWFkhbkWOonDqc9EnRcMPQOoIA5Zic1+bZnwPiaN5UPfX4/d/kfu2QeLOAxNoYv8AdS89Y/f0+a+Z+b1Fd/41+FnxE+Hcoj8aaBdaWrEhZXTdAxU7SFmTdG3Pox4IPQgngK+Nq0pwlyzTT8z9Qw+Jp1YKpSkpRfVO6+9BRRRWZsFFFFABXZ/D7wNrfxI8YaZ4O0GJnuNQmRGcKWWCIkb5nx/BGvzH8hyRWf4U8I+JfHOuW/hvwnp8up6ldHCRRAdO7MxIVFHdmIUdyK/ZP9m39naw+CekS6lqskd74p1OMJczpzHDFkN5EJIB25ALnjcQOMKK+h4eyCpjaq09xbv9F5nxXGvGNHKsO7NOq17sf1fkvx2PcPAPgzSvh54N0jwXoo/0TSYFhDYwZH+9JIwHAaRyztjjJNddRRX7pTpxhFQirJH8i1606k5VKju27t929woorzn4s/EKw+Fvw+1jxtfBXaxhIt4mP+uuZPlhj45wzkbiOQuW7Uq1aNODqTdktWVhcNOtUjRpK8pNJLzZ+WX7a/j5/Fnxdbw5byu1h4WgW1VCML9plxJO6g885RCe+zjjk/H1XNQv7zVb+51TUJTNdXkrzSyHGXkkYszHHHJJNU6/njMca8RXnXl9p/8ADfgf2xkeVxwWDpYWG0Ul6vq/m9QoooriPVCiiigAooooAKKKKACiiigAooooAKKKKACiiigAooooAKKKKAP/0fyHooooAKKKKACiiigAooooAKKKKACiiigAooooAKKKKACiiigAooooAK7b4deO9Y+GvjPS/Guh4a502Xf5bEhZY2BWSNsdnUkH0zkciuJoq6VWUJKcXZrVGWIoQqwlSqK8WrNd0z+ijwN400P4heFNO8X+HZhNZajEHXn5kbo8b+jI2VYeorrK/HH9kz9oKD4V65N4T8XXDr4Y1hwQ55WzuTgeaR1COOHx0wG7HP7GI6SoskbB0cAgg5BB6EGv3nIM5hjaCmviW68/8n0P4+4z4WqZVjHSa9x6xfddvVbP7+o6iiivcPkSjqWmabrNhNpesWkN9ZXK7JYJ41likX0ZHBVh7EV8feNv2HfhN4kle78NTXXhmd3ZikDefb/MOgjlyy4bkBXAGSMY27fs+iuHG5Zh8SrV4KX9d9z18qz7GYGXNhKrjfts/VbP5o/LW8/4J9eKkklGn+LrKaMZ8sy28kRb03BWfb+BasyH/gn/APENpALjxJpaR9yonYj6Axr/ADr9XaK8J8FZff4H97Pr4+KudJWdRf8AgK/yPza0P/gnxCsiSeJfGbPH/HFaWYUnp0lkkbHf/ln/AIV7f4a/Yp+B2gqjahZ3euyr1a8uWAJIIPyQCJcc5GcnpzX1tRXbh+GMBS1jSXz1/O55WN4/ziurTxDXpaP/AKSkYPh7wr4Z8JWX9m+FtJtdItScmO0hSFWbpuIQDJ9zzW9RRXuRgoq0VZHyNSpKcnKbu33CiiiqICiimu6RI0kjBEQEkk4AA6kmgB1ZGu6/onhjSp9b8RX0OnWFqpaSadwiKB7nqT2A5PQDNfI/xl/bM8FeAXfRfAyxeKdYAIaSOT/QoGHHzSLnzD/socerA8V+XvxG+Knjn4q6wdY8aak92yk+TAvyW8Ck8LFGOBgcZOWP8TE818fnPGWHw14Uvfn5bL1f+X4H6dwv4X43HWq4j93T8/ifounq/kmfaXxr/bgvr55/DvwcQ2tphkk1WdMTSZ4zbxN/qxjkO43nP3UIyfzzvL281G6lvtQnkurmdi8ksrF3dj1LM2SSfU1Wor8pzPN6+Lnz1pX8ui9Ef0TkPDeDy2l7LCwt3fV+r/pdkFFFFeae6FFFFABRRRQAUUUUAFFFFABRRRQB6X8N/i74++FGpjUfBmqSW0bNultXJe1n4x+8hJ2k44DcMOxFfrN8Ef2qPA/xbWHRtQK6D4lbC/Y5n+S4bHJt5Djd/uHDDsCOa/E6ivoMl4kxGCdou8ez/TsfF8U8C4LNI81RctTpJb/PuvX5NH9KlFfjj8Iv2y/H/wAP4oNE8VxjxRosQVFEr+XdwooCgRy4IYADO11JJ43rX6kfD34s/D74pWBvvBOsQ3zIoaW3J8u5h7fvIWw6jPAbG0n7pNfrWUcR4bGK1N2l2e//AAfkfzfxLwPj8rd60eaH8y1Xz7fP5XPRqKKK94+PCiiigCKaGG5hkt7iNZYpVKOjgMrKwwQQeCCOorwTxj+y98EfG073uo+HIrK7kcu01izWrMzY3FljIjOcZJKk5yc5JJ+gKK58ThKVZctWCkvNXO7A5niMLLnw9Rwfk2vyPz28Q/8ABPvwrOpPhTxZe2LDBAvYY7oHAORmPyMZOOcHAzwe3k2ofsAfEmPb/ZfiLSbjpnzjcQ465xtikz2/z1/WKivArcHZfPX2dvRs+ywvifnVJW9tzeqT/G1z8lrf9gL4pMhN1r2jRvngJJcuMfUwL/KvUfC3/BPzSYJhP408VzXcY2/ubGAQdCCcyyGTIPI4QHvntX6MUVNHg3L4O/Jf1bKxXijnNSPKqqj6RX52OF8CfDTwL8NNN/svwVo8OmxsAJHUbppcd5JWy7/iTjtiu6oor6WlSjCKhBWS6I+DxGIqVZupVk5Se7buwooorQxCvxz/AGwfjg/xF8YN4J0Gdj4d8OTMjDC7bi/jLxvMCM5RVOxPX5mHDCvrH9r79oD/AIV/oknw58MlX13XbZ1uJQ3NnaygoSMHIlkGdn90fN/dr8hq/MuN8+v/ALFSf+L/AC/zP3zwn4Oa/wCFTEx/wL85fovv7BRRRX5ofvAUUUUAFFFFABRRRQAUUUUAFFFFABRRRQAUUUUAFFFFABRRRQAUUUUAf//S/IeiiigAooooAKKKKACiiigAooooAKKKKACiiigAooooAKKKKACiiigAooooAK+6f2ZP2rrjwH9l8A/EWdp/DY+S1vCGeWx9EbGS0I7AAlO2Vwo+FqK78uzKrhaqq0XZ/g/Jnj55kWGzHDvDYmN0/vT7rz/rY/pE0nVtM13TbfWNFuor6xu0EkM8Lh45FPQqwyDWhX4O/B79oLx/8G73/iSXJv8ASXDCTTbl3a2JY5LooP7t8/xL1/iBFfpx8Lf2vfhX8RRDYapOfDGsylV+zXrDyndiBiK4ACNyQBvCMT0XHNfr+T8W4bFJRm+WfZ/o/wCmfzRxP4bY/ASc6UXUp91uvVb/ADWh9VUVFDNDcwx3FvIssUqh0dCGVlYZBBHBBHQ1LX1R+dtBRRRQIKKKKACimu6RI0kjBEQEkk4AA6kmvAfF/wC1D8D/AAaZIbzxLDqFzGM+Tp+bticH5d8WYwcjGC4wSM461z4nF0qK5qs1FebsduBy3EYmXJh6bm/JN/kfQFVr29s9OtZb7UJ47W2gUvJLKwREUdSzMQAB6mvzJ8fft9are20tj8N9AGnO4AW9v3WWRcjnbAnyAg9CzuD3Wvibxr8UPiD8RLprvxprtzqbNj927bIVx02woFjX/gKivkMw46wtLSinN/cvvev4H6ZkvhFmFe0sU1Tj98vuWn3v5H6m/Ez9tf4Y+Di+n+EVfxZqAB5t28u0Q44DTsDu7f6tWHXLAjFfnR8Uf2iPih8WXkt9f1I2mlMeNPs8w22O28ZLSfV2b2xXhtFfn2acTYvF3jOVo9lov838z9n4f4By3LrTpQ5pr7UtX8ui+SuFFFFfPn2gUUUUAFFFFABRRRQAUUUUAFFFFABRRRQAUUUUAFFFFABV7TdT1LRb+HVNHu5rG9tm3xTwSNFLG3qroQyn3BqjRTTad0KUU1Z7H3l8Kv25/F3h7ydK+J1n/wAJFYLhftkAWK+RfUj5YpsDgA7GPVnJr9HPh78Wfh98UrA33gnWIb5kUNLbk+Xcw9v3kLYdRngNjaT90mv58as2d7eadcpeafPJbXEedskTFHXIwcMpBGQcfSvscq40xVC0avvx89/v/wA7n5jxF4V4DGXqYf8AdT8l7r/7d6fK3oz+kuivxl+Hf7aHxc8GfZbLX5Y/FWmwfKyXmVuinHAuVyxYY+9IJDyc54x9qeC/23fg94jEMHiE3Xhq7kIVhcxmaAMTgYlh3HHqzIgHfgZr7/AcXYKvo58r7S0/Hb8T8Yznw1zbCNtU/aR7x1/Df8PmfY1Fc/4c8WeGPF9gmp+FtVttVtXVW320qygBs43bSSpyCMHBBBB5BroK+lhNSXNF3R8JUpShJwmrNdGFFFFUQFFFFABRRXlfxI+NPw4+FFqZvGOrxw3JXdHZxfvbqT02xLyAf7zbV96yr14U4udSSSXVnThMHVr1FSoRcpPoldnqlfGn7Qv7WPh34c2V34X8C3MWq+K2Hl70xJb2W7OXdvuvIvaPnB5fgbW+WvjR+2p4m8a20vh/4cQzeHNKmVkluHYfbplJ6BkJEIx12kt/tY6/DdfnWf8AGys6WC/8C/y/zP2/g3woldYnNF6Q/wDkv8l8+xe1PU9Q1nULnVtWuZLy9vJGlmmlYu8jucszMeSSao0UV+ZNtu7P3uMUlZbBRRRSGFFFFABRRRQAUUUUAFFFFABRRRQAUUUUAFFFFABRRRQAUUUUAFFFFAH/0/yHooooAKKKKACiiigAooooAKKKKACiiigAooooAKKKKACiiigAooooAKKKKACiiigAooooA9E8G/Fr4lfD4qvg7xHeabChyIFkL2+d27JhfdGeeuV5yR0Jz9F6F+3V8Z9MiWHVINL1jAAMk9u8chwMZzBJGgyeT8n0wK+MKK9LC5viqCtSqNLtfT7tjw8w4Zy/FPmxFCMn3sr/AH7n6D23/BQTxapT7Z4SsZQB8/lzyx5OO2Q2Ofr/AFrVf/goVqZjQJ4HhEgzvJv2IPpgeSMY78nPtX5x0V6K4tzFf8vfwX+R4cvDfJG7vDr75f5n3zqX/BQD4gSg/wBkeGdLtjk489p5+M8fdeLt/ntXkXiP9sD48+IRJGmvJpUMgIMdjbxxYyu3iRg8o7nIfgnI6DHzHRXNX4ix1RWlWfy0/Kx34TgjKaDvTw0fmr/nc6fxB428ZeLHMnifXb7ViST/AKVcyTAZxnAdiB0HA9B6CuYooryJ1JSd5O7PpaVKEI8sFZeQUUUVBoFFFFABRRRQAUUUUAFFFFABRRRQAUUUUAFFFFABRRRQAUUUUAFFFFABRRRQAUUUUAFFFFAF7TtT1LR7pb7SbuayuU+7LBI0bj6MpBFe5eHP2pPjv4aeM23iu4vY0ABjvgl2GA7FpVZ/xDA+9fP9FdOHxlai70puPo2jhxuV4bEq2IpRl6pP8z7p0X9vj4oWcfla1oul6jtUAOizQOT6tiRlP0CrXdW//BQy5VCLrwIkj54KakUGPobdv51+blFezT4rzCCsqr+aT/NHzFfw6yWo7yw6+TkvyaP0lu/+Chcxyth4FVcNw0molsr/ALq24wfxNcjqv7f/AMQbiN00bw5plmzZAaZppyoPTgNGCQPwz27H4Iopz4tzGW9X8Ev0Jo+HGSwd1h183J/mz6H8YftUfHHxkrwXXiOTTbVs/udPVbUYYEEb0/ekYPRnI79ea8BvL281G6lvtQnkurmdi8ksrF3dj1LM2SSfU1WorxcTja1Z3qzcvV3PqMDleGwseXDU1BeSS/IKKKK5jvCiiigAooooAKKKKACiiigAooooAKKKKACiiigAooooAKKKKACiiigAooooAKKKKAP/1PyHooooAKKKKACiiigAooooAKKKKACiiigAooooAKKKKACiiigAooooAKKKKACiiigAooooAKKKKACiiigAooooAKKKKACiiigAooooAKKKKACiiigAooooAKKKKACiiigAooooAKKKKACiiigAooooAKKKKACiiigAooooAKKKKACiiigAooooAKKKKACiiigAooooAKKKKACiiigAooooAKKKKACiiigAooooAKKKKACiiigAooooAKKKKACiiigD/9X8h6KKKACiiigAooooAKKKKACiiigAooooAKKKKACiiigAooooAKKKKACiiigAooooAKKKKACiiigAooooAKKKKACiiigAooooAKKKKACiiigAooooAKKKKACiiigAooooAKKKKACiiigAooooAKKKKACiiigAooooAKKKKACiiigAooooAKKKKACiiigAooooAKKKKACiiigAooooAKKKKACiiigAooooAKKKKACiiigAooooAKKKKACiiigAooooA//W/IeiiigAooooAKKKKACiiigAooooAKKKKACiiigAooooAKKKKACiiigAooooAKKKKACiiigAooooAKKKKACiiigAooooAKKKKACiiigAooooAKKKKACiiigAooooAKKKKACiiigAooooAKKKKACiiigAooooAKKKKACiiigAooooAKKKKACiiigAooooAKKKKACiiigAooooAKKKKACiiigAooooAKKKKACiiigAooooAKKKKACiiigAooooAKKKKAP/1/yG3CjcKZRV2AfuFG4UyiiwD9wo3CmUUWAfuFG4UyiiwD9wo3CmUUWAfuFG4UyiiwD9wo3CmUUWAfuFG4UyiiwD9wo3CmUUWAfuFG4UyiiwD9wo3CmUUWAfuFG4UyiiwD9wo3CmUUWAfuFG4UyiiwD9wo3CmUUWAfuFG4UyiiwD9wo3CmUUWAfuFG4UyiiwD9wo3CmUUWAfuFG4UyiiwD9wo3CmUUWAfuFG4UyiiwD9wo3CmUUWAfuFG4UyiiwD9wo3CmUUWAfuFG4UyiiwD9wo3CmUUWAfuFG4UyiiwD9wo3CmUUWAfuFG4UyiiwD9wo3CmUUWAfuFG4UyiiwD9wo3CmUUWAfuFG4UyiiwD9wo3CmUUWAfuFG4UyiiwD9wo3CmUUWAfuFG4UyiiwD9wo3CmUUWAfuFG4UyiiwD9wo3CmUUWAfuFG4UyiiwD9wo3CmUUWAfuFG4UyiiwD9wo3CmUUWAfuFG4UyiiwD9wo3CmUUWAfuFG4UyiiwH/9k=;" vertex="1" parent="1">
          <mxGeometry x="90.23" y="110" width="59.54" height="60" as="geometry" />
        </mxCell>
        <mxCell id="EmysjJwm9qbrB_Ymdtlw-23" value="" style="shape=image;verticalLabelPosition=bottom;labelBackgroundColor=default;verticalAlign=top;aspect=fixed;imageAspect=0;image=data:image/jpeg,/9j/4AAQSkZJRgABAQAAkACQAAD/4QCSRXhpZgAATU0AKgAAAAgABAEaAAUAAAABAAAAPgEbAAUAAAABAAAARgEoAAMAAAABAAIAAIdpAAQAAAABAAAATgAAAAAAAACQAAAAAQAAAJAAAAABAAOShgAHAAAAEgAAAHigAgAEAAAAAQAAAwigAwAEAAAAAQAAArwAAAAAQVNDSUkAAABTY3JlZW5zaG90/+0AOFBob3Rvc2hvcCAzLjAAOEJJTQQEAAAAAAAAOEJJTQQlAAAAAAAQ1B2M2Y8AsgTpgAmY7PhCfv/iD/BJQ0NfUFJPRklMRQABAQAAD+BhcHBsAhAAAG1udHJSR0IgWFlaIAfpAAMAEAAGAAMACGFjc3BBUFBMAAAAAEFQUEwAAAAAAAAAAAAAAAAAAAAAAAD21gABAAAAANMtYXBwbAAAAAAAAAAAAAAAAAAAAAAAAAAAAAAAAAAAAAAAAAAAAAAAAAAAAAAAAAAAAAAAEWRlc2MAAAFQAAAAYmRzY20AAAG0AAAEvGNwcnQAAAZwAAAAI3d0cHQAAAaUAAAAFHJYWVoAAAaoAAAAFGdYWVoAAAa8AAAAFGJYWVoAAAbQAAAAFHJUUkMAAAbkAAAIDGFhcmcAAA7wAAAAIHZjZ3QAAA8QAAAAMG5kaW4AAA9AAAAAPm1tb2QAAA+AAAAAKHZjZ3AAAA+oAAAAOGJUUkMAAAbkAAAIDGdUUkMAAAbkAAAIDGFhYmcAAA7wAAAAIGFhZ2cAAA7wAAAAIGRlc2MAAAAAAAAACERpc3BsYXkAAAAAAAAAAAAAAAAAAAAAAAAAAAAAAAAAAAAAAAAAAAAAAAAAAAAAAAAAAAAAAAAAAAAAAAAAAAAAAAAAAAAAAAAAAAAAAAAAAAAAAAAAAABtbHVjAAAAAAAAACcAAAAMaHJIUgAAABQAAAHka29LUgAAAAwAAAH4bmJOTwAAABIAAAIEaWQAAAAAABIAAAIWaHVIVQAAABQAAAIoY3NDWgAAABYAAAI8c2xTSQAAABQAAAJSZGFESwAAABwAAAJmbmxOTAAAABYAAAKCZmlGSQAAABAAAAKYaXRJVAAAABgAAAKoZXNFUwAAABYAAALAcm9STwAAABIAAALWZnJDQQAAABYAAALoYXIAAAAAABQAAAL+dWtVQQAAABwAAAMSaGVJTAAAABYAAAMuemhUVwAAAAoAAANEdmlWTgAAAA4AAANOc2tTSwAAABYAAANcemhDTgAAAAoAAANEcnVSVQAAACQAAANyZW5HQgAAABQAAAOWZnJGUgAAABYAAAOqbXMAAAAAABIAAAPAaGlJTgAAABIAAAPSdGhUSAAAAAwAAAPkY2FFUwAAABgAAAPwZW5BVQAAABQAAAOWZXNYTAAAABIAAALWZGVERQAAABAAAAQIZW5VUwAAABIAAAQYcHRCUgAAABgAAAQqcGxQTAAAABIAAARCZWxHUgAAACIAAARUc3ZTRQAAABAAAAR2dHJUUgAAABQAAASGcHRQVAAAABYAAASaamFKUAAAAAwAAASwAEwAQwBEACAAdQAgAGIAbwBqAGnO7LfsACAATABDAEQARgBhAHIAZwBlAC0ATABDAEQATABDAEQAIABXAGEAcgBuAGEAUwB6AO0AbgBlAHMAIABMAEMARABCAGEAcgBlAHYAbgD9ACAATABDAEQAQgBhAHIAdgBuAGkAIABMAEMARABMAEMARAAtAGYAYQByAHYAZQBzAGsA5gByAG0ASwBsAGUAdQByAGUAbgAtAEwAQwBEAFYA5AByAGkALQBMAEMARABMAEMARAAgAGEAIABjAG8AbABvAHIAaQBMAEMARAAgAGEAIABjAG8AbABvAHIATABDAEQAIABjAG8AbABvAHIAQQBDAEwAIABjAG8AdQBsAGUAdQByIA8ATABDAEQAIAZFBkQGSAZGBikEGgQ+BDsETAQ+BEAEPgQyBDgEOQAgAEwAQwBEIA8ATABDAEQAIAXmBdEF4gXVBeAF2V9pgnIATABDAEQATABDAEQAIABNAOAAdQBGAGEAcgBlAGIAbgD9ACAATABDAEQEJgQyBDUEQgQ9BD4EOQAgBBYEGgAtBDQEOARBBD8EOwQ1BDkAQwBvAGwAbwB1AHIAIABMAEMARABMAEMARAAgAGMAbwB1AGwAZQB1AHIAVwBhAHIAbgBhACAATABDAEQJMAkCCRcJQAkoACAATABDAEQATABDAEQAIA4qDjUATABDAEQAIABlAG4AIABjAG8AbABvAHIARgBhAHIAYgAtAEwAQwBEAEMAbwBsAG8AcgAgAEwAQwBEAEwAQwBEACAAQwBvAGwAbwByAGkAZABvAEsAbwBsAG8AcgAgAEwAQwBEA4gDswPHA8EDyQO8A7cAIAO/A7gDzAO9A7cAIABMAEMARABGAOQAcgBnAC0ATABDAEQAUgBlAG4AawBsAGkAIABMAEMARABMAEMARAAgAGEAIABjAG8AcgBlAHMwqzDpMPwATABDAER0ZXh0AAAAAENvcHlyaWdodCBBcHBsZSBJbmMuLCAyMDI1AABYWVogAAAAAAAA81EAAQAAAAEWzFhZWiAAAAAAAACD3wAAPb////+7WFlaIAAAAAAAAEq/AACxNwAACrlYWVogAAAAAAAAKDgAABELAADIuWN1cnYAAAAAAAAEAAAAAAUACgAPABQAGQAeACMAKAAtADIANgA7AEAARQBKAE8AVABZAF4AYwBoAG0AcgB3AHwAgQCGAIsAkACVAJoAnwCjAKgArQCyALcAvADBAMYAywDQANUA2wDgAOUA6wDwAPYA+wEBAQcBDQETARkBHwElASsBMgE4AT4BRQFMAVIBWQFgAWcBbgF1AXwBgwGLAZIBmgGhAakBsQG5AcEByQHRAdkB4QHpAfIB+gIDAgwCFAIdAiYCLwI4AkECSwJUAl0CZwJxAnoChAKOApgCogKsArYCwQLLAtUC4ALrAvUDAAMLAxYDIQMtAzgDQwNPA1oDZgNyA34DigOWA6IDrgO6A8cD0wPgA+wD+QQGBBMEIAQtBDsESARVBGMEcQR+BIwEmgSoBLYExATTBOEE8AT+BQ0FHAUrBToFSQVYBWcFdwWGBZYFpgW1BcUF1QXlBfYGBgYWBicGNwZIBlkGagZ7BowGnQavBsAG0QbjBvUHBwcZBysHPQdPB2EHdAeGB5kHrAe/B9IH5Qf4CAsIHwgyCEYIWghuCIIIlgiqCL4I0gjnCPsJEAklCToJTwlkCXkJjwmkCboJzwnlCfsKEQonCj0KVApqCoEKmAquCsUK3ArzCwsLIgs5C1ELaQuAC5gLsAvIC+EL+QwSDCoMQwxcDHUMjgynDMAM2QzzDQ0NJg1ADVoNdA2ODakNww3eDfgOEw4uDkkOZA5/DpsOtg7SDu4PCQ8lD0EPXg96D5YPsw/PD+wQCRAmEEMQYRB+EJsQuRDXEPURExExEU8RbRGMEaoRyRHoEgcSJhJFEmQShBKjEsMS4xMDEyMTQxNjE4MTpBPFE+UUBhQnFEkUahSLFK0UzhTwFRIVNBVWFXgVmxW9FeAWAxYmFkkWbBaPFrIW1hb6Fx0XQRdlF4kXrhfSF/cYGxhAGGUYihivGNUY+hkgGUUZaxmRGbcZ3RoEGioaURp3Gp4axRrsGxQbOxtjG4obshvaHAIcKhxSHHscoxzMHPUdHh1HHXAdmR3DHeweFh5AHmoelB6+HukfEx8+H2kflB+/H+ogFSBBIGwgmCDEIPAhHCFIIXUhoSHOIfsiJyJVIoIiryLdIwojOCNmI5QjwiPwJB8kTSR8JKsk2iUJJTglaCWXJccl9yYnJlcmhya3JugnGCdJJ3onqyfcKA0oPyhxKKIo1CkGKTgpaymdKdAqAio1KmgqmyrPKwIrNitpK50r0SwFLDksbiyiLNctDC1BLXYtqy3hLhYuTC6CLrcu7i8kL1ovkS/HL/4wNTBsMKQw2zESMUoxgjG6MfIyKjJjMpsy1DMNM0YzfzO4M/E0KzRlNJ402DUTNU01hzXCNf02NzZyNq426TckN2A3nDfXOBQ4UDiMOMg5BTlCOX85vDn5OjY6dDqyOu87LTtrO6o76DwnPGU8pDzjPSI9YT2hPeA+ID5gPqA+4D8hP2E/oj/iQCNAZECmQOdBKUFqQaxB7kIwQnJCtUL3QzpDfUPARANER0SKRM5FEkVVRZpF3kYiRmdGq0bwRzVHe0fASAVIS0iRSNdJHUljSalJ8Eo3Sn1KxEsMS1NLmkviTCpMcky6TQJNSk2TTdxOJU5uTrdPAE9JT5NP3VAnUHFQu1EGUVBRm1HmUjFSfFLHUxNTX1OqU/ZUQlSPVNtVKFV1VcJWD1ZcVqlW91dEV5JX4FgvWH1Yy1kaWWlZuFoHWlZaplr1W0VblVvlXDVchlzWXSddeF3JXhpebF69Xw9fYV+zYAVgV2CqYPxhT2GiYfViSWKcYvBjQ2OXY+tkQGSUZOllPWWSZedmPWaSZuhnPWeTZ+loP2iWaOxpQ2maafFqSGqfavdrT2una/9sV2yvbQhtYG25bhJua27Ebx5veG/RcCtwhnDgcTpxlXHwcktypnMBc11zuHQUdHB0zHUodYV14XY+dpt2+HdWd7N4EXhueMx5KnmJeed6RnqlewR7Y3vCfCF8gXzhfUF9oX4BfmJ+wn8jf4R/5YBHgKiBCoFrgc2CMIKSgvSDV4O6hB2EgITjhUeFq4YOhnKG14c7h5+IBIhpiM6JM4mZif6KZIrKizCLlov8jGOMyo0xjZiN/45mjs6PNo+ekAaQbpDWkT+RqJIRknqS45NNk7aUIJSKlPSVX5XJljSWn5cKl3WX4JhMmLiZJJmQmfyaaJrVm0Kbr5wcnImc951kndKeQJ6unx2fi5/6oGmg2KFHobaiJqKWowajdqPmpFakx6U4pammGqaLpv2nbqfgqFKoxKk3qamqHKqPqwKrdavprFys0K1ErbiuLa6hrxavi7AAsHWw6rFgsdayS7LCszizrrQltJy1E7WKtgG2ebbwt2i34LhZuNG5SrnCuju6tbsuu6e8IbybvRW9j74KvoS+/796v/XAcMDswWfB48JfwtvDWMPUxFHEzsVLxcjGRsbDx0HHv8g9yLzJOsm5yjjKt8s2y7bMNcy1zTXNtc42zrbPN8+40DnQutE80b7SP9LB00TTxtRJ1MvVTtXR1lXW2Ndc1+DYZNjo2WzZ8dp22vvbgNwF3IrdEN2W3hzeot8p36/gNuC94UThzOJT4tvjY+Pr5HPk/OWE5g3mlucf56noMui86Ubp0Opb6uXrcOv77IbtEe2c7ijutO9A78zwWPDl8XLx//KM8xnzp/Q09ML1UPXe9m32+/eK+Bn4qPk4+cf6V/rn+3f8B/yY/Sn9uv5L/tz/bf//cGFyYQAAAAAAAwAAAAJmZgAA8qcAAA1ZAAAT0AAAClt2Y2d0AAAAAAAAAAEAAQAAAAAAAAABAAAAAQAAAAAAAAABAAAAAQAAAAAAAAABAABuZGluAAAAAAAAADYAAK4UAABR7AAAQ9cAALCkAAAmZgAAD1wAAFANAABUOQACMzMAAjMzAAIzMwAAAAAAAAAAbW1vZAAAAAAAAAYQAACgUP1ibWIAAAAAAAAAAAAAAAAAAAAAAAAAAHZjZ3AAAAAAAAMAAAACZmYAAwAAAAJmZgADAAAAAmZmAAAAAjMzNAAAAAACMzM0AAAAAAIzMzQA/8AAEQgCvAMIAwEiAAIRAQMRAf/EAB8AAAEFAQEBAQEBAAAAAAAAAAABAgMEBQYHCAkKC//EALUQAAIBAwMCBAMFBQQEAAABfQECAwAEEQUSITFBBhNRYQcicRQygZGhCCNCscEVUtHwJDNicoIJChYXGBkaJSYnKCkqNDU2Nzg5OkNERUZHSElKU1RVVldYWVpjZGVmZ2hpanN0dXZ3eHl6g4SFhoeIiYqSk5SVlpeYmZqio6Slpqeoqaqys7S1tre4ubrCw8TFxsfIycrS09TV1tfY2drh4uPk5ebn6Onq8fLz9PX29/j5+v/EAB8BAAMBAQEBAQEBAQEAAAAAAAABAgMEBQYHCAkKC//EALURAAIBAgQEAwQHBQQEAAECdwABAgMRBAUhMQYSQVEHYXETIjKBCBRCkaGxwQkjM1LwFWJy0QoWJDThJfEXGBkaJicoKSo1Njc4OTpDREVGR0hJSlNUVVZXWFlaY2RlZmdoaWpzdHV2d3h5eoKDhIWGh4iJipKTlJWWl5iZmqKjpKWmp6ipqrKztLW2t7i5usLDxMXGx8jJytLT1NXW19jZ2uLj5OXm5+jp6vLz9PX29/j5+v/bAEMAAgICAgICAwICAwUDAwMFBgUFBQUGCAYGBgYGCAoICAgICAgKCgoKCgoKCgwMDAwMDA4ODg4ODw8PDw8PDw8PD//bAEMBAgICBAQEBwQEBxALCQsQEBAQEBAQEBAQEBAQEBAQEBAQEBAQEBAQEBAQEBAQEBAQEBAQEBAQEBAQEBAQEBAQEP/dAAQAMf/aAAwDAQACEQMRAD8A+F6KKK/0wPQCiiigAooooAKKKKACiiigAooooAKKKKACiiigAooooAKKKKACiiigAooooAKKKKACiiigAooooAKKKKACiiigAooooAKKKKACiiigAooooAKKKKACiiigAooooAKKKKACiiigAooooAKKKKACiiigAooooAKKKKACiiigAooooAKKKKACiiigAooooAKKKKACiiigAooooAKKKKACiiigAooooAKKKKACiiigAooooAKKKKACiiigAooooA5zxj/yKOt/9eNz/wCimr4Kr718Y/8AIo63/wBeNz/6KavgqvyDxA/3yH+FfnIynuf/0Pheiiiv9MD0AooooAKKKKACiiigAooooAKKKKACiiigAooooAKKKKACiiigAooooAKKKKACiiigAooooAKKKKACiiigAooooAKKKKACiiigAooooAKKKKACiiigAooooAKKKKACiiigAooooAKKKKACiiigAooooAKKKKACiiigAooooAKKKKACiiigAooooAKKKKACiiigAooooAKKKKACiiigAooooAKKKKACiiigAooooAKKKKACiiigAooooAKKKKAOc8Y/8ijrf/Xjc/8Aopq+Cq+9fGP/ACKOt/8AXjc/+imr4Kr8g8QP98h/hX5yMp7n/9H4Xooor/TA9AKKKKACiiigAooooAKKKKACiiigAooooAKKKKACiiigAooooAKKKKACiiigAooooAKKKKACiiigAooooAKKKKACiiigAooooAKKKKACiiigAooooAKKKKACiiigAooooAKKKKACiiigAooooAKKKKACiiigAooooAKKKKACiiigAooooAKKKKACiiigAooooAKKKKACiiigAooooAKKKKACiiigAooooAKKKKACiiigAooooAKKKKACiiigDnPGP/Io63/143P/AKKavgqvvXxj/wAijrf/AF43P/opq+Cq/IPED/fIf4V+cjKe5//S+F6KKK/0wPQCiiigAooooAKKKKACiiigAooooAKKKKACiiigAooooAKKKKACiiigAooooAKKKKACiiigAooooAKKKKACiiigAooooAKKKKACiiigAooooAKKKKACiiigAooooAKKKKACiiigAooooAKKKKACiiigAooooAKKKKACiiigAooooAKKKKACiiigAooooAKKKKACiiigAooooAKKKKACiiigAooooAKKKKACiiigAooooAKKKKACiiigAooooA5zxj/yKOt/9eNz/wCimr4Kr718Y/8AIo63/wBeNz/6KavgqvyDxA/3yH+FfnIynuf/0/heiiiv9MD0AooooAKKKKACiiigAooooAKKKKACiiigAooooAKKKKACiiigAooooAKKKKACiiigAooooAKKKKACiiigAooooAKKKKACiiigAooooAKKKKACiiigAooooAKKKKACiiigAooooAKKKKACiiigAooooAKKKKACiiigAooooAKKKKACiiigAooooAKKKKACiiigAooooAKKKKACiiigAooooAKKKKACiiigAooooAKKKKACiiigAooooAKKKKAOc8Y/8ijrf/Xjc/8Aopq+Cq+9fGP/ACKOt/8AXjc/+imr4Kr8g8QP98h/hX5yMp7n/9T4Xooor/TA9AKKKKACiiigAooooAKKKKACiiigAooooAKKKKACiiigAooooAKKKKACiiigAooooAKKKKACiiigAooooAKKKKACiiigAooooAKKKKACiiigAooooAKKKKACiiigAooooAKKKKACiiigAooooAKKKKACiiigAooooAKKKKACiiigAooooAKKKKACiiigAooooAKKKKACiiigAooooAKKKKACiiigAooooAKKKKACiiigAooooAKKKKACiiigDnPGP/Io63/143P/AKKavgqvvXxj/wAijrf/AF43P/opq+Cq/IPED/fIf4V+cjKe5//V+F6KKK/0wPQCiiigAooooAKKKKACiiigAooooAKKKKACiiigAooooAKKKKACiiigAooooAKKKKACiiigAooooAKKKKACiiigAooooAKKKKACiiigAooooAKKKKACiiigAooooAKKKKACiiigAooooAKKKKACiiigAooooAKKKKACiiigAooooAKKKKACiiigAooooAKKKKACiiigAooooAKKKKACiiigAooooAKKKKACiiigAooooAKKKKACiiigAooooA5zxj/yKOt/9eNz/wCimr4Kr718Y/8AIo63/wBeNz/6KavgqvyDxA/3yH+FfnIynuf/1vheiiiv9MD0AooooAKKKKACiiigAooooAKKKKACiiigAooooAKKKKACiiigAooooAKKKKACiiigAooooAKKKKACiiigAooooAKKKKACiiigAooooAKKKKACiiigAooooAKKKKACiiigAooooAKKKKACiiigAooooAKKKKACiiigAooooAKKKKACiiigAooooAKKKKACiiigAooooAKKKKACiiigAooooAKKKKACiiigAooooAKKKKACiiigAooooAKKKKAOc8Y/8ijrf/Xjc/8Aopq+Cq+9fGP/ACKOt/8AXjc/+imr4Kr8g8QP98h/hX5yMp7n/9f4Xooor/TA9AKKKKACiiigAooooAKKKKACiiigAooooAKKKKACiiigAooooAKKKKACiiigAooooAKKKKACiiigAooooAKKKKACiiigAooooAKKKKACiiigAooooAKKKKACiiigAooooAKKKKACiiigAooooAKKKKACiiigAooooAKKKKACiiigAooooAKKKKACiiigAooooAKKKKACiiigAooooAKKKKACiiigAooooAKKKKACiiigAooooAKKKKACiiigDnPGP/Io63/143P/AKKavgqvvXxj/wAijrf/AF43P/opq+Cq/IPED/fIf4V+cjKe5//Q+F6KKK/0wPQCiiigAooooAKKKKACiiigAooooAKKKKACiiigAooooAKKKKACiiigAooooAKKKKACiiigAooooAKKKKACiiigAooooAKKKKACiiigAooooAKKKKACiiigAooooAKKKKACiiigAooooAKKKKACiiigAooooAKKKKACiiigAooooAKKKKACiiigAooooAKKKKACiiigAooooAKKKKACiiigAooooAKKKKACiiigAooooAKKKKACiiigAooooA5zxj/yKOt/9eNz/wCimr4Kr718Y/8AIo63/wBeNz/6KavgqvyDxA/3yH+FfnIynuf/0fheiiiv9MD0AooooAKKKKACiiigAooooAKKKKACiiigAooooAKKKKACiiigAooooAKKKKACiiigAooooAKKKKACiiigAooooAKKKKACiiigAooooAKKKKACiiigAooooAKKKKACiiigAooooAKKKKACiiigAooooAKKKKACiiigAooooAKKKKACiiigAooooAKKKKACiiigAooooAKKKKACiiigAooooAKKKKACiiigAooooAKKKKACiiigAooooAKKKKAOc8Y/8ijrf/Xjc/8Aopq+Cq+9fGP/ACKOt/8AXjc/+imr4Kr8g8QP98h/hX5yMp7n/9L4Xooor/TA9AKKKKACiiigAooooAKKKKACiiigAooooAKKKKACiiigAooooAKKKKACiiigAooooAKKKKACiiigAooooAKKKKACiiigAooooAKKKKACiiigAooooAKKKKACiiigAooooAKKKKACiiigAooooAKKKKACiiigAooooAKKKKACiiigAooooAKKKKACiiigAooooAKKKKACiiigAooooAKKKKACiiigAooooAKKKKACiiigAooooAKKKKACiiigDnPGP/Io63/143P/AKKavgqvvXxj/wAijrf/AF43P/opq+Cq/IPED/fIf4V+cjKe5//T+F6KKK/0wPQCiiigAooooAKKKKACiiigAooooAKKKKACiiigAooooAKKKKACiiigAooooAKKKKACiiigAooooAKKKKACiiigAooooAKKKKACiiigAooooAKKKKACiiigAooooAKKKKACiiigAooooAKKKKACiiigAooooAKKKKACiiigAooooAKKKKACiiigAooooAKKKKACiiigAooooAKKKKACiiigAooooAKKKKACiiigAooooAKKKKACiiigAooooA5zxj/yKOt/9eNz/wCimr4Kr718Y/8AIo63/wBeNz/6KavgqvyDxA/3yH+FfnIynuf/1Pheiiiv9MD0AooooAKKKKACiiigAooooAKKKKACiiigAooooAKKKKACiiigAooooAKKKKACiiigAooooAKKKKACiiigAooooAKKKKACiiigAooooAKKKKACiiigAooooAKKKKACiiigAooooAKKKKACiiigAooooAKKKKACiiigAooooAKKKKACiiigAooooAKKKKACiiigAooooAKKKKACiiigAooooAKKKKACiiigAooooAKKKKACiiigAooooAKKKKAOc8Y/8ijrf/Xjc/8Aopq+Cq+9fGP/ACKOt/8AXjc/+imr4Kr8g8QP98h/hX5yMp7n/9X4Xooor/TA9AKKKKACiiigAooooAKKKKACiiigAooooAKKKKACiiigAooooAKKKKACiiigAooooAKKKKACiiigAooooAKKKKACiiigAooooAKKKKACiiigAooooAKKKKACiiigAooooAKKKKACiiigAooooAKKKKACiiigAooooAKKKKACiiigAooooAKKKKACiiigAooooAKKKKACiiigAooooAKKKKACiiigAooooAKKKKACiiigAooooAKKKKACiiigDnPGP/Io63/143P/AKKavgqvvXxj/wAijrf/AF43P/opq+Cq/IPED/fIf4V+cjKe5//W+F6KKK/0wPQCiiigAooooAKKKKACiiigAooooAKKKKACiiigAooooAKKKKACiiigAooooAKKKKACiiigAooooAKKKKACiiigAooooAKKKKACiiigAooooAKKKKACiiigAooooAKKKKACiiigAooooAKKKKACiiigAooooAKKKKACiiigAooooAKKKKACiiigAooooAKKKKACiiigAooooAKKKKACiiigAooooAKKKKACiiigAooooAKKKKACiiigAooooA5zxj/yKOt/9eNz/wCimr4Kr718Y/8AIo63/wBeNz/6KavgqvyDxA/3yH+FfnIynuf/1/heiiiv9MD0AooooAKKKKACiiigAooooAKKKKACiiigAooooAKKKKACiiigAooooAKKKKACiiigAooooAKKKKACiiigAooooAKKKKACiiigAooooAKKKKACiiigAooooAKKKKACiiigAooooAKKKKACiiigAooooAKKKKACiiigAooooAKKKKACiiigAooooAKKKKACiiigAooooAKKKKACiiigAooooAKKKKACiiigAooooAKKKKACiiigAooooAKKKKAOc8Y/8ijrf/Xjc/8Aopq+Cq+9fGP/ACKOt/8AXjc/+imr4Kr8g8QP98h/hX5yMp7n/9D4Xooor/TA9AKKKKACiiigAooooAKKKKACiiigAooooAKKKKACiiigAooooAKKKKACuy8H/Dzx38QZrm38DeH77XpbNVaZbK3ecxqxwCwQHAJHGa42v1T/AOCXX/I0eO/+vO0/9GPXy/GefTyzLK2OpxUnC2j21aX6kzdlc+Gf+GbP2gf+ida//wCC6f8A+Io/4Zs/aB/6J1r/AP4Lp/8A4iv6d6K/nn/iYTHf9A0PvZh7dn8xH/DNn7QP/ROtf/8ABdP/APEUf8M2ftA/9E61/wD8F0//AMRX9O9FH/EwmO/6Bofew9uz+UHxX4L8XeBdSXRvGejXeh3zxiUQXkLwSGNiQGCuAcEg8+1czX9CX7bP7Pn/AAun4atrPh+1Evivwyrz2e0fvLiE4M1vnuSBuQf3hgY3Gv572VkYo4KspwQeCCK/dPD/AI2p55gvbpctSLtKPZ9GvJrb5robQndDaKKK+6LCiiigAooooAKKKKACiiigDtfB/wAN/H/xBa5XwN4dv9fNmFM4sreSfyw+du7YDjODjNdx/wAM2ftA/wDROtf/APBdP/8AEV9+f8EuP+Pzx9/1zsf5y1+vdfz7xx4xYvKszq4GlQjJRtq276pP9TCdWzsfzEf8M2ftA/8AROtf/wDBdP8A/EUf8M2ftA/9E61//wAF0/8A8RX9O9FfJ/8AEwmO/wCgaH3sn27P5TPGHw88dfD6e2tvHOgX2gy3is8KXtu8DSKpwxUOBkAnnFcdX6nf8FRf+Rv8B/8AXjef+jUr8sa/ofgzPp5nllHHVIqLmnottG1+hvB3Vwooor6coKvaZpmoa1qVpo+kW0l5fX0qQW8ESl5JZZWCoiKOSzMQAByTVGvXv2ff+S9fDf8A7GTSP/SyKuTH4h0aFSqlrFN/criZf/4Zs/aB/wCida//AOC6f/4ij/hmz9oH/onWv/8Agun/APiK/p3or+XP+JhMd/0DQ+9nP7dn8xH/AAzZ+0D/ANE61/8A8F0//wARR/wzZ+0D/wBE61//AMF0/wD8RX9O9FH/ABMJjv8AoGh97D27P5iP+GbP2gf+ida//wCC6f8A+Io/4Zs/aB/6J1r/AP4Lp/8A4iv6d6KP+JhMd/0DQ+9h7dn8xH/DNn7QP/ROtf8A/BdP/wDEUf8ADNn7QP8A0TrX/wDwXT//ABFf070Uf8TCY7/oGh97D27P5iP+GbP2gf8AonWv/wDgun/+Io/4Zs/aB/6J1r//AILp/wD4iv6d6KP+JhMd/wBA0PvYe3Z/MR/wzZ+0D/0TrX//AAXT/wDxFH/DNn7QP/ROtf8A/BdP/wDEV/TvRR/xMJjv+gaH3sPbs/mI/wCGbP2gf+ida/8A+C6f/wCIryLVdK1PQ9SutG1m1ksb+ykaGeCZSkkUiHDK6nkEHgg1/WpX8w37SH/JffiF/wBhy/8A/RzV+leGniXiM8xFWjWpRioxvpfvbqaU6lzxSvYNN/Z9+OWsafbatpXgLW7uyvI1lhmisJnjkjcZVlYLggg5BFeP1/UX8Bv+SJ+A/wDsCaf/AOiEr2PEzjqtkVCjVo01LnbWt+iv0HUnyn88P/DNn7QP/ROtf/8ABdP/APEUf8M2ftA/9E61/wD8F0//AMRX9O9Ffjv/ABMJjv8AoGh97Mvbs/mI/wCGbP2gf+ida/8A+C6f/wCIo/4Zs/aB/wCida//AOC6f/4iv6d6KP8AiYTHf9A0PvYe3Z/MR/wzZ+0D/wBE61//AMF0/wD8RR/wzZ+0D/0TrX//AAXT/wDxFf070Uf8TCY7/oGh97D27P5iP+GbP2gf+ida/wD+C6f/AOIo/wCGbP2gf+ida/8A+C6f/wCIr+neij/iYTHf9A0PvYe3Z/MR/wAM2ftA/wDROtf/APBdP/8AEUf8M2ftA/8AROtf/wDBdP8A/EV/TvRR/wATCY7/AKBofew9uz+Yj/hmz9oH/onWv/8Agun/APiKP+GbP2gf+ida/wD+C6f/AOIr+neij/iYTHf9A0PvYe3Z/MR/wzZ+0D/0TrX/APwXT/8AxFH/AAzZ+0D/ANE61/8A8F0//wARX9O9FH/EwmO/6Bofew9uz+Yj/hmz9oH/AKJ1r/8A4Lp//iKP+GbP2gf+ida//wCC6f8A+Ir+neij/iYTHf8AQND72Ht2fzEf8M2ftA/9E61//wAF0/8A8RXnPizwX4u8Cammi+NNGu9Dv3iWZYLyF4JDExKhwrgHaSpAPsa/q9r8I/8AgpX/AMnAad/2ALT/ANKLmvuPD3xZxWc5isFVoxiuVu6bvp6l06t3Y/Peiiiv3Y2CiiigAooooAKKKKACiiigAooooA5zxj/yKOt/9eNz/wCimr4Kr718Y/8AIo63/wBeNz/6KavgqvyDxA/3yH+FfnIynuf/0fheiiiv9MD0AooooAKKKKACiiigAooooAKKKKACiiigAooooAKKKKACiiigAooooAK/VP8A4Jdf8jR47/687T/0Y9flZX6p/wDBLr/kaPHf/Xnaf+jHr868Wv8AknsV6R/9KiRV+Fn7I0UUV/ChxBRRRQAV+DP7e37Pi/C/x8PiF4btynhzxZKzsij5La+xukjGOiycyKPXcBwBX7zV538V/htoXxc8Aav4A8QoDa6pEVWTGWhmX5o5V90YA+/TvX3Ph7xhPJsxjiP+XctJruu/qt193UuErM/lforsfiB4F8Q/DTxlqvgbxTD5OpaRM0MmOUcDlXQnGUdcMp9DXHV/eVCvCrCNSm7xaumuqezO0KKKK1AKKKKACiiigAooooA/Wn/glx/x+ePv+udj/OWv17r8hP8Aglx/x+ePv+udj/OWv17r+HfGL/kocR/27/6RE46vxBRRRX5iZn40/wDBUX/kb/Af/Xjef+jUr8sa/U7/AIKi/wDI3+A/+vG8/wDRqV+WNf3Z4Tf8k9hfSX/pUjtpfCgooor9ELCvXv2ff+S9fDf/ALGTSP8A0siryGvXv2ff+S9fDf8A7GTSP/SyKvMzr/c63+GX5MT2P6hqKKK/ziOAKKKKACiiigAooooAKKKKACiiigAr+Yb9pD/kvvxC/wCw5f8A/o5q/p5r+Yb9pD/kvvxC/wCw5f8A/o5q/oL6Pf8Av2J/wL8zehueKV/UX8Bv+SJ+A/8AsCaf/wCiEr+XSv6i/gN/yRPwH/2BNP8A/RCV9T9IX/c8L/if5FV9j1miiiv5UOYKKKKACiiigAooooAKKKKACiiigAooooAKKKKACvwj/wCClf8AycBp3/YAtP8A0oua/dyvwj/4KV/8nAad/wBgC0/9KLmv2LwM/wCR6v8ABL9DajufnvRRRX9nHUFFFFABRRRQAUUUUAFFFFABRRRQBznjH/kUdb/68bn/ANFNXwVX3r4x/wCRR1v/AK8bn/0U1fBVfkHiB/vkP8K/ORlPc//S+F6KKK/0wPQCiiigAooooAKKKKACiiigAooooAKKKKACiiigAooooAKKKKACiiigAr9U/wDgl1/yNHjv/rztP/Rj1+Vlfqn/AMEuv+Ro8d/9edp/6Mevzrxa/wCSexXpH/0qJFX4WfsjRRRX8KHEFFFFABRRRQB+a3/BQj9npfGfhRfjF4XtC2t+HY9uoLGMtcWA53kDq0Byc9dhOeFGPxEr+t+aGK5hkt7hBJFKpR1YZDKwwQR6EV/Ob+178Ap/gV8ULi302Mnw1rpe70x8cIpP7yA+8THA9VKnrkV/Uvgbxt7Wm8nxMvejrDzXWPy3XlfsdNGfQ+UqKKK/os3CiiigAooooAKKKKAP1p/4Jcf8fnj7/rnY/wA5a/XuvyE/4Jcf8fnj7/rnY/zlr9e6/h3xi/5KHEf9u/8ApETjq/EFFFFfmJmfjT/wVF/5G/wH/wBeN5/6NSvyxr9Tv+Cov/I3+A/+vG8/9GpX5Y1/dnhN/wAk9hfSX/pUjtpfCgooor9ELCvXv2ff+S9fDf8A7GTSP/SyKvIa9e/Z9/5L18N/+xk0j/0sirzM6/3Ot/hl+TE9j+oaiiiv84jgCsvW76TS9Fv9TiUO9pbyzKrdCY0LAH24rUrnvF3/ACKetf8AXlc/+imrbDxTqRT7oEfjgf8Agp78UQSP+ES0f/vq4/8AjlJ/w89+KP8A0KWj/wDfVx/8cr8zm+8frTa/uv8A4hbw/wD9Akfvl/mdvs49j9M/+HnvxR/6FLR/++rj/wCOUf8ADz34o/8AQpaP/wB9XH/xyvzMoo/4hbw//wBAkfvf+Yezj2P0z/4ee/FH/oUtH/76uP8A45R/w89+KP8A0KWj/wDfVx/8cr8zKKP+IW8P/wDQJH73/mHs49j9M/8Ah578Uf8AoUtH/wC+rj/45R/w89+KP/QpaP8A99XH/wAcr8zKKP8AiFvD/wD0CR+9/wCYezj2P0z/AOHnvxR/6FLR/wDvq4/+OV+fHjzxdeePvGmt+NtQgS2udcvJrySKLOxHmcuVXdk4BPGa5OivbyThDLctnKpgaKg5Kztfb5tjUUtgr9DvBv8AwUX+JHgvwlo3hGy8L6VPb6LaQWcckjT73WBAgZsOBkgc4r88aK6M74bwOZRjDHUlNR1V76fc0Eop7n6Z/wDDz34o/wDQpaP/AN9XH/xyj/h578Uf+hS0f/vq4/8AjlfmZRXzn/ELeH/+gSP3v/MXs49j9M/+HnvxR/6FLR/++rj/AOOUf8PPfij/ANClo/8A31cf/HK/Myij/iFvD/8A0CR+9/5h7OPY/TP/AIee/FH/AKFLR/8Avq4/+OUf8PPfij/0KWj/APfVx/8AHK/Myij/AIhbw/8A9Akfvf8AmHs49j+pL4J+PL/4n/Crw34+1S2itLvW7VbiSKHd5aMSRhdxJxx3NepV85fsjf8AJt3gH/sGp/6E1fRtfxLxBh4UcfiKVNWjGckl2SbscctwoooryBH5jftKfty+O/gl8XdV+Heh+H9Nv7PT4rWRZrgzCRjPCkpzscDgtgcdK8H/AOHnvxR/6FLR/wDvq4/+OV41+37/AMnQeJP+vfTv/SSKvjGv7P4R8OMkxGVYWvWwycpQi29dW0rvc64U1bY/TP8A4ee/FH/oUtH/AO+rj/45R/w89+KP/QpaP/31cf8AxyvzMor6L/iFvD//AECR+9/5lezj2P0z/wCHnvxR/wChS0f/AL6uP/jlH/Dz34o/9Clo/wD31cf/AByvzMoo/wCIW8P/APQJH73/AJh7OPY/TP8A4ee/FH/oUtH/AO+rj/45Xxz8fPjjrv7QHjWDxv4h0+2025gsorIRWpcxlInkcMd5JyTIe/avEqK9TJ+B8qy+t9YwdBQna11fZ+rY1BLYKKKK+rKCiiigAooooAKKKKACiiigAooooA5zxj/yKOt/9eNz/wCimr4Kr718Y/8AIo63/wBeNz/6KavgqvyDxA/3yH+FfnIynuf/0/heiiiv9MD0AooooAKKKKACiiigAooooAKKKKACiiigAooooAKKKKACiiigAooooAK/VP8A4Jdf8jR47/687T/0Y9flZX6p/wDBLr/kaPHf/Xnaf+jHr868Wv8AknsV6R/9KiRV+Fn7I0UUV/ChxBXyt4x+K0fw/wD2ovC/hDWrhk0nxzorWsO5v3cV/azyPGxB4Hmq5jJHJbZ2r6pr8f8A/gpxPdaZ4s+HWtafI0F3aw3bRSocMjxyROrA+oPIr7nw7yenmGZLA1dqkZq/Z8rafyaTLpq7sfsBRXzh+y38c7T48fCyx8RTOi67YbbTVIV423KKP3gXqElHzL26jsa+j6+VzTLa2DxE8LXVpwdn/X5EtWCvAv2kvglpnx3+F+oeEpkRdVgBudMuG4MN2g+XnsrjKN7HPUDHvtFTl2YVsJXhiaErTi00/NAnY/kt1jSNT8P6reaHrVs9nf2ErwTwyDDxyRnaysPUEVm1+sn/AAUW/Z7W0uI/jz4XgIjuClvrMajhX4WG54/vfcf3CnqTX5N1/fvCHE1LN8BTxtLro12kt1/l5WZ2wldXCiiivpigooooAKKKKAP1p/4Jcf8AH54+/wCudj/OWv17r8hP+CXH/H54+/652P8AOWv17r+HfGL/AJKHEf8Abv8A6RE46vxBRRRX5iZn40/8FRf+Rv8AAf8A143n/o1K/LGv1O/4Ki/8jf4D/wCvG8/9GpX5Y1/dnhN/yT2F9Jf+lSO2l8KCiiiv0QsK9e/Z9/5L18N/+xk0j/0siryGvXv2ff8AkvXw3/7GTSP/AEsirzM6/wBzrf4ZfkxPY/qGooor/OI4ArnvF3/Ip61/15XP/opq6Gue8Xf8inrX/Xlc/wDopq3wv8WPqho/k+b7x+tNpzfeP1ptf6UneFFFFABRRRQAUUUUAFFFFABRRRQAUUUUAFFFFABRRRQB/Sv+yN/ybd4B/wCwan/oTV9G185fsjf8m3eAf+wan/oTV9G1/nbxT/yM8V/18n/6UzhluFFFFeCSfz0/t+/8nQeJP+vfTv8A0kir4xr7O/b9/wCToPEn/Xvp3/pJFXxjX+g3Av8AyJcH/wBe4f8ApKO6GyCiiivqigooooAKKKKACiiigAooooAKKKKACiiigAooooAKKKKAOc8Y/wDIo63/ANeNz/6KavgqvvXxj/yKOt/9eNz/AOimr4Kr8g8QP98h/hX5yMp7n//U+F6KKK/0wPQCiiigAooooAKKKKACiiigAooooAKKKKACiiigAooooAKKKKACiiigAr9U/wDgl1/yNHjv/rztP/Rj1+Vlfqn/AMEuv+Ro8d/9edp/6Mevzrxa/wCSexXpH/0qJFX4WfsjRRRX8KHEFfkL/wAFRlH2rwC/fZfD9Y6/XqvyL/4KjD5/AJ9r7/2lX6b4PP8A4yHD/wDb3/pEjSl8R8Tfsq/He5+A3xRtNcuWd9A1PbaapEvOYGbiUL3aI/MPUZHev6Q7G+s9TsoNR0+Zbi1uo1likQ5V0cZVge4IOa/klr9nf+Cd/wC0Mdf0Z/gf4svA2oaTG0ukPIcNLar9+3BPVos7lHXZnHCcfr3jhwR7ej/a+Gj70FafnHo/+3evl6GtaHVH6j0UUV/KhzGP4h0DSfFWhX/hvXrdbvTtTgkt54nGVeORSrD8jwex5r+Z79oD4Naz8DPiZqfgnUgZLRW86wuO1xaSHMbZ/vD7rjswPbBr+nmvjr9s/wDZ9i+Nvwzlv9Ft9/irw2r3NgUHzzJjMtufXeBlR/fAx1IP6x4Scbf2Vj/Y13+5q2T8n0l+j8vQ1pTsz+eCinMrIxRwVZTgg8EEdjTa/tg6wooooAKKKKAP1p/4Jcf8fnj7/rnY/wA5a/XuvyE/4Jcf8fnj7/rnY/zlr9e6/h3xi/5KHEf9u/8ApETjq/EFFFFfmJmfjT/wVF/5G/wH/wBeN5/6NSvyxr9Tv+Cov/I3+A/+vG8/9GpX5Y1/dnhN/wAk9hfSX/pUjtpfCgooor9ELCvXv2ff+S9fDf8A7GTSP/SyKvIa9e/Z9/5L18N/+xk0j/0sirzM6/3Ot/hl+TE9j+oaiiiv84jgCue8Xf8AIp61/wBeVz/6KauhrnvF3/Ip61/15XP/AKKat8L/ABY+qGj+T5vvH602nN94/Wm1/pSd4UUUUAFFFFABRRRQAUUUUAFFFFABRRRQAUUUUAFFFFAH9K/7I3/Jt3gH/sGp/wChNX0bXzl+yN/ybd4B/wCwan/oTV9G1/nbxT/yM8V/18n/AOlM4ZbhRRRXgkn89P7fv/J0HiT/AK99O/8ASSKvjGvs79v3/k6DxJ/176d/6SRV8Y1/oNwL/wAiXB/9e4f+ko7obIKKKK+qKCiiigAooooAKKKKACiiigAooooAKKKKACiiigAooooA5zxj/wAijrf/AF43P/opq+Cq+9fGP/Io63/143P/AKKavgqvyDxA/wB8h/hX5yMp7n//1fheiiiv9MD0AooooAKKKKACiiigAooooAKKKKACiiigAooooAKKKKACiiigAooooAK/VP8A4Jdf8jR47/687T/0Y9flZX6p/wDBLr/kaPHf/Xnaf+jHr868Wv8AknsV6R/9KiRV+Fn7I0UUV/ChxBX5Gf8ABUb73gH6X3/tKv1zr8jP+Co33vAP0vv/AGlX6b4Pf8lDhv8At7/0iRpS+I/I6uj8I+Kta8D+JtM8XeHZzbalpM6XEDjsyHOCO4I4I7gkVzlFf2/VpRnFwmrp6NeR2H9RPwP+LejfG34baV4+0cCJrtNl1bhtxt7pAPNiJ74PKnupB7163X8+X7Ef7Qh+DPxIXQPEN0Y/Cnid0gutx/d29wTtiuMdgCdrn+7yfuiv6DFZXUOhDKwyCOQQa/hLxH4Nlk2YypRX7qWsH5dvWO3pZ9TiqQsxaKKK+AIPwq/b+/Z7b4d+OB8UfDcAHh/xTKxuEQYFtfn5nBxwFlHzr/tBh6Z/PCv6pvif8OvD3xX8C6t4D8TwiWy1SEoG/iilHMcqHsyNhh9MHgkV/Mj8Sfh/4g+FvjfV/AnieEw3+kzNGSRhZE6xyp6pIpDKfQ1/ZPg1xt/aOC+pV5fvaS/8Cj0fy2fyfU6qU7qxw9FFFfs5sFFFFAH60/8ABLj/AI/PH3/XOx/nLX691+Qn/BLj/j88ff8AXOx/nLX691/DvjF/yUOI/wC3f/SInHV+IKKKK/MTM/Gn/gqL/wAjf4D/AOvG8/8ARqV+WNfqd/wVF/5G/wAB/wDXjef+jUr8sa/uzwm/5J7C+kv/AEqR20vhQUUUV+iFhXr37Pv/ACXr4b/9jJpH/pZFXkNevfs+/wDJevhv/wBjJpH/AKWRV5mdf7nW/wAMvyYnsf1DUUUV/nEcAVz3i7/kU9a/68rn/wBFNXQ1ma1YPqmjX+mRsEe7t5YQx6AyIVBP0zW2HklUi33QI/kwb7x+tNr9Qj/wS+8fkk/8JppnP/TCb/Cj/h194/8A+h10z/vxN/hX90f8RV4f/wCgtfdL/I7faR7n5e0V+oX/AA6+8f8A/Q66Z/34m/wo/wCHX3j/AP6HXTP+/E3+FH/EVeH/APoLX3S/yD2ke5+XtFfqF/w6+8f/APQ66Z/34m/wo/4dfeP/APoddM/78Tf4Uf8AEVeH/wDoLX3S/wAg9pHufl7RX6hf8OvvH/8A0Oumf9+Jv8KP+HX3j/8A6HXTP+/E3+FH/EVeH/8AoLX3S/yD2ke5+XtFfRH7Rf7O+t/s6eINK8P63q1vq8mq2rXSPbo6Kiq5TaQ/OcjNfO9faZbmVDGUI4nDS5oS2ff7yk7hRRRXcMKKKKACiiigAooooA/pX/ZG/wCTbvAP/YNT/wBCavo2vnL9kb/k27wD/wBg1P8A0Jq+ja/zt4p/5GeK/wCvk/8A0pnDLcKKKK8Ek/np/b9/5Og8Sf8AXvp3/pJFXxjX2d+37/ydB4k/699O/wDSSKvjGv8AQbgX/kS4P/r3D/0lHdDZBRRRX1RQUUUUAFFFFABRRRQAUUUUAFFFFABRRRQAUUUUAFFFFAHOeMf+RR1v/rxuf/RTV8FV96+Mf+RR1v8A68bn/wBFNXwVX5B4gf75D/CvzkZT3P/W+F6KKK/0wPQCiiigAooooAKKKKACiiigAooooAKKKKACiiigAooooAKKKKACiiigAr9U/wDgl1/yNHjv/rztP/Rj1+Vlfqn/AMEuv+Ro8d/9edp/6Mevzrxa/wCSexXpH/0qJFX4WfsjRRRX8KHEFfkZ/wAFRvveAfpff+0q/XOvyM/4Kjfe8A/S+/8AaVfpvg9/yUOG/wC3v/SJGlL4j8jqKKK/uM7A6civ3m/YL/aFb4o+Az8PfE1yJPEnhSJVRmPz3NgMLHIc8lozhHP+6Tya/BmvRPhT8Sdd+Enj7SPH3h5yLnTJQzR5IWaFuJImx2dcj269q+G8QeD4Zzl0sP8A8vI6wfZ9vR7P7+hFSN0f1QUVxfw78e+H/id4L0nx14Yl83T9WhWVAcb42PDRuBnDo2VYeo9K7Sv4Nr0J0pypVFaSdmn0a3OIK/OX/goH+z2PHvgwfFnw1BnXfDER+1og5uLAZZjx/FCfmH+zu9q/RqmSRxzRvDMgeNwVZWGQQeCCD1Br2OGuIK2V42njaG8Xt3XVP1X+ZUZWdz+R6ivrv9sf9n+b4HfE6aXSLcp4W8Ql7nTmUfJEc/vbc+hjJ+Uf3CPfHyJX+gGTZvRx+Fp4vDu8Jq6/yfmno/M7U7q4UUUV6Yz9af8Aglx/x+ePv+udj/OWv17r8hP+CXH/AB+ePv8ArnY/zlr9e6/h3xi/5KHEf9u/+kROOr8QUUUV+YmZ+NP/AAVF/wCRv8B/9eN5/wCjUr8sa/U7/gqL/wAjf4D/AOvG8/8ARqV+WNf3Z4Tf8k9hfSX/AKVI7aXwoKKKK/RCwr179n3/AJL18N/+xk0j/wBLIq8hr179n3/kvXw3/wCxk0j/ANLIq8zOv9zrf4ZfkxPY/qGooor/ADiOAKKKKACiiigAooooAKKKKACiiigD8Vf+CoH/ACUrwd/2CJP/AEoavzFr9Ov+CoH/ACUrwd/2CJP/AEoavzFr+8PCv/kn8J6P/wBKZ20vhQUUUV+gFhRRRQAUUUUAFFFFAH9K/wCyN/ybd4B/7Bqf+hNX0bXzl+yN/wAm3eAf+wan/oTV9G1/nbxT/wAjPFf9fJ/+lM4ZbhRRRXgkn89P7fv/ACdB4k/699O/9JIq+Ma+zv2/f+ToPEn/AF76d/6SRV8Y1/oNwL/yJcH/ANe4f+ko7obIKKKK+qKCiiigAooooAKKKKACiiigAooooAKKKKACiiigAooooA5zxj/yKOt/9eNz/wCimr4Kr718Y/8AIo63/wBeNz/6KavgqvyDxA/3yH+FfnIynuf/1/heiiiv9MD0AooooAKKKKACiiigAooooAKKKKACiiigAooooAKKKKACiiigAooooAK/VP8A4Jdf8jR47/687T/0Y9flZX6p/wDBLr/kaPHf/Xnaf+jHr868Wv8AknsV6R/9KiRV+Fn7I0UUV/ChxBX5Gf8ABUb73gH6X3/tKv1zr8jP+Co33vAP0vv/AGlX6b4Pf8lDhv8At7/0iRpS+I/I6iiiv7jOwKKKKAP0f/4J+ftDnwL4uPwj8VXoj0DxJKDYtKflt9QbChQT0WfAXHTeF6ZJP7i1/I/FLLBKk8LFJI2DKwOCGByCD6iv6J/2Of2gI/jl8MYU1eQf8JP4eCWuornmUAYjuAP+mgHzejg9sV/LnjlwR7OaznDR0lpPyfSXz2fnbuc1aHU+uaKKK/nIwPDP2iPgtpHx2+GWo+DL4CK/UG4064xzBdxg7Dn+633XHdSe4Br+aPXdE1Pw3rV94e1q3a11DTZ5Le4icYZJYmKsp+hFf1n1+SH/AAUX/Z8eTy/jz4XtwdojttajQfNj7sNzx1A4R/8AgJ6ZI/e/BHjb6rif7KxEvcqP3fKXb/t787dzajO2h+RVFFFf1qdR+tP/AAS4/wCPzx9/1zsf5y1+vdfkJ/wS4/4/PH3/AFzsf5y1+vdfw74xf8lDiP8At3/0iJx1fiCiiivzEzPxp/4Ki/8AI3+A/wDrxvP/AEalfljX6nf8FRf+Rv8AAf8A143n/o1K/LGv7s8Jv+SewvpL/wBKkdtL4UFFFFfohYV69+z7/wAl6+G//YyaR/6WRV5DXr37Pv8AyXr4b/8AYyaR/wClkVeZnX+51v8ADL8mJ7H9Q1FFFf5xHAFFFYPimWWDwxq88LmOSOzuGVlOCrCNiCCOhFXThzSUe4G9RX8tzfG/4y7j/wAVzrfX/oI3H/xdJ/wvD4y/9Dzrf/gxuP8A4uv6E/4l6xf/AEFR/wDAX/mb+wZ/UlRX8tv/AAvD4y/9Dzrf/gxuP/i6P+F4fGX/AKHnW/8AwY3H/wAXT/4l6xf/AEFR/wDAX/mHsGf1JUV/Lb/wvD4y/wDQ863/AODG4/8Ai6P+F4fGX/oedb/8GNx/8XR/xL1i/wDoKj/4C/8AMPYM/qSor+W3/heHxl/6HnW//Bjcf/F0f8Lw+Mv/AEPOt/8AgxuP/i6P+JesX/0FR/8AAX/mHsGfdH/BUD/kpXg7/sESf+lDV+YtdH4j8X+K/GFxFd+LNYvNZngXZG95O87IhOdqlySBnnArnK/oThHI5ZbltHAzlzOCtdddW/1N4RsrBRRRX0hQUUUUAFFFFABRRRQB/Sv+yN/ybd4B/wCwan/oTV9G185fsjf8m3eAf+wan/oTV9G1/nbxT/yM8V/18n/6UzhluFFFFeCSfz0/t+/8nQeJP+vfTv8A0kir4xr7O/b9/wCToPEn/Xvp3/pJFXxjX+g3Av8AyJcH/wBe4f8ApKO6GyCiiivqigooooAKKKKACiiigAooooAKKKKACiiigAooooAKKKKAOc8Y/wDIo63/ANeNz/6KavgqvvXxj/yKOt/9eNz/AOimr4Kr8g8QP98h/hX5yMp7n//Q+F6KKK/0wPQCiiigAooooAKKKKACiiigAooooAKKKKACiiigAooooAKKKKACiiigAr9U/wDgl1/yNHjv/rztP/Rj1+Vlfqn/AMEuv+Ro8d/9edp/6Mevzrxa/wCSexXpH/0qJFX4WfsjRRRX8KHEFfkZ/wAFRvveAfpff+0q/XOvyM/4Kjfe8A/S+/8AaVfpvg9/yUOG/wC3v/SJGlL4j8jqKKK/uM7AooooAK9w/Z5+M+q/Ar4nab41smd7En7PqNuh/wBfZyEeYuOhZcBl/wBoCvD6K48wwFLFUJ4evG8JJpryYmrn9Znh/X9I8U6HYeJNAuVvNO1KFLi3mT7rxyDKn8uoPI6GtivyF/4J1ftCvFPJ8B/FVyDHJvuNFkkOCGxultsnqDgug653DuAP16r+BOMuF6uUZhUwdTVLWL7xez/R+aZxTjZ2CsrXdD0nxNot94e122S807UoXt7iFxlZIpFKsp+oPXqO1atFfMQm4tSi7NEn8yH7RfwW1T4FfE/UfBt2rvp7n7Rp1w4/19pITsOehZSCre4PtXhVf0WftjfACP45fDCY6TGP+Em8PB7vTmxzLgfvLcn0kA4/2gvbNfzryxSwSvBMhjkjYqysMFWBwQR6g1/dHhlxms5y5SqP97DSfr0l/wBvfndHZTndH6y/8EuP+Pzx9/1zsf5y1+vdfkF/wS5b/T/Hy/8ATKxP/j0lfr7X8x+MX/JQ4j/t3/0iJz1fiCiiivzEzPxp/wCCov8AyN/gP/rxvP8A0alfljX6nf8ABUX/AJG/wH/143n/AKNSvyxr+7PCb/knsL6S/wDSpHbS+FBRRRX6IWFevfs+/wDJevhv/wBjJpH/AKWRV5DXr37Pv/Jevhv/ANjJpH/pZFXmZ1/udb/DL8mJ7H9Q1FFFf5xHAFc94u/5FPWv+vK5/wDRTV0Nc94u/wCRT1r/AK8rn/0U1b4X+LH1Q0fyfN94/Wm05vvH602v9KTvCiiigAooooAKKKKACiiigAooooAKKKKACiiigAooooA/pX/ZG/5Nu8A/9g1P/Qmr6Nr5y/ZG/wCTbvAP/YNT/wBCavo2v87eKf8AkZ4r/r5P/wBKZwy3CiiivBJP56f2/f8Ak6DxJ/176d/6SRV8Y19nft+/8nQeJP8Ar307/wBJIq+Ma/0G4F/5EuD/AOvcP/SUd0NkFFFFfVFBRRRQAUUUUAFFFFABRRRQAUUUUAFFFFABRRRQAUUUUAc54x/5FHW/+vG5/wDRTV8FV96+Mf8AkUdb/wCvG5/9FNXwVX5B4gf75D/CvzkZT3P/0fheiiiv9MD0AooooAKKKKACiiigAooooAKKKKACiiigAooooAKKKKACiiigAooooAK/VP8A4Jdf8jR47/687T/0Y9flZX6p/wDBLr/kaPHf/Xnaf+jHr868Wv8AknsV6R/9KiRV+Fn7I0UUV/ChxBX5Gf8ABUb73gH6X3/tKv1zr8jP+Co33vAP0vv/AGlX6b4Pf8lDhv8At7/0iRpS+I/I6iiiv7jOwKKKKACiiigDR0jVdQ0LVbPW9Jna2vbCaOeCVDhkliYMrAjuCM1/Sp+zX8b9M+PPwwsPFkGItVtwLbU7cdYrtANxA/uSffT2OOoNfzNV9U/sjfH25+BPxPtrvULhl8Ma2UtdUj5KqhPyTgf3oic5HO0sO9flvitwT/a+XudFfvqd3HzXWPz6edu7M6sLo/o7oqC2ube9tory0lWaCdFeORCGV0YZVlI4II5Bqev4iatozjCvw4/4KCfs9HwJ4xHxb8LWfl6B4llIvVjGEt9QbLMSB0WfBbPTfu6ZGf3Hrh/iR8P/AA/8UvBGr+A/E0Zew1eBomZcb4nP3JUzwHRsMvbI544r7PgLi6eTZjDEr4HpNd4v9Vui4Ssz8rv+CXU3/E+8eW/rbWbfk7iv2Jr8lf2D/BGufCX4/wDxJ+GfiNdt5YWUYDYwssaTApKv+y6uCPrX61V7Xi/VhUz2pWpu8ZRg0+6cVqOruFFFFfmJmfjT/wAFRf8Akb/Af/Xjef8Ao1K/LGv1O/4Ki/8AI3+A/wDrxvP/AEalfljX92eE3/JPYX0l/wClSO2l8KCiiiv0QsK9e/Z9/wCS9fDf/sZNI/8ASyKvIa9e/Z9/5L18N/8AsZNI/wDSyKvMzr/c63+GX5MT2P6hqKKK/wA4jgCue8Xf8inrX/Xlc/8Aopq6Gue8Xf8AIp61/wBeVz/6Kat8L/Fj6oaP5Pm+8frTac33j9abX+lJ3hRRRQAUUUUAFFFFABRRRQAUUUUAFFFFABRRRQAUUUUAf0r/ALI3/Jt3gH/sGp/6E1fRtfOX7I3/ACbd4B/7Bqf+hNX0bX+dvFP/ACM8V/18n/6UzhluFFFFeCSfz0/t+/8AJ0HiT/r307/0kir4xr7O/b9/5Og8Sf8AXvp3/pJFXxjX+g3Av/Ilwf8A17h/6Sjuhsgooor6ooKKKKACiiigAooooAKKKKACiiigAooooAKKKKACiiigDnPGP/Io63/143P/AKKavgqvvXxj/wAijrf/AF43P/opq+Cq/IPED/fIf4V+cjKe5//S+F6KKK/0wPQCiiigAooooAKKKKACiiigAooooAKKKKACiipre3uLueO1tY2mmlYKiICzMx4AAHJJ9KTdtWBDRX0Z4d/ZI/aP8U2q3ukeBL7yXGVa4MVpkHuBcPGTVXxP+yp+0P4PtXvdd8C36QRjLPAEu1Ue5t3kxXiLifLXU9ksTDm7c8b/AHXFzLufPtFPkjkhkaKVSjoSrKwwQR1BB6GmV7gwooooAK/VP/gl1/yNHjv/AK87T/0Y9flZX6p/8Euv+Ro8d/8AXnaf+jHr868Wv+SexXpH/wBKiRV+Fn7I0UUV/ChxBX5Gf8FRvveAfpff+0q/XOvyM/4Kjfe8A/S+/wDaVfpvg9/yUOG/7e/9IkaUviPyOooor+4zsCiiigAooooAKKKKAP2x/wCCen7Qp8W+Gn+DHiifdq2gRmTTZGPzT2Q6x89WhJ49UI/ukn9M6/lF8D+Mtd+Hvi3SvGnhm4a21LSZ1nidTjO3qreqsMqw6EEiv6a/g58VPD/xm+Hmk+PvDrjyr6MCeH+K3uU4lhYeqNnB7jDDgiv4+8aOCPqOL/tHDx/dVXr/AHZ9flLdedzlqws7np9FFFfiBieeXPw80yT4n2PxStiIdSg02fSrgBf9fbySJNHk+sbq2OvDGvQ6KK3rYmdRRU3flVl6dvxAKKKKwA/Gn/gqL/yN/gP/AK8bz/0alfljX6nf8FRf+Rv8B/8AXjef+jUr8sa/uzwm/wCSewvpL/0qR20vhQUUUV+iFhXr37Pv/Jevhv8A9jJpH/pZFXkNevfs+/8AJevhv/2Mmkf+lkVeZnX+51v8MvyYnsf1DUUUV/nEcAVz3i7/AJFPWv8Aryuf/RTV0Nc94u/5FPWv+vK5/wDRTVvhf4sfVDR/J833j9abTm+8frTa/wBKTvCiiigAooooAKKKKACiiigAooooAKKKKACiiigAooooA/pX/ZG/5Nu8A/8AYNT/ANCavo2vnL9kb/k27wD/ANg1P/Qmr6Nr/O3in/kZ4r/r5P8A9KZwy3CiiivBJP56f2/f+ToPEn/Xvp3/AKSRV8Y19nft+/8AJ0HiT/r307/0kir4xr/QbgX/AJEuD/69w/8ASUd0NkFFFFfVFBRRRQAUUUUAFFFFABRRRQAUUUUAFFFFABRRRQAUUUUAc54x/wCRR1v/AK8bn/0U1fBVfevjH/kUdb/68bn/ANFNXwVX5B4gf75D/CvzkZT3P//T+F6KKK/0wPQCiiigAooooAKKKKACiiigAooooAKKKKAN3wx4a1rxj4h0/wALeHbZrvUtUmS3t4l6s7nA57DuT2HNf0Jfs0/sneCfgNottqN3bxar4ymj/wBK1F13eUzD5o7bcPkQdNwAZu/HA+Af+CZ/gDT9b+IviHx9qMQlfw5aRw2m4ZCT3hIaQf7Sxoyj2c1+2dfyv438bYh4p5Rh5OMIpc9vtNq9n5JW06vfZHNWnrYKKKK/ncwPij9qT9jzwl8bNJvPEvhe1i0nxvEm+K4QCOO8Kj/V3AAwSRwsn3hxkkcV+Aer6RqegareaHrNs9nf2ErwTwyDDxyRnaykeoIr+tOvwj/4KO/D6z8K/Gix8WadGIofFliJ5QBgG6tm8qQ/8CTyyfck1/SPgfxviJV/7IxMuaLTcL7q28fS2q7W8zooz6H570UUV/T50BX6p/8ABLr/AJGjx3/152n/AKMevysr9U/+CXX/ACNHjv8A687T/wBGPX514tf8k9ivSP8A6VEir8LP2Rooor+FDiCvyM/4Kjfe8A/S+/8AaVfrnX5Gf8FRvveAfpff+0q/TfB7/kocN/29/wCkSNKXxH5HUUUV/cZ2BRRRQAUUUUAFFFFABX3Z+wr+0K/wl+Ia+C/EV0I/C3iqRIpDIcJbXh+WKbJ4VW+4/bBBP3a+E6K8fP8AI6GZYOpgsQvdkrej6NeaeopK6sf1yUV8J/sLftCr8Wvh4PBniKct4o8KxpFIznLXVp92Kb1LL9x/cA/xcfdlf5/5/klfLsZUwWIXvRdvVdGvJrU4ZKzsFFFFeOIKKKKAPxp/4Ki/8jf4D/68bz/0alfljX6nf8FRf+Rv8B/9eN5/6NSvyxr+7PCb/knsL6S/9KkdtL4UFFFFfohYV69+z7/yXr4b/wDYyaR/6WRV5DXr37Pv/Jevhv8A9jJpH/pZFXmZ1/udb/DL8mJ7H9Q1FFFf5xHAFZet2MmqaLf6ZEwR7u3lhVm6AyIVBOO3NalFVCTi1JdAPxPP/BML4okk/wDCXaN/3zc//G6P+HYPxR/6G7Rv++bn/wCN1+2FFfq//EbOIP8An7H/AMBj/ka+1kfif/w7B+KP/Q3aN/3zc/8Axuj/AIdg/FH/AKG7Rv8Avm5/+N1+2FFH/EbOIP8An7H/AMBX+Qe1kfif/wAOwfij/wBDdo3/AHzc/wDxuj/h2D8Uf+hu0b/vm5/+N1+2FFH/ABGziD/n7H/wFf5B7WR+J/8Aw7B+KP8A0N2jf983P/xuj/h2D8Uf+hu0b/vm5/8AjdfthRR/xGziD/n7H/wFf5B7WR+J/wDw7B+KP/Q3aN/3zc//ABuvJfjb+w946+B/w/u/iFrviDTdQtLOWCJobYTCQmdwgI3oowCeea/oKr4n/wCCgv8AybLrf/X5p/8A6ULXv8KeLmd4vM8Nhq1ROM5xT91bN2fQcarbP586KKK/rg6gooooAKKKKACiiigD+lf9kb/k27wD/wBg1P8A0Jq+ja+cv2Rv+TbvAP8A2DU/9Cavo2v87eKf+Rniv+vk/wD0pnDLcKKKK8Ek/np/b9/5Og8Sf9e+nf8ApJFXxjX2d+37/wAnQeJP+vfTv/SSKvjGv9BuBf8AkS4P/r3D/wBJR3Q2QUUUV9UUFFFFABRRRQAUUUUAFFFFABRRRQAUUUUAFFFFABRRRQBznjH/AJFHW/8Arxuf/RTV8FV96+Mf+RR1v/rxuf8A0U1fBVfkHiB/vkP8K/ORlPc//9T4Xooor/TA9AKKKKACiiigAooooAKKKKACiiigAooooA/WH/gl3r9nHq3jnwtI4W6nhtLyNe7RxM8chH+6XTP1r9g6/ly+CfxW1j4LfEnSPiDo6mU2LlbiANtE9tINssR+o5GejAHtX9Kfw4+I/hH4reE7Lxp4KvVvdOvFHtJE+AWilX+F1zgj8sjBP8geOPDNahmTzFK9Oqlr2klaz9Uk1317HLWjrc7qiiivw4xCvxV/4KeeJbK/+InhDwrA4e40jTpribHO03koCqffEOcehB71+rXxd+Lvg74LeDbvxj4xuliihVhBbhh511MBlYolPViep6Acniv5q/in8Rdb+LHj7WfH/iDC3erTGTy1OVijA2xxrnsigAfTNfvPgVwxWq5g8zlG1Ommk+8mrWXom7/I2ox1uef0UUV/W51BX6p/8Euv+Ro8d/8AXnaf+jHr8rK/VP8A4Jdf8jR47/687T/0Y9fnXi1/yT2K9I/+lRIq/Cz9kaKKK/hQ4gr8jP8AgqN97wD9L7/2lX651+Rn/BUb73gH6X3/ALSr9N8Hv+Shw3/b3/pEjSl8R+R1FFFf3GdgUUUUAFFFFABRRRQAUUUUAeofBz4p6/8ABr4h6V498PSESWMm2eLPy3Fs/EsTDuGXp6HBHIFf00+B/GegfEPwlpXjXwxcLdabq8CzxODyN33kYdmRsqw6ggg1/KNX6af8E8/2hW8KeJW+Cviab/iU6/KZNNkduIL09Yuf4Zu3+2B/eNfh/jTwR9ewn9o4eP72ktfOHX5x3XlcxrQurn7YUUUV/H5yhRRRQB+NP/BUX/kb/Af/AF43n/o1K/LGv1O/4Ki/8jf4D/68bz/0alfljX92eE3/ACT2F9Jf+lSO2l8KCiiiv0QsK9e/Z9/5L18N/wDsZNI/9LIq8hr179n3/kvXw3/7GTSP/SyKvMzr/c63+GX5MT2P6hqKKK/ziOAKKKKACiiigAooooAKKKKACiiigAr4n/4KC/8AJsut/wDX5p//AKULX2xXxP8A8FBf+TZdb/6/NP8A/Sha+t4D/wCR3g/+vkP/AEpFw3R/PnRRRX+gZ2hRRRQAUUUUAFFFFAH9K/7I3/Jt3gH/ALBqf+hNX0bXzl+yN/ybd4B/7Bqf+hNX0bX+dvFP/IzxX/Xyf/pTOGW4UUUV4JJ/PT+37/ydB4k/699O/wDSSKvjGvs79v3/AJOg8Sf9e+nf+kkVfGNf6DcC/wDIlwf/AF7h/wCko7obIKKKK+qKCiiigAooooAKKKKACiiigAooooAKKKKACiiigAooooA5zxj/AMijrf8A143P/opq+Cq+9fGP/Io63/143P8A6KavgqvyDxA/3yH+FfnIynuf/9X4Xooor/TA9AKKKKACiiigAooooAKKKKACiiigAooooAK9P+F3xk+I3wa1l9b+HusSabLOFE8XDwTqucCWJsq2MnBxkZOCM15hRXPi8JSr03RrxUovdNXT+QNH6o+FP+Cofiizslg8a+B7XVLlRgz2N49mpx3Mckc/J74YD2qp4x/4KfeNdQtGt/A3g2z0WZuPPvLl74j3VESBQfruHtX5c0V8GvCfh5Vfa/VVf1lb7ua34WM/ZR7HoHxG+KXj34s66fEXj/WJtWvACsfmHEcSE52xRrhUX2A5715/RRX3uGw1OjTVKlFRitklZL0RoFFFFbgFdZ4U8e+N/AstxP4K1+/0GS6ULM1jcyWxkVTkBjGy5AJ4zXJ0VnWowqRcKiTT6PVAew/8NC/Hj/ooniD/AMGlz/8AHKP+Ghfjx/0UTxB/4NLn/wCOV49RXn/2Hgv+fEf/AAFf5Csj2H/hoX48f9FE8Qf+DS5/+OVx3iv4hePPHf2f/hNfEWoa99k3eT9uupbny9+N2zzGbGcDOK4+itaOVYWnJTp0op90kn+QWCiiiu8YUUUUAFFFFABRRRQAUUUUAFTW9xcWlxFdWsjQzwsrxuhKsjqchlI5BB5BFQ0Umr6MD2H/AIaF+PH/AEUTxB/4NLn/AOOUf8NC/Hj/AKKJ4g/8Glz/APHK8eorzP7DwX/PiP8A4Cv8hWR7D/w0L8eP+iieIP8AwaXP/wAco/4aF+PH/RRPEH/g0uf/AI5Xj1FH9h4L/nxH/wABX+QWR1nivx5428dTW9x411+/16W0Vkhe+uZLlo1Y5YKZGbAJHOK5OiivQo0YU4qFNJJdFohhRRRWgBVzTtRv9H1C11bSrmSzvbKVJ4J4WKSRSxsGR0ZcFWVgCCOQap0UpRTVmB7F/wANDfHn/ooniD/wZ3P/AMco/wCGhvjz/wBFE8Qf+DO5/wDjleO0V5n9h4L/AJ8R/wDAV/kKyPYv+Ghvjz/0UTxB/wCDO5/+OUf8NDfHn/ooniD/AMGdz/8AHK8doo/sPBf8+I/+Ar/ILI9i/wCGhvjz/wBFE8Qf+DO5/wDjlH/DQ3x5/wCiieIP/Bnc/wDxyvHaKP7DwX/PiP8A4Cv8gsj2L/hob48/9FE8Qf8Agzuf/jlH/DQ3x5/6KJ4g/wDBnc//AByvHaKP7DwX/PiP/gK/yCyPYv8Ahob48/8ARRPEH/gzuf8A45R/w0N8ef8AooniD/wZ3P8A8crx2ij+w8F/z4j/AOAr/ILI9i/4aG+PP/RRPEH/AIM7n/45R/w0N8ef+iieIP8AwZ3P/wAcrx2ij+w8F/z4j/4Cv8gsj2L/AIaG+PP/AEUTxB/4M7n/AOOVheI/i/8AFbxfpcmh+K/GGr6xp0rKz213fTTwsyHKko7lSQeRxxXnVFXTyfCQkpQoxTXXlX+QWQUUUV6IwooooAKKKKACiiigD0/RvjZ8YvDumW+i6D431rTtPtF2Q29vfzxRRr/dRFcAD2ArT/4aG+PP/RRPEH/gzuf/AI5XjtFebPJsHJuUqMW3/dX+QrI9i/4aG+PP/RRPEH/gzuf/AI5R/wANDfHn/ooniD/wZ3P/AMcrx2ip/sPBf8+I/wDgK/yCyNvxD4l8ReLtVl13xTqdzq+ozhRJc3crzzMEAVQXcljgAAc8CsSiivRp04wioxVkhhRRRVgFFFFABRRRQAUUUUAFFFFABRRRQAUUUUAFFFFABRRRQBznjH/kUdb/AOvG5/8ARTV8FV96+Mf+RR1v/rxuf/RTV8FV+QeIH++Q/wAK/ORlPc//1vheiiiv9MD0AooooAKKKKACiiigAooooAKKKKACiiigAooooAKKKKACiiigAooooAKKKKACiiigAooooAKKKKACiiigAooooAKKKKACiiigAooooAKKKKACiiigAooooAKKKKACiiigAooooAKKKKACiiigAooooAKKKKACiiigAooooAKKKKACiiigAooooAKKKKACiiigAooooAKKKKACiiigAooooAKKKKACiiigAooooAKKKKACiiigAooooAKKKKAOc8Y/8ijrf/Xjc/8Aopq+Cq+9fGP/ACKOt/8AXjc/+imr4Kr8g8QP98h/hX5yMp7n/9f4Xooor/TA9AKKKKACiiigAooooAKKKKACiiigAooooAKKKKACiiigAooooAKKKKACiiigAooooAKKKKACiiigAooooAKKKKACiiigAooooAKKKKACiiigAooooAKKKKACiiigAooooAKKKKACiiigAooooAKKKKACiiigAooooAKKKKACiiigAooooAKKKKACiiigAooooAKKKKACiiigAooooAKKKKACiiigAooooAKKKKACiiigAooooAKKKKACiiigDnPGP/Io63/143P/AKKavgqvvXxj/wAijrf/AF43P/opq+Cq/IPED/fIf4V+cjKe5//Q+F6KKK/0wPQCiiigAooooAKKKKACiiigAooooAKKKKACiiigAooooAKKKKACiiigAooooAKKKKACiiigAooooAKKKKACiiigAooooAKKKKACiiigAooooAKKKKACiiigAooooAKKKKACiiigAooooAKKKKACiiigAooooAKKKKACiiigAooooAKKKKACiiigAooooAKKKKACiiigAooooAKKKKACiiigAooooAKKKKACiiigAooooAKKKKACiiigAooooA5zxj/yKOt/9eNz/wCimr4Kr718Y/8AIo63/wBeNz/6KavgqvyDxA/3yH+FfnIynuf/0fheiiiv9MD0AooooAKKKKACiiigAooooAKKKKACiiigAooooAKKKKACiiigAooooAKKKKACiiigAooooAKKKKACiiigAooooAKKKKACiiigAooooAKKKKACiiigAooooAKKKKACiiigAooooAKKKKACiiigAooooAKKKKACiiigAooooAKKKKACiiigAooooAKKKKACiiigAooooAKKKKACiiigAooooAKKKKACiiigAooooAKKKKACiiigAooooAKKKKAOc8Y/8ijrf/Xjc/8Aopq+Cq+9fGP/ACKOt/8AXjc/+imr4Kr8g8QP98h/hX5yMp7n/9L4Xooor/TA9AKKKKACiiigAooooAKKKKACiiigAooooAKKKKACiiigAooooAKKKKACiiigAooooAKKKKACiiigAooooAKKKKACiiigAooooAKKKKACiiigAooooAKKKKACiiigAooooAKKKKACiiigAooooAKKKKACiiigAooooAKKKKACiiigAooooAKKKKACiiigAooooAKKKKACiiigAooooAKKKKACiiigAooooAKKKKACiiigAooooAKKKKACiiigDnPGP/Io63/143P/AKKavgqvvXxj/wAijrf/AF43P/opq+Cq/IPED/fIf4V+cjKe5//T+F6KKK/0wPQCiiigAooooAKKKKACiiigAooooAKKKKACiiigAooooAKKKKACiiigAooooAKKKKACiiigAooooAKKKKACiiigAooooAKKKKACiiigAooooAKKKKACiiigAooooAKKKKACiiigAooooAKKKKACiiigAooooAKKKKACiiigAooooAKKKKACiiigAooooAKKKKACiiigAooooAKKKKACiiigAooooAKKKKACiiigAooooAKKKKACiiigAooooA5zxj/yKOt/9eNz/wCimr4Kr718Y/8AIo63/wBeNz/6KavgqvyDxA/3yH+FfnIynuf/1Pheiiiv9MD0AooooAKKKKACiiigAooooAKKKKACiiigAooooAKKKKACiiigAooooAKKKKACiiigAooooAKKKKACiiigAooooAKKKKACiiigAooooAKKKKACiiigAooooAKKKKACiiigAooooAKKKKACiiigAooooAKKKKACiiigAooooAKKKKACiiigAooooAKKKKACiiigAooooAKKKKACiiigAooooAKKKKACiiigAooooAKKKKACiiigAooooAKKKKAOc8Y/8ijrf/Xjc/8Aopq+Cq+9fGP/ACKOt/8AXjc/+imr4Kr8g8QP98h/hX5yMp7n/9X4Xooor/TA9AKKKKACiiigAooooAKKKKACiiigAooooAKKKKACiiigAooooAKKKKACiiigAooooAKKKKACiiigAooooAKKKKACiiigAooooAKKKKACiiigAooooAKKKKACiiigAooooAKKKKACiiigAooooAKKKKACiiigAooooAKKKKACiiigAooooAKKKKACiiigAooooAKKKKACiiigAooooAKKKKACiiigAooooAKKKKACiiigAooooAKKKKACiiigDnPGP/Io63/143P/AKKavgqvvXxj/wAijrf/AF43P/opq+Cq/IPED/fIf4V+cjKe5//W+F6KKK/0wPQCiiigAooooAKKKKACiiigAooooAKKKKACiiigAooooAKKKKACiiigAooooAKKKKACiiigAooooAKKKKACiiigAooooAKKKKACiiigAooooAKKKKACiiigAooooAKKKKACiiigAooooAKKKKACiiigAooooAKKKKACiiigAooooAKKKKACiiigAooooAKKKKACiiigAooooAKKKKACiiigAooooAKKKKACiiigAooooAKKKKACiiigAooooA5zxj/yKOt/9eNz/wCimr4Kr718Y/8AIo63/wBeNz/6KavgqvyDxA/3yH+FfnIynuf/1/heiiiv9MD0AooooAKKKKACiiigAooooAKKKKACiiigAooooAKKKKACiiigAooooAKKKKACiiigAooooAKKKKACiiigAooooAKKKKACiiigAooooAKKKKACiiigAooooAKKKKACiiigAooooAKKKKACiiigAooooAKKKKACiiigAooooAKKKKACiiigAooooAKKKKACiiigAooooAKKKKACiiigAooooAKKKKACiiigAooooAKKKKACiiigAooooAKKKKAOc8Y/8ijrf/Xjc/8Aopq+Cq+9fGP/ACKOt/8AXjc/+imr4Kr8g8QP98h/hX5yMp7n/9D4Xooor/TA9AKKKKACiiigAooooAKKKKACiiigAooooAKKKKACiiigAooooAKKKKACiiigAooooAKKKKACiiigAooooAKKKKACiiigAooooAKKKKACiiigAooooAKKKKACiiigAooooAKKKKACiiigAooooAKKKKACiiigAooooAKKKKACiiigAooooAKKKKACiiigAooooAKKKKACiiigAooooAKKKKACiiigAooooAKKKKACiiigAooooAKKKKACiiigDnPGP/Io63/143P/AKKavgqvvXxj/wAijrf/AF43P/opq+Cq/IPED/fIf4V+cjKe5//R+F6KKK/0wPQCiiigAooooAKKKKACiiigAooooAKKKKACiiigAooooAKKKKACiiigAooooAKKKKACiiigAooooAKKKKACiiigAooooAKKKKACiiigAooooAKKKKACiiigAooooAKKKKACiiigAooooAKKKKACiiigAooooAKKKKACiiigAooooAKKKKACiiigAooooAKKKKACiiigAooooAKKKKACiiigAooooAKKKKACiiigAooooAKKKKACiiigAooooA5zxj/yKOt/9eNz/wCimr4Kr718Y/8AIo63/wBeNz/6KavgqvyDxA/3yH+FfnIynuf/0vheiiiv9MD0AooooAKKKKACiiigAooooAKKKKACiiigAooooAKKKKACiiigAooooAKKKKACiiigAooooAKKKKACiiigAooooAKKKKACiiigAooooAKKKKACiiigAooooAKKKKACiiigAooooAKKKKACiiigAooooAKKKKACiiigAooooAKKKKACiiigAooooAKKKKACiiigAooooAKKKKACiiigAooooAKKKKACiiigAooooAKKKKACiiigAooooAKKKKAOc8Y/8ijrf/Xjc/8Aopq+Cq+9fGP/ACKOt/8AXjc/+imr4Kr8g8QP98h/hX5yMp7n/9k=;" vertex="1" parent="1">
          <mxGeometry x="378.5" y="110" width="63" height="56.83" as="geometry" />
        </mxCell>
        <mxCell id="EmysjJwm9qbrB_Ymdtlw-24" value="" style="dashed=0;outlineConnect=0;html=1;align=center;labelPosition=center;verticalLabelPosition=bottom;verticalAlign=top;shape=mxgraph.webicons.adobe_pdf;fillColor=#F40C0C;gradientColor=#610603" vertex="1" parent="1">
          <mxGeometry x="700" y="110" width="60" height="60" as="geometry" />
        </mxCell>
        <mxCell id="EmysjJwm9qbrB_Ymdtlw-27" value="" style="shape=image;verticalLabelPosition=bottom;labelBackgroundColor=default;verticalAlign=top;aspect=fixed;imageAspect=0;image=data:image/jpeg,/9j/4AAQSkZJRgABAQAAkACQAAD/4QCSRXhpZgAATU0AKgAAAAgABAEaAAUAAAABAAAAPgEbAAUAAAABAAAARgEoAAMAAAABAAIAAIdpAAQAAAABAAAATgAAAAAAAACQAAAAAQAAAJAAAAABAAOShgAHAAAAEgAAAHigAgAEAAAAAQAAAsKgAwAEAAAAAQAAAlQAAAAAQVNDSUkAAABTY3JlZW5zaG90/+0AOFBob3Rvc2hvcCAzLjAAOEJJTQQEAAAAAAAAOEJJTQQlAAAAAAAQ1B2M2Y8AsgTpgAmY7PhCfv/iD/BJQ0NfUFJPRklMRQABAQAAD+BhcHBsAhAAAG1udHJSR0IgWFlaIAfpAAMAEAAGAAMACGFjc3BBUFBMAAAAAEFQUEwAAAAAAAAAAAAAAAAAAAAAAAD21gABAAAAANMtYXBwbAAAAAAAAAAAAAAAAAAAAAAAAAAAAAAAAAAAAAAAAAAAAAAAAAAAAAAAAAAAAAAAEWRlc2MAAAFQAAAAYmRzY20AAAG0AAAEvGNwcnQAAAZwAAAAI3d0cHQAAAaUAAAAFHJYWVoAAAaoAAAAFGdYWVoAAAa8AAAAFGJYWVoAAAbQAAAAFHJUUkMAAAbkAAAIDGFhcmcAAA7wAAAAIHZjZ3QAAA8QAAAAMG5kaW4AAA9AAAAAPm1tb2QAAA+AAAAAKHZjZ3AAAA+oAAAAOGJUUkMAAAbkAAAIDGdUUkMAAAbkAAAIDGFhYmcAAA7wAAAAIGFhZ2cAAA7wAAAAIGRlc2MAAAAAAAAACERpc3BsYXkAAAAAAAAAAAAAAAAAAAAAAAAAAAAAAAAAAAAAAAAAAAAAAAAAAAAAAAAAAAAAAAAAAAAAAAAAAAAAAAAAAAAAAAAAAAAAAAAAAAAAAAAAAABtbHVjAAAAAAAAACcAAAAMaHJIUgAAABQAAAHka29LUgAAAAwAAAH4bmJOTwAAABIAAAIEaWQAAAAAABIAAAIWaHVIVQAAABQAAAIoY3NDWgAAABYAAAI8c2xTSQAAABQAAAJSZGFESwAAABwAAAJmbmxOTAAAABYAAAKCZmlGSQAAABAAAAKYaXRJVAAAABgAAAKoZXNFUwAAABYAAALAcm9STwAAABIAAALWZnJDQQAAABYAAALoYXIAAAAAABQAAAL+dWtVQQAAABwAAAMSaGVJTAAAABYAAAMuemhUVwAAAAoAAANEdmlWTgAAAA4AAANOc2tTSwAAABYAAANcemhDTgAAAAoAAANEcnVSVQAAACQAAANyZW5HQgAAABQAAAOWZnJGUgAAABYAAAOqbXMAAAAAABIAAAPAaGlJTgAAABIAAAPSdGhUSAAAAAwAAAPkY2FFUwAAABgAAAPwZW5BVQAAABQAAAOWZXNYTAAAABIAAALWZGVERQAAABAAAAQIZW5VUwAAABIAAAQYcHRCUgAAABgAAAQqcGxQTAAAABIAAARCZWxHUgAAACIAAARUc3ZTRQAAABAAAAR2dHJUUgAAABQAAASGcHRQVAAAABYAAASaamFKUAAAAAwAAASwAEwAQwBEACAAdQAgAGIAbwBqAGnO7LfsACAATABDAEQARgBhAHIAZwBlAC0ATABDAEQATABDAEQAIABXAGEAcgBuAGEAUwB6AO0AbgBlAHMAIABMAEMARABCAGEAcgBlAHYAbgD9ACAATABDAEQAQgBhAHIAdgBuAGkAIABMAEMARABMAEMARAAtAGYAYQByAHYAZQBzAGsA5gByAG0ASwBsAGUAdQByAGUAbgAtAEwAQwBEAFYA5AByAGkALQBMAEMARABMAEMARAAgAGEAIABjAG8AbABvAHIAaQBMAEMARAAgAGEAIABjAG8AbABvAHIATABDAEQAIABjAG8AbABvAHIAQQBDAEwAIABjAG8AdQBsAGUAdQByIA8ATABDAEQAIAZFBkQGSAZGBikEGgQ+BDsETAQ+BEAEPgQyBDgEOQAgAEwAQwBEIA8ATABDAEQAIAXmBdEF4gXVBeAF2V9pgnIATABDAEQATABDAEQAIABNAOAAdQBGAGEAcgBlAGIAbgD9ACAATABDAEQEJgQyBDUEQgQ9BD4EOQAgBBYEGgAtBDQEOARBBD8EOwQ1BDkAQwBvAGwAbwB1AHIAIABMAEMARABMAEMARAAgAGMAbwB1AGwAZQB1AHIAVwBhAHIAbgBhACAATABDAEQJMAkCCRcJQAkoACAATABDAEQATABDAEQAIA4qDjUATABDAEQAIABlAG4AIABjAG8AbABvAHIARgBhAHIAYgAtAEwAQwBEAEMAbwBsAG8AcgAgAEwAQwBEAEwAQwBEACAAQwBvAGwAbwByAGkAZABvAEsAbwBsAG8AcgAgAEwAQwBEA4gDswPHA8EDyQO8A7cAIAO/A7gDzAO9A7cAIABMAEMARABGAOQAcgBnAC0ATABDAEQAUgBlAG4AawBsAGkAIABMAEMARABMAEMARAAgAGEAIABjAG8AcgBlAHMwqzDpMPwATABDAER0ZXh0AAAAAENvcHlyaWdodCBBcHBsZSBJbmMuLCAyMDI1AABYWVogAAAAAAAA81EAAQAAAAEWzFhZWiAAAAAAAACD3wAAPb////+7WFlaIAAAAAAAAEq/AACxNwAACrlYWVogAAAAAAAAKDgAABELAADIuWN1cnYAAAAAAAAEAAAAAAUACgAPABQAGQAeACMAKAAtADIANgA7AEAARQBKAE8AVABZAF4AYwBoAG0AcgB3AHwAgQCGAIsAkACVAJoAnwCjAKgArQCyALcAvADBAMYAywDQANUA2wDgAOUA6wDwAPYA+wEBAQcBDQETARkBHwElASsBMgE4AT4BRQFMAVIBWQFgAWcBbgF1AXwBgwGLAZIBmgGhAakBsQG5AcEByQHRAdkB4QHpAfIB+gIDAgwCFAIdAiYCLwI4AkECSwJUAl0CZwJxAnoChAKOApgCogKsArYCwQLLAtUC4ALrAvUDAAMLAxYDIQMtAzgDQwNPA1oDZgNyA34DigOWA6IDrgO6A8cD0wPgA+wD+QQGBBMEIAQtBDsESARVBGMEcQR+BIwEmgSoBLYExATTBOEE8AT+BQ0FHAUrBToFSQVYBWcFdwWGBZYFpgW1BcUF1QXlBfYGBgYWBicGNwZIBlkGagZ7BowGnQavBsAG0QbjBvUHBwcZBysHPQdPB2EHdAeGB5kHrAe/B9IH5Qf4CAsIHwgyCEYIWghuCIIIlgiqCL4I0gjnCPsJEAklCToJTwlkCXkJjwmkCboJzwnlCfsKEQonCj0KVApqCoEKmAquCsUK3ArzCwsLIgs5C1ELaQuAC5gLsAvIC+EL+QwSDCoMQwxcDHUMjgynDMAM2QzzDQ0NJg1ADVoNdA2ODakNww3eDfgOEw4uDkkOZA5/DpsOtg7SDu4PCQ8lD0EPXg96D5YPsw/PD+wQCRAmEEMQYRB+EJsQuRDXEPURExExEU8RbRGMEaoRyRHoEgcSJhJFEmQShBKjEsMS4xMDEyMTQxNjE4MTpBPFE+UUBhQnFEkUahSLFK0UzhTwFRIVNBVWFXgVmxW9FeAWAxYmFkkWbBaPFrIW1hb6Fx0XQRdlF4kXrhfSF/cYGxhAGGUYihivGNUY+hkgGUUZaxmRGbcZ3RoEGioaURp3Gp4axRrsGxQbOxtjG4obshvaHAIcKhxSHHscoxzMHPUdHh1HHXAdmR3DHeweFh5AHmoelB6+HukfEx8+H2kflB+/H+ogFSBBIGwgmCDEIPAhHCFIIXUhoSHOIfsiJyJVIoIiryLdIwojOCNmI5QjwiPwJB8kTSR8JKsk2iUJJTglaCWXJccl9yYnJlcmhya3JugnGCdJJ3onqyfcKA0oPyhxKKIo1CkGKTgpaymdKdAqAio1KmgqmyrPKwIrNitpK50r0SwFLDksbiyiLNctDC1BLXYtqy3hLhYuTC6CLrcu7i8kL1ovkS/HL/4wNTBsMKQw2zESMUoxgjG6MfIyKjJjMpsy1DMNM0YzfzO4M/E0KzRlNJ402DUTNU01hzXCNf02NzZyNq426TckN2A3nDfXOBQ4UDiMOMg5BTlCOX85vDn5OjY6dDqyOu87LTtrO6o76DwnPGU8pDzjPSI9YT2hPeA+ID5gPqA+4D8hP2E/oj/iQCNAZECmQOdBKUFqQaxB7kIwQnJCtUL3QzpDfUPARANER0SKRM5FEkVVRZpF3kYiRmdGq0bwRzVHe0fASAVIS0iRSNdJHUljSalJ8Eo3Sn1KxEsMS1NLmkviTCpMcky6TQJNSk2TTdxOJU5uTrdPAE9JT5NP3VAnUHFQu1EGUVBRm1HmUjFSfFLHUxNTX1OqU/ZUQlSPVNtVKFV1VcJWD1ZcVqlW91dEV5JX4FgvWH1Yy1kaWWlZuFoHWlZaplr1W0VblVvlXDVchlzWXSddeF3JXhpebF69Xw9fYV+zYAVgV2CqYPxhT2GiYfViSWKcYvBjQ2OXY+tkQGSUZOllPWWSZedmPWaSZuhnPWeTZ+loP2iWaOxpQ2maafFqSGqfavdrT2una/9sV2yvbQhtYG25bhJua27Ebx5veG/RcCtwhnDgcTpxlXHwcktypnMBc11zuHQUdHB0zHUodYV14XY+dpt2+HdWd7N4EXhueMx5KnmJeed6RnqlewR7Y3vCfCF8gXzhfUF9oX4BfmJ+wn8jf4R/5YBHgKiBCoFrgc2CMIKSgvSDV4O6hB2EgITjhUeFq4YOhnKG14c7h5+IBIhpiM6JM4mZif6KZIrKizCLlov8jGOMyo0xjZiN/45mjs6PNo+ekAaQbpDWkT+RqJIRknqS45NNk7aUIJSKlPSVX5XJljSWn5cKl3WX4JhMmLiZJJmQmfyaaJrVm0Kbr5wcnImc951kndKeQJ6unx2fi5/6oGmg2KFHobaiJqKWowajdqPmpFakx6U4pammGqaLpv2nbqfgqFKoxKk3qamqHKqPqwKrdavprFys0K1ErbiuLa6hrxavi7AAsHWw6rFgsdayS7LCszizrrQltJy1E7WKtgG2ebbwt2i34LhZuNG5SrnCuju6tbsuu6e8IbybvRW9j74KvoS+/796v/XAcMDswWfB48JfwtvDWMPUxFHEzsVLxcjGRsbDx0HHv8g9yLzJOsm5yjjKt8s2y7bMNcy1zTXNtc42zrbPN8+40DnQutE80b7SP9LB00TTxtRJ1MvVTtXR1lXW2Ndc1+DYZNjo2WzZ8dp22vvbgNwF3IrdEN2W3hzeot8p36/gNuC94UThzOJT4tvjY+Pr5HPk/OWE5g3mlucf56noMui86Ubp0Opb6uXrcOv77IbtEe2c7ijutO9A78zwWPDl8XLx//KM8xnzp/Q09ML1UPXe9m32+/eK+Bn4qPk4+cf6V/rn+3f8B/yY/Sn9uv5L/tz/bf//cGFyYQAAAAAAAwAAAAJmZgAA8qcAAA1ZAAAT0AAAClt2Y2d0AAAAAAAAAAEAAQAAAAAAAAABAAAAAQAAAAAAAAABAAAAAQAAAAAAAAABAABuZGluAAAAAAAAADYAAK4UAABR7AAAQ9cAALCkAAAmZgAAD1wAAFANAABUOQACMzMAAjMzAAIzMwAAAAAAAAAAbW1vZAAAAAAAAAYQAACgUP1ibWIAAAAAAAAAAAAAAAAAAAAAAAAAAHZjZ3AAAAAAAAMAAAACZmYAAwAAAAJmZgADAAAAAmZmAAAAAjMzNAAAAAACMzM0AAAAAAIzMzQA/8AAEQgCVALCAwEiAAIRAQMRAf/EAB8AAAEFAQEBAQEBAAAAAAAAAAABAgMEBQYHCAkKC//EALUQAAIBAwMCBAMFBQQEAAABfQECAwAEEQUSITFBBhNRYQcicRQygZGhCCNCscEVUtHwJDNicoIJChYXGBkaJSYnKCkqNDU2Nzg5OkNERUZHSElKU1RVVldYWVpjZGVmZ2hpanN0dXZ3eHl6g4SFhoeIiYqSk5SVlpeYmZqio6Slpqeoqaqys7S1tre4ubrCw8TFxsfIycrS09TV1tfY2drh4uPk5ebn6Onq8fLz9PX29/j5+v/EAB8BAAMBAQEBAQEBAQEAAAAAAAABAgMEBQYHCAkKC//EALURAAIBAgQEAwQHBQQEAAECdwABAgMRBAUhMQYSQVEHYXETIjKBCBRCkaGxwQkjM1LwFWJy0QoWJDThJfEXGBkaJicoKSo1Njc4OTpDREVGR0hJSlNUVVZXWFlaY2RlZmdoaWpzdHV2d3h5eoKDhIWGh4iJipKTlJWWl5iZmqKjpKWmp6ipqrKztLW2t7i5usLDxMXGx8jJytLT1NXW19jZ2uLj5OXm5+jp6vLz9PX29/j5+v/bAEMAAgICAgICAwICAwUDAwMFBgUFBQUGCAYGBgYGCAoICAgICAgKCgoKCgoKCgwMDAwMDA4ODg4ODw8PDw8PDw8PD//bAEMBAgICBAQEBwQEBxALCQsQEBAQEBAQEBAQEBAQEBAQEBAQEBAQEBAQEBAQEBAQEBAQEBAQEBAQEBAQEBAQEBAQEP/dAAQALf/aAAwDAQACEQMRAD8A/RW9/wCCdX7GFtaTXD/D8RiNGbcdX1XAwPe7r5I8f/AP9h7wrK9jpHw//tC7TIYf2rqgAP1+1EGvrH9p3423FhI3gbw1OUkZf9JkU/wsOADyDzX5/O7SMXc7mY5JPqad2Fjz/U/gn8BLmRm07wWLNTnC/b718f8AfU5rmx8AfhL30L/yauf/AI7XsVFF2Fjx3/hQXwk/6AX/AJNXP/x2j/hQXwk/6AX/AJNXP/x2vYqKLsLHjv8AwoL4Sf8AQC/8mrn/AOO0f8KC+En/AEAv/Jq5/wDjtexUUXYWPHf+FBfCT/oBf+TVz/8AHaP+FBfCT/oBf+TVz/8AHa9ioouwseO/8KC+En/QC/8AJq5/+O0f8KC+En/QC/8AJq5/+O17FRRdhY8d/wCFBfCT/oBf+TVz/wDHaP8AhQXwk/6AX/k1c/8Ax2vYqKLsLHjv/CgvhJ/0Av8Ayauf/jtH/CgvhJ/0Av8Ayauf/jtexUUXYWPHf+FBfCT/AKAX/k1c/wDx2j/hQXwk/wCgF/5NXP8A8dr2Kii7Cx47/wAKC+En/QC/8mrn/wCO0f8ACgvhJ/0Av/Jq5/8AjtexUUXYWPHf+FBfCT/oBf8Ak1c//HaP+FBfCT/oBf8Ak1c//Ha9ioouwseO/wDCgvhJ/wBAL/yauf8A47R/woL4Sf8AQC/8mrn/AOO17FRRdhY8d/4UF8JP+gF/5NXP/wAdo/4UF8JP+gF/5NXP/wAdr2Kii7Cx47/woL4Sf9AL/wAmrn/47R/woL4Sf9AL/wAmrn/47XsVFF2Fjx3/AIUF8JP+gF/5NXP/AMdo/wCFBfCT/oBf+TVz/wDHa9ioouwseO/8KC+En/QC/wDJq5/+O0f8KC+En/QC/wDJq5/+O17FRRdhY8d/4UF8JP8AoBf+TVz/APHaP+FBfCT/AKAX/k1c/wDx2vYqKLsLHjv/AAoL4Sf9AL/yauf/AI7R/wAKC+En/QC/8mrn/wCO17FRRdhY8d/4UF8JP+gF/wCTVz/8do/4UF8JP+gF/wCTVz/8dr2Kii7Cx47/AMKC+En/AEAv/Jq5/wDjtH/CgvhJ/wBAL/yauf8A47XsVFF2Fjx3/hQXwk/6AX/k1c//AB2j/hQXwk/6AX/k1c//AB2vYqKLsLHjv/CgvhJ/0Av/ACauf/jtH/CgvhJ/0Av/ACauf/jtexUUXYWPHf8AhQXwk/6AX/k1c/8Ax2j/AIUF8JP+gF/5NXP/AMdr2Kii7Cx47/woL4Sf9AL/AMmrn/47R/woL4Sf9AL/AMmrn/47XsVFF2Fjx3/hQXwk/wCgF/5NXP8A8do/4UF8JP8AoBf+TVz/APHa9ioouwseO/8ACgvhJ/0Av/Jq5/8AjtH/AAoL4Sf9AL/yauf/AI7XsVFF2Fjx3/hQXwk/6AX/AJNXP/x2j/hQXwk/6AX/AJNXP/x2vYqKLsLHjv8AwoL4Sf8AQC/8mrn/AOO0f8KC+En/AEAv/Jq5/wDjtexUUXYWPHf+FBfCT/oBf+TVz/8AHaP+FBfCT/oBf+TVz/8AHa9ioouwseO/8KC+En/QC/8AJq5/+O0f8KC+En/QC/8AJq5/+O17FRRdhY8d/wCFBfCT/oBf+TVz/wDHaP8AhQXwk/6AX/k1c/8Ax2vYqKLsLHjv/CgvhJ/0Av8Ayauf/jtH/CgvhJ/0Av8Ayauf/jtexUUXYWPHf+FBfCT/AKAX/k1c/wDx2j/hQXwk/wCgF/5NXP8A8dr2Kii7Cx47/wAKC+En/QC/8mrn/wCO0f8ACgvhJ/0Av/Jq5/8AjtexUUXYWPHf+FBfCT/oBf8Ak1c//HaP+FBfCT/oBf8Ak1c//Ha9ioouwseO/wDCgvhJ/wBAL/yauf8A47R/woL4Sf8AQC/8mrn/AOO17FRRdhY8d/4UF8JP+gF/5NXP/wAdo/4UF8JP+gF/5NXP/wAdr2Kii7Cx47/woL4Sf9AL/wAmrn/47SH4B/CQDJ0L/wAmrn/47XsfTk1lXVzu+ROlF2Fjx2b4G/CjdiLQ8Af9PNz/APHah/4Ub8Lf+gJ/5M3P/wAdr1mii7Cx5N/wo34W/wDQE/8AJm5/+O0f8KN+Fv8A0BP/ACZuf/jtes0UXYWPJv8AhRvwt/6An/kzc/8Ax2j/AIUb8Lf+gJ/5M3P/AMdr1mii7Cx5N/wo34W/9AT/AMmbn/47R/wo34W/9AT/AMmbn/47XrNFF2Fjziy+C3wdgBF54Z+0Ht/pl0v8phXrHhP4Yfsmq6W3if4aiUE4aYarqSkf8BS5ArOoouwsfa3hH9jH9h7xrYrfaF4LWVWHKnVdTDD8Ptea9C0v/gnh+x3c3DJN8P8AcoUn/kK6oOcj0u6+IPAnjzW/Amsw6lpU7IoYeYgPDL3/AEr9gPhR4ysPHOjQa7YkfvocuvdSSODRdhY+fP8Ah3H+xl/0Tz/yrar/APJdH/DuP9jL/onn/lW1X/5Lr7eoouwsf//Q6XxBqtxrWtXmp3MhlaeV2BP90sSBWNRRQAUUUUAFFFFABRRRQAUUUUAFFFFABRRRQAUUUUAFFFFABRRRQAUUUUAFFFFABRRRQAUUUUAFFFFABRRRQAUUUUAFFFFABRRRQAUUUUAFFFFABRRRQAUUUUAFFFFABRRRQAUUUUAFFFFABRRRQAUUUUAFFFFABRRRQAUUUUAFFFFABRRRQAUUUUAFFFFABRRWfdXO35E60AMurnOY0rOoooAKKKKACiiigAooooAKKKKACiiigAr7c/Y48enTPElz4TvZcQXiPKpOTjywMAYr4jr2b4C3L2vxHsZE6srL+BIoA/Z7+1bD/nr+jf4Uf2rYf89f0b/CuPooA//RuUUUUAFFFFABRRRQAUUUUAFFFFABRRRQAUUUUAFFFFABRRRQAUUUUAFFFFABRRRQAUUUUAFFFFABRRRQAUUUUAFFFFABRRRQAUUUUAFFFFABRRRQAUUUUAFFFFABRRRQAUUUUAFFFFABRRRQAUUUUAFFFFABRRRQAUUUUAFFFFABRRRQAUUUUAFFFFABRRVO5uBGNq/eNACXVyEGxeprJJJOTQSScmkoAKKKKACiiigAooooAKKKKACiiigAooooAK9d+B//ACUPT/8APcV5FXsfwHh8/wCJOnRZ25zz17igD9caK6D+wv8Apv8A+O//AF6P7C/6b/8Ajv8A9egD/9K5RRRQAUUUUAFFFFABRRRQAUUUUAFFFFABRRRQAUUUUAFFFFABRRRQAUUUUAFFFFABRRRQAUUUUAFFFFABRRRQAUUUUAFFFFABRRRQAUUUUAFFFFABRRRQAUUUUAFFFFABRRRQAUUUUAFFFFABRRRQAUUUUAFFFFABRRRQAUUUUAFFFFABRRRQAUUVBPMsS+9ADLicRDA6msdmLEsepody7FmptABRRRQAUUUUAFFFFABRRRQAUUUUAFFFFABRRRQAV7T+z/8A8lO0z8f5rXi1e0/s/wD/ACU7TPx/mtAH7V0UUUAf/9O5RRRQAUUUUAFFFFABRRRQAUUUUAFFFFABRRRQAUUUUAFFFFABRRRQAUUUUAFFFFABRRRQAUUUUAFFFFABRRRQAUUUUAFFFFABRRRQAUUUUAFFFFABRRRQAUUUUAFFFFABRRRQAUUUUAFFFFABRRRQAUUUUAFFFFABRRRQAUUUUAFFFFABRRUcsqxLuNADZphEuT1rEkkaRtzU6WVpWLGoqACiiigAooooAKKKKACiiigAooooAKKKKACiiigAooooAK9c+B//ACUTT/8APcV5HXrvwP8A+Sh6f/nuKAP13ooooA//1LlFFFABRRRQAUUUUAFFFFABRRRQAUUUUAFFFFABRRRQAUUUUAFFFFABRRRQAUUUUAFFFFABRRRQAUUUUAFFFFABRRRQAUUUUAFFFFABRRRQAUUUUAFFFFABRRRQAUUUUAFFFFABRRRQAUUUUAFFFFABRRRQAUUUUAFFFFABRRRQAUUU13CKWPagBHdY1LNWLPM0rZPSlnnaVvaq9ABRRRQAUUUUAFFFFABRRRQAUUUUAFFFFABRRRQAUUUUAFFFFABXsHwLjeX4jaekYyxz/MV4/XtP7P8A/wAlO0z8f5rQB+vf9lX/APzy/Vf8aP7Kv/8Anl+q/wCNdhRQB//VuUV7Ivwa1NmC/wBr2Iycf6w/4Va/4UjqX/Qb0/8A7+07AeI0V7d/wpHUv+g3p/8A39qKX4K6lGu7+2bBuccSGiwHi1Fex/8ACnNT/wCgvY/9/D/hR/wpzU/+gvY/9/D/AIUWA8cor2xfglqTKG/tvTxkZ/1tO/4UjqX/AEG9P/7+0WA8Ror2xvglqSqW/tvTzgZ/1tVv+FOan/0F7H/v4f8ACiwHjlFex/8ACnNT/wCgvY/9/D/hU0XwV1KRd39s2C845kNFgPFqK9u/4UjqX/Qb0/8A7+0f8KR1L/oN6f8A9/aLAeI0V7I3wa1NWK/2vYnBx/rD/hSf8Kc1P/oL2P8A38P+FFgPHKK9ni+DGpyNt/tiwXjPMh/wqf8A4UjqX/Qb0/8A7+0WA8Ror27/AIUjqX/Qb0//AL+1BL8GNTjbb/bFg3GeJD/hRYDxiivY/wDhTmp/9Bex/wC/h/wpV+DWpswX+17EZOP9Yf8ACiwHjdFe3f8ACkdS/wCg3p//AH9o/wCFI6l/0G9P/wC/tFgPEaK9pl+CupRru/tmwbnHEhqH/hTmp/8AQXsf+/h/wosB45RXsf8AwpzU/wDoL2P/AH8P+FWV+CWpMob+29PGRn/W0WA8Tor27/hSOpf9BvT/APv7TW+CWpKpb+29POBn/W0WA8Tor2P/AIU5qf8A0F7H/v4f8KP+FOan/wBBex/7+H/CiwHjlFe0xfBXUpF3f2zYLzjmQ1L/AMKR1L/oN6f/AN/aLAeI0V7d/wAKR1L/AKDen/8Af2qrfBrU1Yr/AGvYnBx/rD/hRYDxuivY/wDhTmp/9Bex/wC/h/wqSL4ManI23+2LBeM8yH/CiwHjFFe3f8KR1L/oN6f/AN/aP+FI6l/0G9P/AO/tFgPEaK9nl+DGpxtt/tiwbjPEh/wqP/hTmp/9Bex/7+H/AAosB45RXsi/BrU2YL/a9iMnH+sP+FWv+FI6l/0G9P8A+/tFgPEaK9u/4UjqX/Qb0/8A7+1FL8FdSjXd/bNg3OOJDRYDxaivY/8AhTmp/wDQXsf+/h/wo/4U5qf/AEF7H/v4f8KLAeOUV7YvwS1JlDf23p4yM/62nf8ACkdS/wCg3p//AH9osB4jRXtjfBLUlUt/bennAz/rarf8Kc1P/oL2P/fw/wCFFgPHKK9j/wCFOan/ANBex/7+H/CpovgrqUi7v7ZsF5xzIaLAeLUV7d/wpHUv+g3p/wD39o/4UjqX/Qb0/wD7+0WA8Ror2Rvg1qasV/texODj/WH/AApP+FOan/0F7H/v4f8ACiwHjlFezxfBjU5G2/2xYLxnmQ/4VP8A8KR1L/oN6f8A9/aLAeI0V7d/wpHUv+g3p/8A39qCX4ManG23+2LBuM8SH/CiwHjFFex/8Kc1P/oL2P8A38P+FKPg3qZIH9r2Iz3Mh/wpWA8aZgoyaxrmcytgfdFe7XPwT1aQ7V13Tgv/AF1NU/8AhRWqf9BzTv8Av6f8KLAeF0V7hL8DtVjXd/bentzjiQ/4VB/wpTVf+gxY/wDfz/61OwHi1Fe0/wDClNV/6DFj/wB/P/rVaX4Gaoyhv7c08ZGf9af8KLAeGUV7p/worVP+g5p3/f0/4UjfAzVFUt/bmnnAz/rT/hRYDwyivaf+FKar/wBBix/7+f8A1qP+FKar/wBBix/7+f8A1qLAeLUV7hF8DtVkXd/benrzjmQ/4VJ/worVP+g5p3/f0/4UWA8Lor3T/hRWqf8AQc07/v6f8Kqt8E9VViv9sWBwcf6z/wCtRYDxWivaf+FKar/0GLH/AL+f/WqSL4I6rI23+2bBeM8yH/CiwHiVFe6f8KK1T/oOad/39P8AhR/worVP+g5p3/f0/wCFFgPC6K9tl+COqxtt/tmwbjPEh/wqP/hSmq/9Bix/7+f/AFqLAeLUV7UvwT1VmC/2xYDJx/rP/rVa/wCFFap/0HNO/wC/p/wosB4XXtP7P/8AyU7TPx/mtW/+FFap/wBBzTv+/p/wr0f4U/CfVPDnjWx1Q6vZT+WcbYn3N1B6Ee1KwH6s0Vx/9q3/APz1/Rf8KP7Vv/8Anr+i/wCFAH//1vpiiiitDMKKKKACiiigAooooAKKKKACiiigAooooAKKKKACiiigAooooAKKKKACiiigAooooAKKKKACiiigAooooAKKKKACiiigAooooAKKKKACiiigAooooAKKKKACiiigAooooAKKKKACiiigAooooAKKKKACiiigAooooAKpyy5+VelOml/hWqtABRRRQAUUUUAFFFFABRRRQAUUUUAFFFFABRRRQAUUUUAFFFFABRRRQAUUUUAFd98NP+RutP8APcVwNd98NP8AkbrT/PcUMaPvqiiisyz/1/piiiitDMKKKKACiiigAooooAKKKKACiiigAooooAKKKKACiiigAooooAKKKKACiiigAooooAKKKKACiiigAooooAKKKKACiiigAooooAKKKKACiiigAooooAKKKKACiiigAooooAKKKKACiiigAooooAKKKKACiiigAqtLLj5VpZZdvC9ap9aACiiigAooooAKKKKACiiigAooooAKKKKACiiigAooooAKKKKACiiigAooooAKKKKACvS/hL/yO9l+P8xXmlel/CX/AJHey/H+YoY0fpbRRRWZZ//Q+mKKKK0MwooooAKKKKACise78QaLYzm2vLyOKVeqscEVW/4Szw3/ANBCL867YZdiJJSjTk16M55YuknZzX3o6Giue/4Szw3/ANBCL86P+Es8N/8AQQi/Oq/svFf8+pfcxfXaP86+9HQ0Vz3/AAlnhv8A6CEX50f8JZ4b/wCghF+dH9l4r/n1L7mH12j/ADr70dDRXPf8JZ4b/wCghF+dH/CWeG/+ghF+dH9l4r/n1L7mH12j/OvvR0NFc9/wlnhv/oIRfnR/wlnhv/oIRfnR/ZeK/wCfUvuYfXaP86+9HQ0Vz3/CWeG/+ghF+dH/AAlnhv8A6CEX50f2Xiv+fUvuYfXaP86+9HQ0Vz3/AAlnhv8A6CEX50f8JZ4b/wCghF+dH9l4r/n1L7mH12j/ADr70dDRXPf8JZ4b/wCghF+dH/CWeG/+ghF+dH9l4r/n1L7mH12j/OvvR0NFc9/wlnhv/oIRfnR/wlnhv/oIRfnR/ZeK/wCfUvuYfXaP86+9HQ0Vz3/CWeG/+ghF+dH/AAlnhv8A6CEX50f2Xiv+fUvuYfXaP86+9HQ0Vz3/AAlnhv8A6CEX50f8JZ4b/wCghF+dH9l4r/n1L7mH12j/ADr70dDRXPf8JZ4b/wCghF+dH/CWeG/+ghF+dH9l4r/n1L7mH12j/OvvR0NFc9/wlnhv/oIRfnR/wlnhv/oIRfnR/ZeK/wCfUvuYfXaP86+9HQ0Vz3/CWeG/+ghF+dH/AAlnhv8A6CEX50f2Xiv+fUvuYfXaP86+9HQ0Vz3/AAlnhv8A6CEX50f8JZ4b/wCghF+dH9l4r/n1L7mH12j/ADr70dDRXPf8JZ4b/wCghF+dH/CWeG/+ghF+dH9l4r/n1L7mH12j/OvvR0NFc9/wlnhv/oIRfnR/wlnhv/oIRfnR/ZeK/wCfUvuYfXaP86+9HQ0Vz3/CWeG/+ghF+dH/AAlnhv8A6CEX50f2Xiv+fUvuYfXaP86+9HQ0Vz3/AAlnhv8A6CEX50q+KvDrMFXUIiTwOaX9l4n/AJ9S+5h9co/zr70dBRSAggEcg10WjeE/EniGKSfRNPlvI4m2s0YyATzg1wnSc9RXdf8ACsvH3/QDuf8Avj/69H/CsvH3/QDuf++P/r0XHY4Wiu6/4Vl4+/6Adz/3x/8AXo/4Vl4+/wCgHc/98f8A16LhY4Wiu6/4Vl4+/wCgHc/98f8A16P+FZePv+gHc/8AfH/16LhY4Wiu6/4Vl4+/6Adz/wB8f/Xo/wCFZePv+gHc/wDfH/16LhY4Wiu6/wCFZePv+gHc/wDfH/16P+FZePv+gHc/98f/AF6LhY4Wiu6/4Vl4+/6Adz/3x/8AXo/4Vl4+/wCgHc/98f8A16LhY4WoZZQowOtd6/w0+IAHy6FdE/7n/wBeqZ+F/wAQ2OToN1/3x/8AXpXCxwJJJyaSu+/4Vd8Qv+gDdf8AfH/16P8AhV3xC/6AN1/3x/8AXp3CxwNFd9/wq74hf9AG6/74/wDr0f8ACrviF/0Abr/vj/69FwscDRXff8Ku+IX/AEAbr/vj/wCvR/wq74hf9AG6/wC+P/r0XCxwNFd9/wAKu+IX/QBuv++P/r0f8Ku+IX/QBuv++P8A69FwscDRXff8Ku+IX/QBuv8Avj/69H/CrviF/wBAG6/74/8Ar0XCxwNFd9/wq74hf9AG6/74/wDr0f8ACrviF/0Abr/vj/69FwscDRXff8Ku+IX/AEAbr/vj/wCvR/wq74hf9AG6/wC+P/r0XCxwNFd9/wAKu+IX/QBuv++P/r0f8Ku+IX/QBuv++P8A69FwscDRXff8Ku+IX/QBuv8Avj/69H/CrviF/wBAG6/74/8Ar0XCxwNFd9/wq74hf9AG6/74/wDr0f8ACrviF/0Abr/vj/69FwscDRXff8Ku+IX/AEAbr/vj/wCvR/wq74hf9AG6/wC+P/r0XCxwNFdxcfDXx5aQSXNxolzHFEpZmK8ADqTzXD0CCiiigAr0T4WTeR4ys5MbsZ46dxXndd98NP8AkbrT/PcUMaP0a/t3/ph/49/9aj+3f+mH/j3/ANauforMs//R+mKKKK0MwooooAKKKKAPmz4g/wDI0XP0X+VcVXa/EH/kaLn6L/KuKr+meH/9xo/4V+R+N5t/vNT1f5hRRRXrnnhRRRQAUUUUAFFFFABRRRQAUUUUAFFFFABRRRQAUUUUAFFFFABRRRQAUUUUAFFFFABRRRQAUUUUAFFFFABRRRQAVPa/8fMX++v86gqe1/4+Yv8AfX+dRU+FlQ3R9ew/6mP/AHR/KvtH9mb/AJF3V/8Ar5T/ANAr4uh/1Mf+6P5V9o/szf8AIu6v/wBfKf8AoFfynU3Z+5wPpeiiisiwooooAKKKKACiiigAooooAKKKKACiiigAooooAKKKKACiiigAooooAKKKKACiiigAooooAKKKKACiiigAooooAKKKKAOc8Yf8irq3/XrL/wCgmvyqr9VfGH/Iq6t/16y/+gmvyqq4kyCiiimSFd98NP8AkbrT/PcVwNej/CiNJfGtmkgyDn+YoY0feNFdh/ZVh/zy/Vv8aP7KsP8Anl+rf41mWf/S+mKKKK0MwooooAKKKKAPmz4g/wDI0XP0X+VcVXa/EH/kaLn6L/KuKr+meH/9xo/4V+R+N5t/vNT1f5hRRRXrnnhRRRQAUUUUAFFFFABRRRQAUUUUAFFFFABRRRQAUUUUAFFFFABRRRQAUUUUAFFFFABRRRQAUUUUAFFFFABRRRQAVPa/8fMX++v86gqe1/4+Yv8AfX+dRU+FlQ3R9ew/6mP/AHR/KvtH9mb/AJF3V/8Ar5T/ANAr4uh/1Mf+6P5V9o/szf8AIu6v/wBfKf8AoFfynU3Z+5wPpeiiisiwooooAKKKKACiiigAooooAKKKKACiiigAooooAKKKKACiiigAooooAKKKKACiiigAooooAKKKKACiiigAooooAKKKKAOc8Yf8irq3/XrL/wCgmvyqr9VfGH/Iq6t/16y/+gmvyqq4kyCiiimSFel/CX/kd7L8f5ivNK9H+FEiReNbN5DgDP8AMUMaP0xorP8A7VsP+ev6N/hR/ath/wA9f0b/AArMs//T+mKKKK0MwooooAKKKKAPmz4g/wDI0XP0X+VcVXa/EH/kaLn6L/KuKr+meH/9xo/4V+R+N5t/vNT1f5hRRRXrnnhRRRQAUUUUAFFFFABRRRQAUUUUAFFFFABRRRQAUUUUAFFFFABRRRQAUUUUAFFFFABRRRQAUUUUAFFFFABRRRQAVPa/8fMX++v86gqe1/4+Yv8AfX+dRU+FlQ3R9ew/6mP/AHR/KvtH9mb/AJF3V/8Ar5T/ANAr4uh/1Mf+6P5V9o/szf8AIu6v/wBfKf8AoFfynU3Z+5wPpeiiisiwooooAKKKKACiiigAooooAKKKKACiiigAooooAKKKKACiiigAooooAKKKKACiiigAooooAKKKKACiiigAooooAKKKKAOc8Yf8irq3/XrL/wCgmvyqr9VfGH/Iq6t/16y/+gmvyqq4kyCiiimSFd98NP8AkbrT/PcVwNd98NP+RutP89xQxo++qKKKzLP/1PpiiiitDMKKKKACiiigD5s+IP8AyNFz9F/lXFV2vxB/5Gi5+i/yriq/pnh//caP+Ffkfjebf7zU9X+YUUUV6554UUUUAFFFFABRRRQAUUUUAFFFFABRRRQAUUUUAFFFFABRRRQAUUUUAFFFFABRRRQAUUUUAFFFFABRRRQAUUUUAFT2v/HzF/vr/OoKntf+PmL/AH1/nUVPhZUN0fXsP+pj/wB0fyr7R/Zm/wCRd1f/AK+U/wDQK+Lof9TH/uj+VfaP7M3/ACLur/8AXyn/AKBX8p1N2fucD6XooorIsKKKKACiiigAooooAKKKKACiiigAooooAKKKKACiiigAooooAKKKKACiiigAooooAKKKKACiiigAooooAKKKKACiiigDnPGH/Iq6t/16y/8AoJr8qq/VXxh/yKurf9esv/oJr8qquJMgooopkhXonwsh8/xlZx525zz17ivO69L+Ev8AyO9l+P8AMUMaP0N/sL/pv/47/wDXo/sL/pv/AOO//XroKKzLP//V+mKKKK0MwooooAKKKKAPmz4g/wDI0XP0X+VcVXa/EH/kaLn6L/KuKr+meH/9xo/4V+R+N5t/vNT1f5hRRRXrnnhRRRQAUUUUAFFFFABRRRQAUUUUAFFFFABRRRQAUUUUAFFFFABRRRQAUUUUAFFFFABRRRQAUUUUAFFFFABRRRQAVPa/8fMX++v86gqe1/4+Yv8AfX+dRU+FlQ3R9ew/6mP/AHR/KvtH9mb/AJF3V/8Ar5T/ANAr4uh/1Mf+6P5V9o/szf8AIu6v/wBfKf8AoFfynU3Z+5wPpeiiisiwooooAKKKKACiiigAooooAKKKKACiiigAooooAKKKKACiiigAooooAKKKKACiiigAooooAKKKKACiiigAooooAKKKKAOc8Yf8irq3/XrL/wCgmvyqr9VfGH/Iq6t/16y/+gmvyqq4kyCiiimSFel/CX/kd7L8f5ivNK774af8jdaf57ihjR+nVFef0VmWf//W+mKKKK0MwooooAKKKKAPmz4g/wDI0XP0X+VcVXa/EH/kaLn6L/KuKr+meH/9xo/4V+R+N5t/vNT1f5hRRRXrnnhRRRQAUUUUAFFFFABRRRQAUUUUAFFFFABRRRQAUUUUAFFFFABRRRQAUUUUAFFFFABRRRQAUUUUAFFFFABRRRQAVPa/8fMX++v86gqe1/4+Yv8AfX+dRU+FlQ3R9ew/6mP/AHR/KvtH9mb/AJF3V/8Ar5T/ANAr4uh/1Mf+6P5V9o/szf8AIu6v/wBfKf8AoFfynU3Z+5wPpeiiisiwooooAKKKKACiiigAooooAKKKKACiiigAooooAKKKKACiiigAooooAKKKKACiiigAooooAKKKKACiiigAooooAKKKKAOc8Yf8irq3/XrL/wCgmvyqr9VfGH/Iq6t/16y/+gmvyqq4kyCiiimSFd98NP8AkbrT/PcVwNeg/DCN5fGFokYyT/iKGNH3vRWh/ZV//wA8v1X/ABo/sq//AOeX6r/jWZZ//9f6YooorQzCiiigAooooA+bPiD/AMjRc/Rf5VxVdr8Qf+Roufov8q4qv6Z4f/3Gj/hX5H43m3+81PV/mFFFFeueeFFFFABRRRQAUUUUAFFFFABRRRQAUUUUAFFFFABRRRQAUUUUAFFFFABRRRQAUUUUAFFFFABRRRQAUUUUAFFFFABU9r/x8xf76/zqCp7X/j5i/wB9f51FT4WVDdH17D/qY/8AdH8q+0f2Zv8AkXdX/wCvlP8A0Cvi6H/Ux/7o/lX2j+zN/wAi7q//AF8p/wCgV/KdTdn7nA+l6KKKyLCiiigAooooAKKKKACiiigAooooAKKKKACiiigAooooAKKKKACiiigAooooAKKKKACiiigAooooAKKKKACiiigAooooA5zxh/yKurf9esv/AKCa/Kqv1V8Yf8irq3/XrL/6Ca/KqriTIKKKKZIV6X8Jf+R3svx/mK80r0v4S/8AI72X4/zFDGj9LaKKKzLP/9D6YooorQzCiiigAooooA+bPiD/AMjRc/Rf5VxVdr8Qf+Roufov8q4qv6Z4f/3Gj/hX5H43m3+81PV/mFFFFeueeFFFFABRRRQAUUUUAFFFFABRRRQAUUUUAFFFFABRRRQAUUUUAFFFFABRRRQAUUUUAFFFFABRRRQAUUUUAFFFFABU9r/x8xf76/zqChJ0gnhLd3XH51NRe6xxaTTZ9gI4SBM/3R/Kvs79mBi3hzWCf+fpP/QK+IonLxRk/wB0fyr7c/Ze/wCRb1j/AK+k/wDQK/lKpuz90gfT9FFFZFhRRRQAUUUUAFFFFABRRRQAUUUUAFFFFABRRRQAUUUUAFFFFABRRRQAUUUUAFFFFABRRRQAUUUUAFFFFABRRRQAUUUUAc54w/5FXVv+vWX/ANBNflVX6q+MP+RV1b/r1l/9BNflVVxJkFFFFMkK9B+GEjxeMLR4zgj/ABFefV33w0/5G60/z3FDGj9Cv7Vv/wDnr+i/4Uf2rf8A/PX9F/wrPorMs//R+mKKKK0MwooooAKKKKAPmz4g/wDI0XP0X+VcVXa/EH/kaLn6L/KuKr+meH/9xo/4V+R+N5t/vNT1f5hRRRXrnnhRRRQAUUUUAFFFFABRRRQAUUUUAFFFFABRRRQAUUUUAFFFFABRRRQAUUUUAFFFFABRRRQAUUUUAFFFFABRRUcsqRIXc4AoSE2JNMkCF3Nc8ty9xfws3TzFwPxqC7umuXz0XsKbZ/8AH3B/vr/Ou2NHlg29zy62J5ppLY+3rf8A1Ef+6P5V9vfsvf8AIt6x/wBfSf8AoFfENv8A6iP/AHR/Kvt79l7/AJFvWP8Ar6T/ANAr+RKu7P6Jp7H0/RRRWJoFFFFABRRRQAUUUUAFFFFABRRRQAUUUUAFFFFABRRRQAUUUUAFFFFABRRRQAUUUUAFFFFABRRRQAUUUUAFFFFABRRRQBznjD/kVdW/69Zf/QTX5VV+qvjD/kVdW/69Zf8A0E1+VVXEmQUUUUyQrvvhp/yN1p/nuK4GvS/hL/yO9l+P8xQxo+7aK9AorMs//9L6YooorQzCiiigAooooA+bPiD/AMjRc/Rf5VxVdr8Qf+Roufov8q4qv6Z4f/3Gj/hX5H43m3+81PV/mFFFFeueeFFFFABRRRQAUUUUAFFFFABRRRQAUUUUAFFFFABRRRQAUUUUAFFFFABRRRQAUUUUAFFFFABRRRQAUUU1mCAsxwBQAjusalmOAK5m9vGuG2j7op9/emdtifdH61m13UKNtWeVisTf3Y7BVmz/AOPuD/fX+dVqs2f/AB9wf76/zrer8LOOn8SPt63/ANRH/uj+Vfb37L3/ACLesf8AX0n/AKBXxDb/AOoj/wB0fyr7e/Ze/wCRb1j/AK+k/wDQK/jyruz+laex9P0UUViaBRRRQAUUUUAFFFFABRRRQAUUUUAFFFFABRRRQAUUUUAFFFFABRRRQAUUUUAFFFFABRRRQAUUUUAFFFFABRRRQAUUUUAc54w/5FXVv+vWX/0E1+VVfqr4w/5FXVv+vWX/ANBNflVVxJkFFFFMkK9L+Ev/ACO9l+P8xXmleifCybyPGVnJjdjPHTuKGNH6aUVz/wDbv/TD/wAe/wDrUf27/wBMP/Hv/rVmWf/T+mKKKK0MwooooAKKKKAPmz4g/wDI0XP0X+VcVXa/EH/kaLn6L/KuKr+meH/9xo/4V+R+N5t/vNT1f5hRRRXrnnhRRRQAUUUUAFFFFABRRRQAUUUUAFFFFABRRRQAUUUUAFFFFABRRRQAUUUUAFFFFABRRRQAUUUHjk0AISFGTwBXO398ZT5UZ+UVJqF9vzDEeO5rGrtoUftM8zF4m/uxCiiius84Ks2f/H3B/vr/ADqtVmz/AOPuD/fX+dRV+Fl0/iR9vW/+oj/3R/Kvt79l7/kW9Y/6+k/9Ar4ht/8AUR/7o/lX29+y9/yLesf9fSf+gV/HlXdn9K09j6fooorE0CiiigAooooAKKKKACiiigAooooAKKKKACiiigAooooAKKKKACiiigAooooAKKKKACiiigAooooAKKKKACiiigAooooA5zxh/wAirq3/AF6y/wDoJr8qq/VXxh/yKurf9esv/oJr8qquJMgooopkhXffDT/kbrT/AD3FcDXffDT/AJG60/z3FDGj76ooorMs/9T6YooorQzCiiigAooooA+bPiD/AMjRc/Rf5VxVdr8Qf+Roufov8q4qv6Z4f/3Gj/hX5H43m3+81PV/mFFFFeueeFFFFABRRRQAUUUUAFFFFABRRRQAUUUUAFFFFABRRRQAUUUUAFFFFABRRRQAUUUUAFFFFABWJqF9j9zEfqak1C+CAxRHk9TXPkknJrroUftM8/F4m3uxE60UUV2nlhRRRQAVZs/+PuD/AH1/nVarNn/x9wf76/zqKvwsun8SPt63/wBRH/uj+Vfb37L3/It6x/19J/6BXxDb/wCoj/3R/Kvt79l7/kW9Y/6+k/8AQK/jyruz+laex9P0UUViaBRRRQAUUUUAFFFFABRRRQAUUUUAFFFFABRRRQAUUUUAFFFFABRRRQAUUUUAFFFFABRRRQAUUUUAFFFFABRRRQAUUUUAc54w/wCRV1b/AK9Zf/QTX5VV+qvjD/kVdW/69Zf/AEE1+VVXEmQUUUUyQr0f4URpL41s0kGQc/zFecV6X8Jf+R3svx/mKGNH6O/2VYf88v1b/Gj+yrD/AJ5fq3+NaFFZln//1fpiiiitDMKKKKACiiigDz7XPh/Z65qMmoy3ckTSADaqgjj61kf8Kn0//n/l/wC+Vr0a41jS7WUw3N1HHIOqs2DUP/CQaH/z/Rf99V9Xhs/zeFOMKUpcqWnu9PuPDrZVgZTcpxV3vr/wTz//AIVPp/8Az/y/98rR/wAKn0//AJ/5f++Vr0D/AISDQ/8An+i/76o/4SDQ/wDn+i/76rf/AFjzr+aX/gK/yM/7Hy7+Vff/AME8/wD+FT6f/wA/8v8A3ytH/Cp9P/5/5f8Avla9A/4SDQ/+f6L/AL6o/wCEg0P/AJ/ov++qP9Y86/ml/wCAr/IP7Hy7+Vff/wAE8/8A+FT6f/z/AMv/AHytH/Cp9P8A+f8Al/75WvQP+Eg0P/n+i/76o/4SDQ/+f6L/AL6o/wBY86/ml/4Cv8g/sfLv5V9//BPP/wDhU+n/APP/AC/98rR/wqfT/wDn/l/75WvQP+Eg0P8A5/ov++qP+Eg0P/n+i/76o/1jzr+aX/gK/wAg/sfLv5V9/wDwTz//AIVPp/8Az/y/98rR/wAKn0//AJ/5f++Vr0D/AISDQ/8An+i/76o/4SDQ/wDn+i/76o/1jzr+aX/gK/yD+x8u/lX3/wDBPP8A/hU+n/8AP/L/AN8rR/wqfT/+f+X/AL5WvQP+Eg0P/n+i/wC+qP8AhIND/wCf6L/vqj/WPOv5pf8AgK/yD+x8u/lX3/8ABPP/APhU+n/8/wDL/wB8rR/wqfT/APn/AJf++Vr0D/hIND/5/ov++qP+Eg0P/n+i/wC+qP8AWPOv5pf+Ar/IP7Hy7+Vff/wTz/8A4VPp/wDz/wAv/fK0f8Kn0/8A5/5f++Vr0D/hIND/AOf6L/vqj/hIND/5/ov++qP9Y86/ml/4Cv8AIP7Hy7+Vff8A8E8//wCFT6f/AM/8v/fK0f8ACp9P/wCf+X/vla9A/wCEg0P/AJ/ov++qP+Eg0P8A5/ov++qP9Y86/ml/4Cv8g/sfLv5V9/8AwTz/AP4VPp//AD/y/wDfK0f8Kn0//n/l/wC+Vr0D/hIND/5/ov8Avqj/AISDQ/8An+i/76o/1jzr+aX/AICv8g/sfLv5V9//AATz/wD4VPp//P8Ay/8AfK0f8Kn0/wD5/wCX/vla9A/4SDQ/+f6L/vqj/hIND/5/ov8Avqj/AFjzr+aX/gK/yD+x8u/lX3/8E8//AOFT6f8A8/8AL/3ytH/Cp9P/AOf+X/vla9A/4SDQ/wDn+i/76o/4SDQ/+f6L/vqj/WPOv5pf+Ar/ACD+x8u/lX3/APBPP/8AhU+n/wDP/L/3ytH/AAqfT/8An/l/75WvQP8AhIND/wCf6L/vqj/hIND/AOf6L/vqj/WPOv5pf+Ar/IP7Hy7+Vff/AME8/wD+FT6f/wA/8v8A3ytVrj4V2G0ouoSgnvtWu/n8U+H4/lOoQg/74qifFHh8nJ1GH/vsU/8AWLO/5pf+A/8AAJeVZb2X3/8ABPND8GdOJydSmJP+wtJ/wpjTf+glN/3wtel/8JP4e/6CEP8A32KP+En8Pf8AQQh/77Fa/wCtGe/zy/8AAV/8ic/9g5T/ACx+/wD4J5p/wpjTf+glN/3wtH/CmNN/6CU3/fC16X/wk/h7/oIQ/wDfYo/4Sfw9/wBBCH/vsUf6057/ADy/8BX/AMiH9gZT/LH7/wDgnmn/AApjTf8AoJTf98LR/wAKY03/AKCU3/fC16X/AMJP4e/6CEP/AH2KP+En8Pf9BCH/AL7FH+tOe/zy/wDAV/8AIh/YGU/yx+//AIJ5p/wpjTf+glN/3wtSRfBzTYpUlGoykoQfuL2r0f8A4Sfw9/0EIf8AvsUo8TeH2IVdQhJPA+cUnxRnrWs5f+Ar/wCRGshym+kY/f8A8E2kXYioOdoA/KvYvhx8X9R+HGn3en2enxXi3cgkLSOykEDGBivHgQQCOQaz7zVtM051jvrmOBmGQHYDIr4yFKc5csVdn00qkYK8nZH1v/w1Jrv/AEA7b/v6/wDhR/w1Jrv/AEA7b/v6/wDhXx5/wk/h7/oIQ/8AfYo/4Sfw9/0EIf8AvsVv/Ztf/n3L7mZfXqX86+9H2H/w1Jrv/QDtv+/r/wCFH/DUmu/9AO2/7+v/AIV8ef8ACT+Hv+ghD/32KP8AhJ/D3/QQh/77FH9m1/8An3L7mH16l/OvvR9h/wDDUmu/9AO2/wC/r/4Uf8NSa7/0A7b/AL+v/hXx5/wk/h7/AKCEP/fYo/4Sfw9/0EIf++xR/Ztf/n3L7mH16l/OvvR9h/8ADUmu/wDQDtv+/r/4Uf8ADUmu/wDQDtv+/r/4V8ef8JP4e/6CEP8A32KP+En8Pf8AQQh/77FH9m1/+fcvuYfXqX86+9H2H/w1Jrv/AEA7b/v6/wDhR/w1Jrv/AEA7b/v6/wDhXx5/wk/h7/oIQ/8AfYo/4Sfw9/0EIf8AvsUf2bX/AOfcvuYfXqX86+9H2H/w1Jrv/QDtv+/r/wCFH/DUmu/9AO2/7+v/AIV8ef8ACT+Hv+ghD/32KP8AhJ/D3/QQh/77FH9m1/8An3L7mH16l/OvvR9h/wDDUmu/9AO2/wC/r/4Uf8NSa7/0A7b/AL+v/hXx5/wk/h7/AKCEP/fYo/4Sfw9/0EIf++xR/Ztf/n3L7mH16l/OvvR9h/8ADUmu/wDQDtv+/r/4Uf8ADUmu/wDQDtv+/r/4V8ef8JP4e/6CEP8A32KP+En8Pf8AQQh/77FH9m1/+fcvuYfXqX86+9H2H/w1Jrv/AEA7b/v6/wDhR/w1Jrv/AEA7b/v6/wDhXx5/wk/h7/oIQ/8AfYo/4Sfw9/0EIf8AvsUf2bX/AOfcvuYfXqX86+9H2H/w1Jrv/QDtv+/r/wCFH/DUmu/9AO2/7+v/AIV8ef8ACT+Hv+ghD/32KP8AhJ/D3/QQh/77FH9m1/8An3L7mH16l/OvvR9h/wDDUmu/9AO2/wC/r/4Uf8NSa7/0A7b/AL+v/hXx5/wk/h7/AKCEP/fYo/4Sfw9/0EIf++xR/Ztf/n3L7mH16l/OvvR9h/8ADUmu/wDQDtv+/r/4Uf8ADUmu/wDQDtv+/r/4V8ef8JP4e/6CEP8A32KP+En8Pf8AQQh/77FH9m1/+fcvuYfXqX86+9H2H/w1Jrv/AEA7b/v6/wDhR/w1Jrv/AEA7b/v6/wDhXx5/wk/h7/oIQ/8AfYo/4Sfw9/0EIf8AvsUf2bX/AOfcvuYfXqX86+9H2H/w1Jrv/QDtv+/r/wCFH/DUmu/9AO2/7+v/AIV8ef8ACT+Hv+ghD/32KP8AhJ/D3/QQh/77FH9m1/8An3L7mH16l/OvvR9h/wDDUmu/9AO2/wC/r/4Uf8NSa7/0A7b/AL+v/hXx5/wk/h7/AKCEP/fYo/4Sfw9/0EIf++xR/Ztf/n3L7mH16l/OvvR9h/8ADUmu/wDQDtv+/r/4Uf8ADUmu/wDQDtv+/r/4V8ef8JP4e/6CEP8A32KP+En8Pf8AQQh/77FH9m1/+fcvuYfXqX86+9H2H/w1Jrv/AEA7b/v6/wDhR/w1Jrv/AEA7b/v6/wDhXx5/wk/h7/oIQ/8AfYo/4Sfw9/0EIf8AvsUf2bX/AOfcvuYfXqX86+9H2H/w1Jrv/QDtv+/r/wCFH/DUmu/9AO2/7+v/AIV8ef8ACT+Hv+ghD/32KP8AhJ/D3/QQh/77FH9m1/8An3L7mH16l/OvvR9Z6r+0rrWq6ZdabJotvGt1G0ZYSOSAwxnpXzTWLH4j0GV1jjv4WZjgAOMkmtqsauHnT0nFr1RpTrRn8LTCiiisjQK9H+FEiReNbN5DgDP8xXnFd98NP+RutP8APcUMaP0q/tWw/wCev6N/hR/ath/z1/Rv8K4+isyz/9b6YooorQzCiiigAooooA+bPiD/AMjRc/Rf5VxVdr8Qf+Roufov8q4qv6Z4f/3Gj/hX5H43m3+81PV/mFFFFeueeFFFFABRRRQAUUUUAFFFFABRRRQAUUUUAFFFFABRRRQAUUUUAFFFFABRRRQAVRvLtbdMDljUl1dJboST83auVlleZy7nk10UaPNq9jkxWJ5FZbiSSNIxduSaZRRXoJHjt3CiiigQUUUUAFFFFABVmz/4+4P99f51WqzZ/wDH3B/vr/Ooq/Cy6fxI+3rf/UR/7o/lXz58Zf8AkL2H/XFv/Qq+g7f/AFEf+6P5V8+fGX/kL2H/AFxb/wBCr+dvD3/kbw9Jfkz9o4z/AORdL1X5njdFFFf0YfigUUUUAFFFFABRRRQAUUUUAFFFFABRRRQAUUUUAFFFFABRRRQAUUUUAFFFFABRRRQAUUUUAFFFFABRRRQAUUUUAFFFFAGtoP8AyGrH/rsn86+1q+KdB/5DVj/12T+dfa1fiXix/Goej/NH6p4efwqvqvyCiiivyQ/RArvvhp/yN1p/nuK4GvRPhZD5/jKzjztznnr3FDGj70oroP7C/wCm/wD47/8AXo/sL/pv/wCO/wD16zLP/9f6YooorQzCiiigAooooA+bPiD/AMjRc/Rf5VxVdr8Qf+Roufov8q4qv6Z4f/3Gj/hX5H43m3+81PV/mFFFFeueeFFFFABRRRQAUUUUAFFFFABRRRQAUUUUAFFFFABRRRQAUUUUAFFFFABVe5uEt0LN17CnTzpAhdq5a5uHuJCx6dq2o0uZ+RzYnEKC8xk87zuXY1DRRXopW0PFlJt3YUUUUxBRRRQAUUUUAFFFFABVmz/4+4P99f51WqzZ/wDH3B/vr/Ooq/Cy6fxI+3rf/UR/7o/lXz58Zf8AkL2H/XFv/Qq+g7f/AFEf+6P5V8+fGX/kL2H/AFxb/wBCr+dvD3/kbw9Jfkz9o4z/AORdL1X5njdFFFf0YfigUUUUAFFFFABRRRQAUUUUAFFFFABRRRQAUUUUAFFFFABRRRQAUUUUAFFFFABRRRQAUUUUAFFFFABRRRQAUUUUAFFFFAGtoP8AyGrH/rsn86+1q+KdB/5DVj/12T+dfa1fiXix/Goej/NH6p4efwqvqvyCiiivyQ/RAr0v4S/8jvZfj/MV5pXpfwl/5Hey/H+YoY0fpbRRRWZZ/9D6YooorQzCiiigAooooA+bPiD/AMjRc/Rf5VxVdr8Qf+Roufov8q4qv6Z4f/3Gj/hX5H43m3+81PV/mFFFFeueeFFFFABRRRQAUUUUAFFFFABRRRQAUUUUAFFFFABRRRQAUUUUAFRyyrEhdj0pZHWNS7cAVzF5dtcPgH5B0rWlScmYV66gvMZdXTXL5P3ewqpRRXpRikrI8Sc3J3YUUUUyQooooAKKKKACiiigAooooAKs2f8Ax9wf76/zqtVmz/4+4P8AfX+dRV+Fl0/iR9vW/wDqI/8AdH8q+fPjL/yF7D/ri3/oVfQdv/qI/wDdH8q+fPjL/wAhew/64t/6FX87eHv/ACN4ekvyZ+0cZ/8AIul6r8zxuiiiv6MPxQKKKKACiiigAooooAKKKKACiiigAooooAKKKKACiiigAooooAKKKKACiiigAooooAKKKKACiiigAooooAKKKKACiiigDW0H/kNWP/XZP519rV8U6D/yGrH/AK7J/OvtavxLxY/jUPR/mj9U8PP4VX1X5BRRRX5IfogV33w0/wCRutP89xXA133w0/5G60/z3FDGj76ooorMs//R+mKKKK0MwooooAKKKKAPmz4g/wDI0XP0X+VcVXa/EH/kaLn6L/KuKr+meH/9xo/4V+R+N5t/vNT1f5hRRRXrnnhRRRQAUUUUAFFFFABRRRQAUUUUAFFFFABRRRQAUUUUAFNZgilm4ApSQoyegrnb++MpMcf3RWlOm5OxjWrKCuyO+vTO2xOFFZ1FFelGKSsjxKlRyd2FFFFUQFFFFABRRRQAUUUUAFFFFABRRRQAVZs/+PuD/fX+dVqs2f8Ax9wf76/zqKvwsun8SPt63/1Ef+6P5V8+fGX/AJC9h/1xb/0KvoO3/wBRH/uj+VfPnxl/5C9h/wBcW/8AQq/nbw9/5G8PSX5M/aOM/wDkXS9V+Z43RRRX9GH4oFFFFABRRRQAUUUUAFFFFABRRRQAUUUUAFFFFABRRRQAUUUUAFFFFABRRRQAUUUUAFFFFABRRRQAUUUUAFFFFABRRRQBraD/AMhqx/67J/OvtavinQf+Q1Y/9dk/nX2tX4l4sfxqHo/zR+qeHn8Kr6r8gooor8kP0QK9B+GEby+MLRIxkn/EV59Xpfwl/wCR3svx/mKGNH37/ZV//wA8v1X/ABo/sq//AOeX6r/jXYUVmWf/0vpiiiitDMKKKKACiiigD5s+IP8AyNFz9F/lXFV2vxB/5Gi5+i/yriq/pnh//caP+Ffkfjebf7zU9X+YUUUV6554UUUUAFFFFABRRRQAUUUUAFFFFABRRRQAUUUUAFBIAyaKw9QvusMR+pq4QcnZGdWqoK7I9Qvi58qLp3NY9FFelCCirI8OrVc3dhRRRVmYUUUUAFFFFABRRRQAUUUUAFFFFABRRRQAVZs/+PuD/fX+dVqs2f8Ax9wf76/zqKvwsun8SPt63/1Ef+6P5V8+fGX/AJC9h/1xb/0KvoO3/wBRH/uj+VfPnxl/5C9h/wBcW/8AQq/nbw9/5G8PSX5M/aOM/wDkXS9V+Z43RRRX9GH4oFFFFABRRRQAUUUUAFFFFABRRRQAUUUUAFFFFABRRRQAUUUUAFFFFABRRRQAUUUUAFFFFABRRRQAUUUUAFFFFABRRRQBraD/AMhqx/67J/OvtavinQf+Q1Y/9dk/nX2tX4l4sfxqHo/zR+qeHn8Kr6r8gooor8kP0QK9L+Ev/I72X4/zFeaV6D8MJHi8YWjxnBH+IoY0fpvRXH/2rf8A/PX9F/wo/tW//wCev6L/AIVmWf/T+mKKKK0MwooooAKKKKAPmz4g/wDI0XP0X+VcVXa/EH/kaLn6L/KuKr+meH/9xo/4V+R+N5t/vNT1f5hRRRXrnnhRRRQAUUUUAFFFFABRRRQAUUUUAFFFFABRRWXf3ohHlR8sf0qoQcnZETmoq7I7++CAxRHk9awCSTk0Eljk9TSV6VOmoqx4las5u7CiiitDEKKKKACiiigAooooAKKKKACiiigAooooAKKKKACrNn/x9wf76/zqtVmz/wCPuD/fX+dRV+Fl0/iR9vW/+oj/AN0fyr58+Mv/ACF7D/ri3/oVfQdv/qI/90fyr58+Mv8AyF7D/ri3/oVfzt4e/wDI3h6S/Jn7Rxn/AMi6XqvzPG6KKK/ow/FAooooAKKKKACiiigAooooAKKKKACiiigAooooAKKKKACiiigAooooAKKKKACiiigAooooAKKKKACiiigAooooAKKKKANbQf8AkNWP/XZP519rV8U6D/yGrH/rsn86+1q/EvFj+NQ9H+aP1Tw8/hVfVfkFFFFfkh+iBXffDT/kbrT/AD3FcDXffDT/AJG60/z3FDGj76ooorMs/9T6YooorQzCiiigAooooA+bPiD/AMjRc/Rf5VxVdr8Qf+Roufov8q4qv6Z4f/3Gj/hX5H43m3+81PV/mFFFFeueeFFFFABRRRQAUUUUAFFFFABRRRQAUUVRvbtbdMD7x6U4xbdkTKSirsZfXiwLsU5Y1zTMzsWY5JpXdpGLsck0yvSpUuVHiV67m/IKKKK1MAooooAKKKKACiiigAooooAKKKKACiiigAooooAKKKKACrNn/wAfcH++v86rVZs/+PuD/fX+dRV+Fl0/iR9vW/8AqI/90fyr58+Mv/IXsP8Ari3/AKFX0Hb/AOoj/wB0fyr58+Mv/IXsP+uLf+hV/O3h7/yN4ekvyZ+0cZ/8i6XqvzPG6KKK/ow/FAooooAKKKKACiiigAooooAKKKKACiiigAooooAKKKKACiiigAooooAKKKKACiiigAooooAKKKKACiiigAooooAKKKKANbQf+Q1Y/wDXZP519rV8U6D/AMhqx/67J/OvtavxLxY/jUPR/mj9U8PP4VX1X5BRRRX5IfogV6X8Jf8Akd7L8f5ivNK9L+Ev/I72X4/zFDGj9LaKKKzLP//V+mKKKK0MwooooAKKKKAPmz4g/wDI0XP0X+VcVXa/EH/kaLn6L/KuKr+meH/9xo/4V+R+N5t/vNT1f5hRRRXrnnhRRRQAUUUUAFFFFABRRRQAUUVXubhLdCzHntTSvoKUkldjLu6S2TJ+8egrlpZGlcu5yTTp5mnkLtUNejRpcqPFxOI53psFFFFbHMFFFFABRRRQAUUUUAFFFFABRRRQAUUUUAFFFFABRRRQAUUUUAFWbP8A4+4P99f51WqzZ/8AH3B/vr/Ooq/Cy6fxI+3rf/UR/wC6P5V8+fGX/kL2H/XFv/Qq+g7f/UR/7o/lXz58Zf8AkL2H/XFv/Qq/nbw9/wCRvD0l+TP2jjP/AJF0vVfmeN0UUV/Rh+KBRRRQAUUUUAFFFFABRRRQAUUUUAFFFFABRRRQAUUUUAFFFFABRRRQAUUUUAFFFFABRRRQAUUUUAFFFFABRRRQAUUUUAa2g/8AIasf+uyfzr7Wr4p0H/kNWP8A12T+dfa1fiXix/Goej/NH6p4efwqvqvyCiiivyQ/RAr0T4WTeR4ys5MbsZ46dxXndd98NP8AkbrT/PcUMaP0a/t3/ph/49/9aj+3f+mH/j3/ANauforMs//W+mKKKK0MwooooAKKKKAPmz4g/wDI0XP0X+VcVXa/EH/kaLn6L/KuKr+meH/9xo/4V+R+N5t/vNT1f5hRRRXrnnhRRRQAUUUUAFFFFABRRUcsqQoXc8ChITdhs86QIXc1ytxcPcOWbp2FOurl7iQk/d7CqtehRo8ur3PIxOJ5nZbBRRRXQcYUUUUAFFFFABRRRQAUUUUAFFFFABRRRQAUUUUAFFFFABRRRQAUUUUAFWbP/j7g/wB9f51WqzZ/8fcH++v86ir8LLp/Ej7et/8AUR/7o/lXz58Zf+QvYf8AXFv/AEKvoO3/ANRH/uj+VfPnxl/5C9h/1xb/ANCr+dvD3/kbw9Jfkz9o4z/5F0vVfmeN0UUV/Rh+KBRRRQAUUUUAFFFFABRRRQAUUUUAFFFFABRRRQAUUUUAFFFFABRRRQAUUUUAFFFFABRRRQAUUUUAFFFFABRRRQAUUUUAa2g/8hqx/wCuyfzr7Wr4p0H/AJDVj/12T+dfa1fiXix/Goej/NH6p4efwqvqvyCiiivyQ/RArvvhp/yN1p/nuK4GvR/hRGkvjWzSQZBz/MUMaPvGiuw/sqw/55fq3+NH9lWH/PL9W/xrMs//1/piiiitDMKKKKACiiigD5s+IP8AyNFz9F/lXFV2vxB/5Gi5+i/yriq/pnh//caP+Ffkfjebf7zU9X+YUUUV6554UUUUAFFFFABRRTWYICzHAFACSSLGpZjgCuXvLtrh+Puin31407lV4QVn130KNtWeTisTze7HYKKKK6ThCiiigAooooAKKKKACiiigAooooAKKKKACiiigAooooAKKKKACiiigAooooAKs2f/AB9wf76/zqtVmz/4+4P99f51FX4WXT+JH29b/wCoj/3R/Kvnz4y/8hew/wCuLf8AoVfQdv8A6iP/AHR/Kvnz4y/8hew/64t/6FX87eHv/I3h6S/Jn7Rxn/yLpeq/M8booor+jD8UCiiigAooooAKKKKACiiigAooooAKKKKACiiigAooooAKKKKACiiigAooooAKKKKACiiigAooooAKKKKACiiigAooooA1tB/5DVj/ANdk/nX2tXxToP8AyGrH/rsn86+1q/EvFj+NQ9H+aP1Tw8/hVfVfkFFFFfkh+iBXpfwl/wCR3svx/mK80r0f4USJF41s3kOAM/zFDGj9MaKz/wC1bD/nr+jf4Uf2rYf89f0b/Csyz//Q+mKKKK0MwooooAKKKKAPmz4g/wDI0XP0X+VcVXa/EH/kaLn6L/KuKr+meH/9xo/4V+R+N5t/vNT1f5hRRRXrnnhRRRQAUUUEgDJoAQkKMnoK5y/vTM3lxn5B+tSahfFyYozwOtY9dtCjb3meZi8Tf3YhRRRXWecFFFFABRRRQAUUUUAFFFFABRRRQAUUUUAFFFFABRRRQAUUUUAFFFFABRRRQAUUUUAFWbP/AI+4P99f51WqzZ/8fcH++v8AOoq/Cy6fxI+3rf8A1Ef+6P5V8+fGX/kL2H/XFv8A0KvoO3/1Ef8Auj+VfPnxl/5C9h/1xb/0Kv528Pf+RvD0l+TP2jjP/kXS9V+Z43RRRX9GH4oFFFFABRRRQAUUUUAFFFFABRRRQAUUUUAFFFFABRRRQAUUUUAFFFFABRRRQAUUUUAFFFFABRRRQAUUUUAFFFFABRRRQBraD/yGrH/rsn86+1q+KdB/5DVj/wBdk/nX2tX4l4sfxqHo/wA0fqnh5/Cq+q/IKKKK/JD9ECu++Gn/ACN1p/nuK4Gu++Gn/I3Wn+e4oY0ffVFFFZln/9H6YooorQzCiiigAooooA+bPiD/AMjRc/Rf5VxVdr8Qf+Roufov8q4qv6Z4f/3Gj/hX5H43m3+81PV/mFFFFeueeFFFFAB05rC1C+6wxH6mpNQvtuYYjz3NYFddCj9pnnYvE/ZiFFFFdp5gUUUUAFFFFABRRRQAUUUUAFFFFABRRRQAUUUUAFFFFABRRRQAUUUUAFFFFABRRRQAUUUUAFWbP/j7g/31/nVarNn/AMfcH++v86ir8LLp/Ej7et/9RH/uj+VfPnxl/wCQvYf9cW/9Cr6Dt/8AUR/7o/lXz58Zf+QvYf8AXFv/AEKv528Pf+RvD0l+TP2jjP8A5F0vVfmeN0UUV/Rh+KBRRRQAUUUUAFFFFABRRRQAUUUUAFFFFABRRRQAUUUUAFFFFABRRRQAUUUUAFFFFABRRRQAUUUUAFFFFABRRRQAUUUUAa2g/wDIasf+uyfzr7Wr4p0H/kNWP/XZP519rV+JeLH8ah6P80fqnh5/Cq+q/IKKKK/JD9ECvRPhZD5/jKzjztznnr3Fed16X8Jf+R3svx/mKGNH6G/2F/03/wDHf/r0f2F/03/8d/8Ar10FFZln/9L6YooorQzCiiigAooooA841/4fx65qcmotdmIyADaFz0rG/wCFTxf8/wC3/fNewUV9Lh+L8wpQjThUslotF/kePVyHCTk5yhq/Nnj/APwqeL/n/b/vmj/hU8X/AD/t/wB817BRW3+u2Z/8/fwX+RH+rmD/AOff4s8f/wCFTxf8/wC3/fNVLj4VxlSiagwJ77BXsksoUYHWqZJJyaP9dsz/AOfv4L/IT4cwT/5d/izw0/BmMnJ1Jif9yk/4UxF/0Em/74r3Kitf9fc1/wCf34L/ACOf/VHL/wDn3+L/AMzw3/hTEX/QSb/vij/hTEX/AEEm/wC+K9yoo/19zX/n9+C/yD/VHL/+ff4s8N/4UxF/0Em/74o/4UxF/wBBJv8AvivcqKP9fc1/5/fgv8g/1Ry//n3+LPDf+FMRf9BJv++KP+FMRf8AQSb/AL4r3Kij/X3Nf+f34L/IP9Ucv/59/izw3/hTEX/QSb/vij/hTEX/AEEm/wC+K9yoo/19zX/n9+C/yD/VHL/+ff4s8N/4UxF/0Em/74o/4UxF/wBBJv8AvivcqKP9fc1/5/fgv8g/1Ry//n3+LPDf+FMRf9BJv++KP+FMRf8AQSb/AL4r3Kij/X3Nf+f34L/IP9Ucv/59/izw3/hTEX/QSb/vij/hTEX/AEEm/wC+K9yoo/19zX/n9+C/yD/VHL/+ff4s8N/4UxF/0Em/74o/4UxF/wBBJv8AvivcqKP9fc1/5/fgv8g/1Ry//n3+LPDf+FMRf9BJv++KP+FMRf8AQSb/AL4r3Kij/X3Nf+f34L/IP9Ucv/59/izw3/hTEX/QSb/vij/hTEX/AEEm/wC+K9yoo/19zX/n9+C/yD/VHL/+ff4s8N/4UxF/0Em/74o/4UxF/wBBJv8AvivcqKP9fc1/5/fgv8g/1Ry//n3+LPDf+FMRf9BJv++KP+FMRf8AQSb/AL4r3Kij/X3Nf+f34L/IP9Ucv/59/izw3/hTEX/QSb/vij/hTEX/AEEm/wC+K9yoo/19zX/n9+C/yD/VHL/+ff4s8N/4UxF/0Em/74o/4UxF/wBBJv8AvivcqKP9fc1/5/fgv8g/1Ry//n3+LPDf+FMRf9BJv++Kkh+DkUUqS/2ix2MDjZ6GvbqKT48zVqzrfgv8gXCWXrX2f4sZGuxFTrtAH5VwHjHwIniy7gumujb+ShTAXOcnNehUV89l+ZVsLVVehK0u/qezjMDSxFN0qqvE8N/4UxF/0Em/74o/4UxF/wBBJv8AvivcqK+i/wBfc1/5/fgv8jxv9Ucv/wCff4s8N/4UxF/0Em/74o/4UxF/0Em/74r3Kij/AF9zX/n9+C/yD/VHL/8An3+LPDf+FMRf9BJv++KP+FMRf9BJv++K9yoo/wBfc1/5/fgv8g/1Ry//AJ9/izw3/hTEX/QSb/vij/hTEX/QSb/vivcqKP8AX3Nf+f34L/IP9Ucv/wCff4s8N/4UxF/0Em/74o/4UxF/0Em/74r3Kij/AF9zX/n9+C/yD/VHL/8An3+LPDf+FMRf9BJv++KP+FMRf9BJv++K9yoo/wBfc1/5/fgv8g/1Ry//AJ9/izw3/hTEX/QSb/vij/hTEX/QSb/vivcqKP8AX3Nf+f34L/IP9Ucv/wCff4s8N/4UxF/0Em/74o/4UxF/0Em/74r3Kij/AF9zX/n9+C/yD/VHL/8An3+LPDf+FMRf9BJv++KP+FMRf9BJv++K9yoo/wBfc1/5/fgv8g/1Ry//AJ9/izw3/hTEX/QSb/vij/hTEX/QSb/vivcqKP8AX3Nf+f34L/IP9Ucv/wCff4s8N/4UxF/0Em/74o/4UxF/0Em/74r3Kij/AF9zX/n9+C/yD/VHL/8An3+LPDf+FMRf9BJv++KP+FMRf9BJv++K9yoo/wBfc1/5/fgv8g/1Ry//AJ9/izw3/hTEX/QSb/vij/hTEX/QSb/vivcqKP8AX3Nf+f34L/IP9Ucv/wCff4s8N/4UxF/0Em/74o/4UxF/0Em/74r3Kij/AF9zX/n9+C/yD/VHL/8An3+LPDf+FMRf9BJv++KP+FMRf9BJv++K9yoo/wBfc1/5/fgv8g/1Ry//AJ9/izw3/hTEX/QSb/vij/hTEX/QSb/vivcqKP8AX3Nf+f34L/IP9Ucv/wCff4s8N/4UxF/0Em/74o/4UxF/0Em/74r3Kij/AF9zX/n9+C/yD/VHL/8An3+LPDf+FMRf9BJv++KP+FMRf9BJv++K9yoo/wBfc1/5/fgv8g/1Ry//AJ9/izxix+EUVlewXY1At5Lq+NnXBzXs9FFeLmueYrGuMsTPma20S/I9TL8qoYVNUI2uFFFFeSegFel/CX/kd7L8f5ivNK774af8jdaf57ihjR+nVFef0VmWf//T+mKK3vE2jXega3daZep5ciMSB/sknH6Vg1oZhRRRQAUUUUAFFFFABUUkgQcdaJJAg96osxY5NAASScmkoooAKKKKACiiigAooooAKKKKACiiigAooooAKKKKACiiigAooooAKKKKACiiigAooooAKKKKACiiigAooooAKKKKACiiigAooooAKKKKACiiigAooooAKKKKACiiigAooooAKKKKACiiigAooooAKKKKACiiigAooooAKKKKACiiigAooooAKKKKACiiigAooooAKKKKACvSfhRatd+MraNBkqrN+WK82r6k+AHhC4mM/iAp86/LGDxlGXkgnjrQxo+lKK0P7Kv/APnl+q/40f2Vf/8APL9V/wAazLP/1P1S/aM0HTY7W01pI9t1ISrMOAQo44r5Fr7U/aP/AOQBY/77/wAhXxXVohhRRRTEFFFFABSHoaWkPQ0AZ7ksxJplOb7xptABRRRQAUUUUAFFFFABRRRQAUUUUAFFFFABRRRQAUUUUAFFFFABRRRQAUUUUAFFFFABRRRQAUUUUAFFFFABRRRQAUUUUAFFFFABRRRQAUUUUAFFFFABRRRQAUUUUAFFFFABRRRQAUUUUAFFFFABRRRQAUUUUAFFFFABRRRQAUUUUAFFFFABRRRQAUUUUAFFFFABRRRQAUUUUAa+hWkN7qtvbzglHdQccd6/SbwZptnpEEdhYpsiiiwB36jqa/OLwv8A8hy0/wCui/zFfpZ4f/13/bP+oqZFROsoooqSj//Z;" vertex="1" parent="1">
          <mxGeometry x="270" y="446.76" width="66.91" height="56.49" as="geometry" />
        </mxCell>
      </root>
    </mxGraphModel>
  </diagram>
</mxfile>
